M48
; DRILL file {KiCad (5.1.5)-3} date 2020/07/04 19:25:04
; FORMAT={-:-/ absolute / metric / decimal}
; #@! TF.CreationDate,2020-07-04T19:25:04+09:00
; #@! TF.GenerationSoftware,Kicad,Pcbnew,(5.1.5)-3
; #@! TF.FileFunction,NonPlated,1,2,NPTH
FMAT,2
METRIC
T1C1.702
T2C2.200
T3C3.988
%
G90
G05
T1
X52.07Y-95.25
X62.23Y-95.25
X33.02Y-76.2
X43.18Y-76.2
X71.12Y-114.3
X81.28Y-114.3
X109.22Y-57.15
X119.38Y-57.15
X52.07Y-76.2
X62.23Y-76.2
X90.17Y-57.15
X100.33Y-57.15
X71.12Y-95.25
X81.28Y-95.25
X109.22Y-76.2
X119.38Y-76.2
X33.02Y-57.15
X43.18Y-57.15
X71.12Y-76.2
X81.28Y-76.2
X33.02Y-114.3
X43.18Y-114.3
X128.27Y-114.3
X138.43Y-114.3
X52.07Y-114.3
X62.23Y-114.3
X128.27Y-76.2
X138.43Y-76.2
X128.27Y-95.25
X138.43Y-95.25
X52.07Y-57.15
X62.23Y-57.15
X90.17Y-114.3
X100.33Y-114.3
X33.02Y-95.25
X43.18Y-95.25
X109.22Y-114.3
X119.38Y-114.3
X90.17Y-95.25
X100.33Y-95.25
X128.27Y-57.15
X138.43Y-57.15
X90.17Y-76.2
X100.33Y-76.2
X71.12Y-57.15
X81.28Y-57.15
X109.22Y-95.25
X119.38Y-95.25
T2
X124.0Y-119.0
X124.0Y-54.0
X73.66Y-31.115
X97.79Y-43.815
X97.79Y-31.115
X47.6Y-53.0
X73.66Y-43.815
X47.6Y-119.0
T3
X38.1Y-57.15
X76.2Y-76.2
X38.1Y-114.3
X133.35Y-114.3
X57.15Y-114.3
X133.35Y-76.2
X133.35Y-95.25
X57.15Y-57.15
X95.25Y-114.3
X38.1Y-95.25
X114.3Y-114.3
X95.25Y-95.25
X133.35Y-57.15
X95.25Y-76.2
X76.2Y-57.15
X114.3Y-95.25
X57.15Y-95.25
X38.1Y-76.2
X76.2Y-114.3
X114.3Y-57.15
X57.15Y-76.2
X95.25Y-57.15
X76.2Y-95.25
X114.3Y-76.2
T0
M30
