G04 #@! TF.GenerationSoftware,KiCad,Pcbnew,(5.1.5)-3*
G04 #@! TF.CreationDate,2020-07-04T19:23:36+09:00*
G04 #@! TF.ProjectId,slamd,736c616d-642e-46b6-9963-61645f706362,rev?*
G04 #@! TF.SameCoordinates,Original*
G04 #@! TF.FileFunction,Legend,Bot*
G04 #@! TF.FilePolarity,Positive*
%FSLAX46Y46*%
G04 Gerber Fmt 4.6, Leading zero omitted, Abs format (unit mm)*
G04 Created by KiCad (PCBNEW (5.1.5)-3) date 2020-07-04 19:23:36*
%MOMM*%
%LPD*%
G04 APERTURE LIST*
%ADD10C,0.300000*%
%ADD11C,0.150000*%
%ADD12C,0.200000*%
G04 APERTURE END LIST*
D10*
X141678571Y-31178571D02*
X141678571Y-30178571D01*
X141678571Y-30464285D02*
X141607142Y-30321428D01*
X141535714Y-30250000D01*
X141392857Y-30178571D01*
X141250000Y-30178571D01*
X140178571Y-31107142D02*
X140321428Y-31178571D01*
X140607142Y-31178571D01*
X140750000Y-31107142D01*
X140821428Y-30964285D01*
X140821428Y-30392857D01*
X140750000Y-30250000D01*
X140607142Y-30178571D01*
X140321428Y-30178571D01*
X140178571Y-30250000D01*
X140107142Y-30392857D01*
X140107142Y-30535714D01*
X140821428Y-30678571D01*
X139607142Y-30178571D02*
X139250000Y-31178571D01*
X138892857Y-30178571D01*
X136392857Y-31178571D02*
X137250000Y-31178571D01*
X136821428Y-31178571D02*
X136821428Y-29678571D01*
X136964285Y-29892857D01*
X137107142Y-30035714D01*
X137250000Y-30107142D01*
X135750000Y-31035714D02*
X135678571Y-31107142D01*
X135750000Y-31178571D01*
X135821428Y-31107142D01*
X135750000Y-31035714D01*
X135750000Y-31178571D01*
X134750000Y-29678571D02*
X134607142Y-29678571D01*
X134464285Y-29750000D01*
X134392857Y-29821428D01*
X134321428Y-29964285D01*
X134250000Y-30250000D01*
X134250000Y-30607142D01*
X134321428Y-30892857D01*
X134392857Y-31035714D01*
X134464285Y-31107142D01*
X134607142Y-31178571D01*
X134750000Y-31178571D01*
X134892857Y-31107142D01*
X134964285Y-31035714D01*
X135035714Y-30892857D01*
X135107142Y-30607142D01*
X135107142Y-30250000D01*
X135035714Y-29964285D01*
X134964285Y-29821428D01*
X134892857Y-29750000D01*
X134750000Y-29678571D01*
D11*
X69675000Y-28730000D02*
X69675000Y-28980000D01*
X63675000Y-28730000D02*
X69675000Y-28730000D01*
X63675000Y-28980000D02*
X63675000Y-28730000D01*
X63675000Y-32230000D02*
X63675000Y-31980000D01*
X69675000Y-32230000D02*
X63675000Y-32230000D01*
X69675000Y-31980000D02*
X69675000Y-32230000D01*
X68254380Y-30932380D02*
X68587714Y-30456190D01*
X68825809Y-30932380D02*
X68825809Y-29932380D01*
X68444857Y-29932380D01*
X68349619Y-29980000D01*
X68302000Y-30027619D01*
X68254380Y-30122857D01*
X68254380Y-30265714D01*
X68302000Y-30360952D01*
X68349619Y-30408571D01*
X68444857Y-30456190D01*
X68825809Y-30456190D01*
X67825809Y-30408571D02*
X67492476Y-30408571D01*
X67349619Y-30932380D02*
X67825809Y-30932380D01*
X67825809Y-29932380D01*
X67349619Y-29932380D01*
X66968666Y-30884761D02*
X66825809Y-30932380D01*
X66587714Y-30932380D01*
X66492476Y-30884761D01*
X66444857Y-30837142D01*
X66397238Y-30741904D01*
X66397238Y-30646666D01*
X66444857Y-30551428D01*
X66492476Y-30503809D01*
X66587714Y-30456190D01*
X66778190Y-30408571D01*
X66873428Y-30360952D01*
X66921047Y-30313333D01*
X66968666Y-30218095D01*
X66968666Y-30122857D01*
X66921047Y-30027619D01*
X66873428Y-29980000D01*
X66778190Y-29932380D01*
X66540095Y-29932380D01*
X66397238Y-29980000D01*
X65968666Y-30408571D02*
X65635333Y-30408571D01*
X65492476Y-30932380D02*
X65968666Y-30932380D01*
X65968666Y-29932380D01*
X65492476Y-29932380D01*
X65206761Y-29932380D02*
X64635333Y-29932380D01*
X64921047Y-30932380D02*
X64921047Y-29932380D01*
D12*
X38838095Y-61920380D02*
X38838095Y-60920380D01*
X38266666Y-61920380D02*
X38695238Y-61348952D01*
X38266666Y-60920380D02*
X38838095Y-61491809D01*
X37314285Y-61920380D02*
X37885714Y-61920380D01*
X37600000Y-61920380D02*
X37600000Y-60920380D01*
X37695238Y-61063238D01*
X37790476Y-61158476D01*
X37885714Y-61206095D01*
X38838095Y-80970380D02*
X38838095Y-79970380D01*
X38266666Y-80970380D02*
X38695238Y-80398952D01*
X38266666Y-79970380D02*
X38838095Y-80541809D01*
X37885714Y-80065619D02*
X37838095Y-80018000D01*
X37742857Y-79970380D01*
X37504761Y-79970380D01*
X37409523Y-80018000D01*
X37361904Y-80065619D01*
X37314285Y-80160857D01*
X37314285Y-80256095D01*
X37361904Y-80398952D01*
X37933333Y-80970380D01*
X37314285Y-80970380D01*
X38838095Y-100020380D02*
X38838095Y-99020380D01*
X38266666Y-100020380D02*
X38695238Y-99448952D01*
X38266666Y-99020380D02*
X38838095Y-99591809D01*
X37933333Y-99020380D02*
X37314285Y-99020380D01*
X37647619Y-99401333D01*
X37504761Y-99401333D01*
X37409523Y-99448952D01*
X37361904Y-99496571D01*
X37314285Y-99591809D01*
X37314285Y-99829904D01*
X37361904Y-99925142D01*
X37409523Y-99972761D01*
X37504761Y-100020380D01*
X37790476Y-100020380D01*
X37885714Y-99972761D01*
X37933333Y-99925142D01*
X38838095Y-119070380D02*
X38838095Y-118070380D01*
X38266666Y-119070380D02*
X38695238Y-118498952D01*
X38266666Y-118070380D02*
X38838095Y-118641809D01*
X37409523Y-118403714D02*
X37409523Y-119070380D01*
X37647619Y-118022761D02*
X37885714Y-118737047D01*
X37266666Y-118737047D01*
X57888095Y-61920380D02*
X57888095Y-60920380D01*
X57316666Y-61920380D02*
X57745238Y-61348952D01*
X57316666Y-60920380D02*
X57888095Y-61491809D01*
X56411904Y-60920380D02*
X56888095Y-60920380D01*
X56935714Y-61396571D01*
X56888095Y-61348952D01*
X56792857Y-61301333D01*
X56554761Y-61301333D01*
X56459523Y-61348952D01*
X56411904Y-61396571D01*
X56364285Y-61491809D01*
X56364285Y-61729904D01*
X56411904Y-61825142D01*
X56459523Y-61872761D01*
X56554761Y-61920380D01*
X56792857Y-61920380D01*
X56888095Y-61872761D01*
X56935714Y-61825142D01*
X57888095Y-80970380D02*
X57888095Y-79970380D01*
X57316666Y-80970380D02*
X57745238Y-80398952D01*
X57316666Y-79970380D02*
X57888095Y-80541809D01*
X56459523Y-79970380D02*
X56650000Y-79970380D01*
X56745238Y-80018000D01*
X56792857Y-80065619D01*
X56888095Y-80208476D01*
X56935714Y-80398952D01*
X56935714Y-80779904D01*
X56888095Y-80875142D01*
X56840476Y-80922761D01*
X56745238Y-80970380D01*
X56554761Y-80970380D01*
X56459523Y-80922761D01*
X56411904Y-80875142D01*
X56364285Y-80779904D01*
X56364285Y-80541809D01*
X56411904Y-80446571D01*
X56459523Y-80398952D01*
X56554761Y-80351333D01*
X56745238Y-80351333D01*
X56840476Y-80398952D01*
X56888095Y-80446571D01*
X56935714Y-80541809D01*
X57888095Y-100020380D02*
X57888095Y-99020380D01*
X57316666Y-100020380D02*
X57745238Y-99448952D01*
X57316666Y-99020380D02*
X57888095Y-99591809D01*
X56983333Y-99020380D02*
X56316666Y-99020380D01*
X56745238Y-100020380D01*
X57888095Y-119070380D02*
X57888095Y-118070380D01*
X57316666Y-119070380D02*
X57745238Y-118498952D01*
X57316666Y-118070380D02*
X57888095Y-118641809D01*
X56745238Y-118498952D02*
X56840476Y-118451333D01*
X56888095Y-118403714D01*
X56935714Y-118308476D01*
X56935714Y-118260857D01*
X56888095Y-118165619D01*
X56840476Y-118118000D01*
X56745238Y-118070380D01*
X56554761Y-118070380D01*
X56459523Y-118118000D01*
X56411904Y-118165619D01*
X56364285Y-118260857D01*
X56364285Y-118308476D01*
X56411904Y-118403714D01*
X56459523Y-118451333D01*
X56554761Y-118498952D01*
X56745238Y-118498952D01*
X56840476Y-118546571D01*
X56888095Y-118594190D01*
X56935714Y-118689428D01*
X56935714Y-118879904D01*
X56888095Y-118975142D01*
X56840476Y-119022761D01*
X56745238Y-119070380D01*
X56554761Y-119070380D01*
X56459523Y-119022761D01*
X56411904Y-118975142D01*
X56364285Y-118879904D01*
X56364285Y-118689428D01*
X56411904Y-118594190D01*
X56459523Y-118546571D01*
X56554761Y-118498952D01*
X76938095Y-61920380D02*
X76938095Y-60920380D01*
X76366666Y-61920380D02*
X76795238Y-61348952D01*
X76366666Y-60920380D02*
X76938095Y-61491809D01*
X75890476Y-61920380D02*
X75700000Y-61920380D01*
X75604761Y-61872761D01*
X75557142Y-61825142D01*
X75461904Y-61682285D01*
X75414285Y-61491809D01*
X75414285Y-61110857D01*
X75461904Y-61015619D01*
X75509523Y-60968000D01*
X75604761Y-60920380D01*
X75795238Y-60920380D01*
X75890476Y-60968000D01*
X75938095Y-61015619D01*
X75985714Y-61110857D01*
X75985714Y-61348952D01*
X75938095Y-61444190D01*
X75890476Y-61491809D01*
X75795238Y-61539428D01*
X75604761Y-61539428D01*
X75509523Y-61491809D01*
X75461904Y-61444190D01*
X75414285Y-61348952D01*
X77414285Y-80970380D02*
X77414285Y-79970380D01*
X76842857Y-80970380D02*
X77271428Y-80398952D01*
X76842857Y-79970380D02*
X77414285Y-80541809D01*
X75890476Y-80970380D02*
X76461904Y-80970380D01*
X76176190Y-80970380D02*
X76176190Y-79970380D01*
X76271428Y-80113238D01*
X76366666Y-80208476D01*
X76461904Y-80256095D01*
X75271428Y-79970380D02*
X75176190Y-79970380D01*
X75080952Y-80018000D01*
X75033333Y-80065619D01*
X74985714Y-80160857D01*
X74938095Y-80351333D01*
X74938095Y-80589428D01*
X74985714Y-80779904D01*
X75033333Y-80875142D01*
X75080952Y-80922761D01*
X75176190Y-80970380D01*
X75271428Y-80970380D01*
X75366666Y-80922761D01*
X75414285Y-80875142D01*
X75461904Y-80779904D01*
X75509523Y-80589428D01*
X75509523Y-80351333D01*
X75461904Y-80160857D01*
X75414285Y-80065619D01*
X75366666Y-80018000D01*
X75271428Y-79970380D01*
X77414285Y-100020380D02*
X77414285Y-99020380D01*
X76842857Y-100020380D02*
X77271428Y-99448952D01*
X76842857Y-99020380D02*
X77414285Y-99591809D01*
X75890476Y-100020380D02*
X76461904Y-100020380D01*
X76176190Y-100020380D02*
X76176190Y-99020380D01*
X76271428Y-99163238D01*
X76366666Y-99258476D01*
X76461904Y-99306095D01*
X74938095Y-100020380D02*
X75509523Y-100020380D01*
X75223809Y-100020380D02*
X75223809Y-99020380D01*
X75319047Y-99163238D01*
X75414285Y-99258476D01*
X75509523Y-99306095D01*
X77414285Y-119070380D02*
X77414285Y-118070380D01*
X76842857Y-119070380D02*
X77271428Y-118498952D01*
X76842857Y-118070380D02*
X77414285Y-118641809D01*
X75890476Y-119070380D02*
X76461904Y-119070380D01*
X76176190Y-119070380D02*
X76176190Y-118070380D01*
X76271428Y-118213238D01*
X76366666Y-118308476D01*
X76461904Y-118356095D01*
X75509523Y-118165619D02*
X75461904Y-118118000D01*
X75366666Y-118070380D01*
X75128571Y-118070380D01*
X75033333Y-118118000D01*
X74985714Y-118165619D01*
X74938095Y-118260857D01*
X74938095Y-118356095D01*
X74985714Y-118498952D01*
X75557142Y-119070380D01*
X74938095Y-119070380D01*
X96464285Y-61920380D02*
X96464285Y-60920380D01*
X95892857Y-61920380D02*
X96321428Y-61348952D01*
X95892857Y-60920380D02*
X96464285Y-61491809D01*
X94940476Y-61920380D02*
X95511904Y-61920380D01*
X95226190Y-61920380D02*
X95226190Y-60920380D01*
X95321428Y-61063238D01*
X95416666Y-61158476D01*
X95511904Y-61206095D01*
X94607142Y-60920380D02*
X93988095Y-60920380D01*
X94321428Y-61301333D01*
X94178571Y-61301333D01*
X94083333Y-61348952D01*
X94035714Y-61396571D01*
X93988095Y-61491809D01*
X93988095Y-61729904D01*
X94035714Y-61825142D01*
X94083333Y-61872761D01*
X94178571Y-61920380D01*
X94464285Y-61920380D01*
X94559523Y-61872761D01*
X94607142Y-61825142D01*
X96464285Y-80970380D02*
X96464285Y-79970380D01*
X95892857Y-80970380D02*
X96321428Y-80398952D01*
X95892857Y-79970380D02*
X96464285Y-80541809D01*
X94940476Y-80970380D02*
X95511904Y-80970380D01*
X95226190Y-80970380D02*
X95226190Y-79970380D01*
X95321428Y-80113238D01*
X95416666Y-80208476D01*
X95511904Y-80256095D01*
X94083333Y-80303714D02*
X94083333Y-80970380D01*
X94321428Y-79922761D02*
X94559523Y-80637047D01*
X93940476Y-80637047D01*
X96464285Y-100020380D02*
X96464285Y-99020380D01*
X95892857Y-100020380D02*
X96321428Y-99448952D01*
X95892857Y-99020380D02*
X96464285Y-99591809D01*
X94940476Y-100020380D02*
X95511904Y-100020380D01*
X95226190Y-100020380D02*
X95226190Y-99020380D01*
X95321428Y-99163238D01*
X95416666Y-99258476D01*
X95511904Y-99306095D01*
X94035714Y-99020380D02*
X94511904Y-99020380D01*
X94559523Y-99496571D01*
X94511904Y-99448952D01*
X94416666Y-99401333D01*
X94178571Y-99401333D01*
X94083333Y-99448952D01*
X94035714Y-99496571D01*
X93988095Y-99591809D01*
X93988095Y-99829904D01*
X94035714Y-99925142D01*
X94083333Y-99972761D01*
X94178571Y-100020380D01*
X94416666Y-100020380D01*
X94511904Y-99972761D01*
X94559523Y-99925142D01*
X96464285Y-119070380D02*
X96464285Y-118070380D01*
X95892857Y-119070380D02*
X96321428Y-118498952D01*
X95892857Y-118070380D02*
X96464285Y-118641809D01*
X94940476Y-119070380D02*
X95511904Y-119070380D01*
X95226190Y-119070380D02*
X95226190Y-118070380D01*
X95321428Y-118213238D01*
X95416666Y-118308476D01*
X95511904Y-118356095D01*
X94083333Y-118070380D02*
X94273809Y-118070380D01*
X94369047Y-118118000D01*
X94416666Y-118165619D01*
X94511904Y-118308476D01*
X94559523Y-118498952D01*
X94559523Y-118879904D01*
X94511904Y-118975142D01*
X94464285Y-119022761D01*
X94369047Y-119070380D01*
X94178571Y-119070380D01*
X94083333Y-119022761D01*
X94035714Y-118975142D01*
X93988095Y-118879904D01*
X93988095Y-118641809D01*
X94035714Y-118546571D01*
X94083333Y-118498952D01*
X94178571Y-118451333D01*
X94369047Y-118451333D01*
X94464285Y-118498952D01*
X94511904Y-118546571D01*
X94559523Y-118641809D01*
X115514285Y-61920380D02*
X115514285Y-60920380D01*
X114942857Y-61920380D02*
X115371428Y-61348952D01*
X114942857Y-60920380D02*
X115514285Y-61491809D01*
X113990476Y-61920380D02*
X114561904Y-61920380D01*
X114276190Y-61920380D02*
X114276190Y-60920380D01*
X114371428Y-61063238D01*
X114466666Y-61158476D01*
X114561904Y-61206095D01*
X113657142Y-60920380D02*
X112990476Y-60920380D01*
X113419047Y-61920380D01*
X115514285Y-80970380D02*
X115514285Y-79970380D01*
X114942857Y-80970380D02*
X115371428Y-80398952D01*
X114942857Y-79970380D02*
X115514285Y-80541809D01*
X113990476Y-80970380D02*
X114561904Y-80970380D01*
X114276190Y-80970380D02*
X114276190Y-79970380D01*
X114371428Y-80113238D01*
X114466666Y-80208476D01*
X114561904Y-80256095D01*
X113419047Y-80398952D02*
X113514285Y-80351333D01*
X113561904Y-80303714D01*
X113609523Y-80208476D01*
X113609523Y-80160857D01*
X113561904Y-80065619D01*
X113514285Y-80018000D01*
X113419047Y-79970380D01*
X113228571Y-79970380D01*
X113133333Y-80018000D01*
X113085714Y-80065619D01*
X113038095Y-80160857D01*
X113038095Y-80208476D01*
X113085714Y-80303714D01*
X113133333Y-80351333D01*
X113228571Y-80398952D01*
X113419047Y-80398952D01*
X113514285Y-80446571D01*
X113561904Y-80494190D01*
X113609523Y-80589428D01*
X113609523Y-80779904D01*
X113561904Y-80875142D01*
X113514285Y-80922761D01*
X113419047Y-80970380D01*
X113228571Y-80970380D01*
X113133333Y-80922761D01*
X113085714Y-80875142D01*
X113038095Y-80779904D01*
X113038095Y-80589428D01*
X113085714Y-80494190D01*
X113133333Y-80446571D01*
X113228571Y-80398952D01*
X115514285Y-100020380D02*
X115514285Y-99020380D01*
X114942857Y-100020380D02*
X115371428Y-99448952D01*
X114942857Y-99020380D02*
X115514285Y-99591809D01*
X113990476Y-100020380D02*
X114561904Y-100020380D01*
X114276190Y-100020380D02*
X114276190Y-99020380D01*
X114371428Y-99163238D01*
X114466666Y-99258476D01*
X114561904Y-99306095D01*
X113514285Y-100020380D02*
X113323809Y-100020380D01*
X113228571Y-99972761D01*
X113180952Y-99925142D01*
X113085714Y-99782285D01*
X113038095Y-99591809D01*
X113038095Y-99210857D01*
X113085714Y-99115619D01*
X113133333Y-99068000D01*
X113228571Y-99020380D01*
X113419047Y-99020380D01*
X113514285Y-99068000D01*
X113561904Y-99115619D01*
X113609523Y-99210857D01*
X113609523Y-99448952D01*
X113561904Y-99544190D01*
X113514285Y-99591809D01*
X113419047Y-99639428D01*
X113228571Y-99639428D01*
X113133333Y-99591809D01*
X113085714Y-99544190D01*
X113038095Y-99448952D01*
X115514285Y-119070380D02*
X115514285Y-118070380D01*
X114942857Y-119070380D02*
X115371428Y-118498952D01*
X114942857Y-118070380D02*
X115514285Y-118641809D01*
X114561904Y-118165619D02*
X114514285Y-118118000D01*
X114419047Y-118070380D01*
X114180952Y-118070380D01*
X114085714Y-118118000D01*
X114038095Y-118165619D01*
X113990476Y-118260857D01*
X113990476Y-118356095D01*
X114038095Y-118498952D01*
X114609523Y-119070380D01*
X113990476Y-119070380D01*
X113371428Y-118070380D02*
X113276190Y-118070380D01*
X113180952Y-118118000D01*
X113133333Y-118165619D01*
X113085714Y-118260857D01*
X113038095Y-118451333D01*
X113038095Y-118689428D01*
X113085714Y-118879904D01*
X113133333Y-118975142D01*
X113180952Y-119022761D01*
X113276190Y-119070380D01*
X113371428Y-119070380D01*
X113466666Y-119022761D01*
X113514285Y-118975142D01*
X113561904Y-118879904D01*
X113609523Y-118689428D01*
X113609523Y-118451333D01*
X113561904Y-118260857D01*
X113514285Y-118165619D01*
X113466666Y-118118000D01*
X113371428Y-118070380D01*
X134564285Y-61920380D02*
X134564285Y-60920380D01*
X133992857Y-61920380D02*
X134421428Y-61348952D01*
X133992857Y-60920380D02*
X134564285Y-61491809D01*
X133611904Y-61015619D02*
X133564285Y-60968000D01*
X133469047Y-60920380D01*
X133230952Y-60920380D01*
X133135714Y-60968000D01*
X133088095Y-61015619D01*
X133040476Y-61110857D01*
X133040476Y-61206095D01*
X133088095Y-61348952D01*
X133659523Y-61920380D01*
X133040476Y-61920380D01*
X132088095Y-61920380D02*
X132659523Y-61920380D01*
X132373809Y-61920380D02*
X132373809Y-60920380D01*
X132469047Y-61063238D01*
X132564285Y-61158476D01*
X132659523Y-61206095D01*
X134564285Y-80970380D02*
X134564285Y-79970380D01*
X133992857Y-80970380D02*
X134421428Y-80398952D01*
X133992857Y-79970380D02*
X134564285Y-80541809D01*
X133611904Y-80065619D02*
X133564285Y-80018000D01*
X133469047Y-79970380D01*
X133230952Y-79970380D01*
X133135714Y-80018000D01*
X133088095Y-80065619D01*
X133040476Y-80160857D01*
X133040476Y-80256095D01*
X133088095Y-80398952D01*
X133659523Y-80970380D01*
X133040476Y-80970380D01*
X132659523Y-80065619D02*
X132611904Y-80018000D01*
X132516666Y-79970380D01*
X132278571Y-79970380D01*
X132183333Y-80018000D01*
X132135714Y-80065619D01*
X132088095Y-80160857D01*
X132088095Y-80256095D01*
X132135714Y-80398952D01*
X132707142Y-80970380D01*
X132088095Y-80970380D01*
X134564285Y-100020380D02*
X134564285Y-99020380D01*
X133992857Y-100020380D02*
X134421428Y-99448952D01*
X133992857Y-99020380D02*
X134564285Y-99591809D01*
X133611904Y-99115619D02*
X133564285Y-99068000D01*
X133469047Y-99020380D01*
X133230952Y-99020380D01*
X133135714Y-99068000D01*
X133088095Y-99115619D01*
X133040476Y-99210857D01*
X133040476Y-99306095D01*
X133088095Y-99448952D01*
X133659523Y-100020380D01*
X133040476Y-100020380D01*
X132707142Y-99020380D02*
X132088095Y-99020380D01*
X132421428Y-99401333D01*
X132278571Y-99401333D01*
X132183333Y-99448952D01*
X132135714Y-99496571D01*
X132088095Y-99591809D01*
X132088095Y-99829904D01*
X132135714Y-99925142D01*
X132183333Y-99972761D01*
X132278571Y-100020380D01*
X132564285Y-100020380D01*
X132659523Y-99972761D01*
X132707142Y-99925142D01*
X134564285Y-119070380D02*
X134564285Y-118070380D01*
X133992857Y-119070380D02*
X134421428Y-118498952D01*
X133992857Y-118070380D02*
X134564285Y-118641809D01*
X133611904Y-118165619D02*
X133564285Y-118118000D01*
X133469047Y-118070380D01*
X133230952Y-118070380D01*
X133135714Y-118118000D01*
X133088095Y-118165619D01*
X133040476Y-118260857D01*
X133040476Y-118356095D01*
X133088095Y-118498952D01*
X133659523Y-119070380D01*
X133040476Y-119070380D01*
X132183333Y-118403714D02*
X132183333Y-119070380D01*
X132421428Y-118022761D02*
X132659523Y-118737047D01*
X132040476Y-118737047D01*
M02*
