G04 #@! TF.GenerationSoftware,KiCad,Pcbnew,(5.1.5)-3*
G04 #@! TF.CreationDate,2020-07-04T19:23:36+09:00*
G04 #@! TF.ProjectId,slamd,736c616d-642e-46b6-9963-61645f706362,rev?*
G04 #@! TF.SameCoordinates,Original*
G04 #@! TF.FileFunction,Soldermask,Bot*
G04 #@! TF.FilePolarity,Negative*
%FSLAX46Y46*%
G04 Gerber Fmt 4.6, Leading zero omitted, Abs format (unit mm)*
G04 Created by KiCad (PCBNEW (5.1.5)-3) date 2020-07-04 19:23:36*
%MOMM*%
%LPD*%
G04 APERTURE LIST*
%ADD10C,0.100000*%
G04 APERTURE END LIST*
D10*
G36*
X137648228Y-121681703D02*
G01*
X137803100Y-121745853D01*
X137942481Y-121838985D01*
X138061015Y-121957519D01*
X138154147Y-122096900D01*
X138218297Y-122251772D01*
X138251000Y-122416184D01*
X138251000Y-122583816D01*
X138218297Y-122748228D01*
X138154147Y-122903100D01*
X138061015Y-123042481D01*
X137942481Y-123161015D01*
X137803100Y-123254147D01*
X137648228Y-123318297D01*
X137483816Y-123351000D01*
X137316184Y-123351000D01*
X137151772Y-123318297D01*
X136996900Y-123254147D01*
X136857519Y-123161015D01*
X136738985Y-123042481D01*
X136645853Y-122903100D01*
X136581703Y-122748228D01*
X136549000Y-122583816D01*
X136549000Y-122416184D01*
X136581703Y-122251772D01*
X136645853Y-122096900D01*
X136738985Y-121957519D01*
X136857519Y-121838985D01*
X136996900Y-121745853D01*
X137151772Y-121681703D01*
X137316184Y-121649000D01*
X137483816Y-121649000D01*
X137648228Y-121681703D01*
G37*
G36*
X130451000Y-123351000D02*
G01*
X128749000Y-123351000D01*
X128749000Y-121649000D01*
X130451000Y-121649000D01*
X130451000Y-123351000D01*
G37*
G36*
X35451000Y-123351000D02*
G01*
X33749000Y-123351000D01*
X33749000Y-121649000D01*
X35451000Y-121649000D01*
X35451000Y-123351000D01*
G37*
G36*
X42648228Y-121681703D02*
G01*
X42803100Y-121745853D01*
X42942481Y-121838985D01*
X43061015Y-121957519D01*
X43154147Y-122096900D01*
X43218297Y-122251772D01*
X43251000Y-122416184D01*
X43251000Y-122583816D01*
X43218297Y-122748228D01*
X43154147Y-122903100D01*
X43061015Y-123042481D01*
X42942481Y-123161015D01*
X42803100Y-123254147D01*
X42648228Y-123318297D01*
X42483816Y-123351000D01*
X42316184Y-123351000D01*
X42151772Y-123318297D01*
X41996900Y-123254147D01*
X41857519Y-123161015D01*
X41738985Y-123042481D01*
X41645853Y-122903100D01*
X41581703Y-122748228D01*
X41549000Y-122583816D01*
X41549000Y-122416184D01*
X41581703Y-122251772D01*
X41645853Y-122096900D01*
X41738985Y-121957519D01*
X41857519Y-121838985D01*
X41996900Y-121745853D01*
X42151772Y-121681703D01*
X42316184Y-121649000D01*
X42483816Y-121649000D01*
X42648228Y-121681703D01*
G37*
G36*
X61648228Y-121681703D02*
G01*
X61803100Y-121745853D01*
X61942481Y-121838985D01*
X62061015Y-121957519D01*
X62154147Y-122096900D01*
X62218297Y-122251772D01*
X62251000Y-122416184D01*
X62251000Y-122583816D01*
X62218297Y-122748228D01*
X62154147Y-122903100D01*
X62061015Y-123042481D01*
X61942481Y-123161015D01*
X61803100Y-123254147D01*
X61648228Y-123318297D01*
X61483816Y-123351000D01*
X61316184Y-123351000D01*
X61151772Y-123318297D01*
X60996900Y-123254147D01*
X60857519Y-123161015D01*
X60738985Y-123042481D01*
X60645853Y-122903100D01*
X60581703Y-122748228D01*
X60549000Y-122583816D01*
X60549000Y-122416184D01*
X60581703Y-122251772D01*
X60645853Y-122096900D01*
X60738985Y-121957519D01*
X60857519Y-121838985D01*
X60996900Y-121745853D01*
X61151772Y-121681703D01*
X61316184Y-121649000D01*
X61483816Y-121649000D01*
X61648228Y-121681703D01*
G37*
G36*
X54451000Y-123351000D02*
G01*
X52749000Y-123351000D01*
X52749000Y-121649000D01*
X54451000Y-121649000D01*
X54451000Y-123351000D01*
G37*
G36*
X80648228Y-121681703D02*
G01*
X80803100Y-121745853D01*
X80942481Y-121838985D01*
X81061015Y-121957519D01*
X81154147Y-122096900D01*
X81218297Y-122251772D01*
X81251000Y-122416184D01*
X81251000Y-122583816D01*
X81218297Y-122748228D01*
X81154147Y-122903100D01*
X81061015Y-123042481D01*
X80942481Y-123161015D01*
X80803100Y-123254147D01*
X80648228Y-123318297D01*
X80483816Y-123351000D01*
X80316184Y-123351000D01*
X80151772Y-123318297D01*
X79996900Y-123254147D01*
X79857519Y-123161015D01*
X79738985Y-123042481D01*
X79645853Y-122903100D01*
X79581703Y-122748228D01*
X79549000Y-122583816D01*
X79549000Y-122416184D01*
X79581703Y-122251772D01*
X79645853Y-122096900D01*
X79738985Y-121957519D01*
X79857519Y-121838985D01*
X79996900Y-121745853D01*
X80151772Y-121681703D01*
X80316184Y-121649000D01*
X80483816Y-121649000D01*
X80648228Y-121681703D01*
G37*
G36*
X73451000Y-123351000D02*
G01*
X71749000Y-123351000D01*
X71749000Y-121649000D01*
X73451000Y-121649000D01*
X73451000Y-123351000D01*
G37*
G36*
X99648228Y-121681703D02*
G01*
X99803100Y-121745853D01*
X99942481Y-121838985D01*
X100061015Y-121957519D01*
X100154147Y-122096900D01*
X100218297Y-122251772D01*
X100251000Y-122416184D01*
X100251000Y-122583816D01*
X100218297Y-122748228D01*
X100154147Y-122903100D01*
X100061015Y-123042481D01*
X99942481Y-123161015D01*
X99803100Y-123254147D01*
X99648228Y-123318297D01*
X99483816Y-123351000D01*
X99316184Y-123351000D01*
X99151772Y-123318297D01*
X98996900Y-123254147D01*
X98857519Y-123161015D01*
X98738985Y-123042481D01*
X98645853Y-122903100D01*
X98581703Y-122748228D01*
X98549000Y-122583816D01*
X98549000Y-122416184D01*
X98581703Y-122251772D01*
X98645853Y-122096900D01*
X98738985Y-121957519D01*
X98857519Y-121838985D01*
X98996900Y-121745853D01*
X99151772Y-121681703D01*
X99316184Y-121649000D01*
X99483816Y-121649000D01*
X99648228Y-121681703D01*
G37*
G36*
X92451000Y-123351000D02*
G01*
X90749000Y-123351000D01*
X90749000Y-121649000D01*
X92451000Y-121649000D01*
X92451000Y-123351000D01*
G37*
G36*
X118648228Y-121681703D02*
G01*
X118803100Y-121745853D01*
X118942481Y-121838985D01*
X119061015Y-121957519D01*
X119154147Y-122096900D01*
X119218297Y-122251772D01*
X119251000Y-122416184D01*
X119251000Y-122583816D01*
X119218297Y-122748228D01*
X119154147Y-122903100D01*
X119061015Y-123042481D01*
X118942481Y-123161015D01*
X118803100Y-123254147D01*
X118648228Y-123318297D01*
X118483816Y-123351000D01*
X118316184Y-123351000D01*
X118151772Y-123318297D01*
X117996900Y-123254147D01*
X117857519Y-123161015D01*
X117738985Y-123042481D01*
X117645853Y-122903100D01*
X117581703Y-122748228D01*
X117549000Y-122583816D01*
X117549000Y-122416184D01*
X117581703Y-122251772D01*
X117645853Y-122096900D01*
X117738985Y-121957519D01*
X117857519Y-121838985D01*
X117996900Y-121745853D01*
X118151772Y-121681703D01*
X118316184Y-121649000D01*
X118483816Y-121649000D01*
X118648228Y-121681703D01*
G37*
G36*
X111451000Y-123351000D02*
G01*
X109749000Y-123351000D01*
X109749000Y-121649000D01*
X111451000Y-121649000D01*
X111451000Y-123351000D01*
G37*
G36*
X47824549Y-117871116D02*
G01*
X47935734Y-117893232D01*
X48145203Y-117979997D01*
X48333720Y-118105960D01*
X48494040Y-118266280D01*
X48620003Y-118454797D01*
X48706768Y-118664266D01*
X48751000Y-118886636D01*
X48751000Y-119113364D01*
X48706768Y-119335734D01*
X48620003Y-119545203D01*
X48494040Y-119733720D01*
X48333720Y-119894040D01*
X48145203Y-120020003D01*
X47935734Y-120106768D01*
X47824549Y-120128884D01*
X47713365Y-120151000D01*
X47486635Y-120151000D01*
X47375451Y-120128884D01*
X47264266Y-120106768D01*
X47054797Y-120020003D01*
X46866280Y-119894040D01*
X46705960Y-119733720D01*
X46579997Y-119545203D01*
X46493232Y-119335734D01*
X46449000Y-119113364D01*
X46449000Y-118886636D01*
X46493232Y-118664266D01*
X46579997Y-118454797D01*
X46705960Y-118266280D01*
X46866280Y-118105960D01*
X47054797Y-117979997D01*
X47264266Y-117893232D01*
X47375451Y-117871116D01*
X47486635Y-117849000D01*
X47713365Y-117849000D01*
X47824549Y-117871116D01*
G37*
G36*
X124224549Y-117871116D02*
G01*
X124335734Y-117893232D01*
X124545203Y-117979997D01*
X124733720Y-118105960D01*
X124894040Y-118266280D01*
X125020003Y-118454797D01*
X125106768Y-118664266D01*
X125151000Y-118886636D01*
X125151000Y-119113364D01*
X125106768Y-119335734D01*
X125020003Y-119545203D01*
X124894040Y-119733720D01*
X124733720Y-119894040D01*
X124545203Y-120020003D01*
X124335734Y-120106768D01*
X124224549Y-120128884D01*
X124113365Y-120151000D01*
X123886635Y-120151000D01*
X123775451Y-120128884D01*
X123664266Y-120106768D01*
X123454797Y-120020003D01*
X123266280Y-119894040D01*
X123105960Y-119733720D01*
X122979997Y-119545203D01*
X122893232Y-119335734D01*
X122849000Y-119113364D01*
X122849000Y-118886636D01*
X122893232Y-118664266D01*
X122979997Y-118454797D01*
X123105960Y-118266280D01*
X123266280Y-118105960D01*
X123454797Y-117979997D01*
X123664266Y-117893232D01*
X123775451Y-117871116D01*
X123886635Y-117849000D01*
X124113365Y-117849000D01*
X124224549Y-117871116D01*
G37*
G36*
X130499575Y-109001286D02*
G01*
X130750086Y-109055333D01*
X130883357Y-109113074D01*
X130985239Y-109157215D01*
X131096688Y-109234314D01*
X131195996Y-109303014D01*
X131195998Y-109303016D01*
X131374262Y-109487130D01*
X131513180Y-109702483D01*
X131607419Y-109940804D01*
X131640019Y-110119753D01*
X131653351Y-110192928D01*
X131649213Y-110449169D01*
X131595166Y-110699680D01*
X131518813Y-110875911D01*
X130645846Y-112447549D01*
X130536579Y-112605497D01*
X130536577Y-112605499D01*
X130352463Y-112783763D01*
X130167953Y-112902785D01*
X130137108Y-112922682D01*
X130114546Y-112931603D01*
X129898789Y-113016920D01*
X129719840Y-113049520D01*
X129646665Y-113062852D01*
X129390425Y-113058714D01*
X129139914Y-113004667D01*
X129006643Y-112946926D01*
X128904761Y-112902785D01*
X128793312Y-112825686D01*
X128694004Y-112756986D01*
X128694002Y-112756984D01*
X128515738Y-112572870D01*
X128376820Y-112357517D01*
X128282581Y-112119196D01*
X128249981Y-111940247D01*
X128236649Y-111867072D01*
X128240787Y-111610832D01*
X128294834Y-111360321D01*
X128371187Y-111184090D01*
X129244154Y-109612451D01*
X129353421Y-109454503D01*
X129353423Y-109454501D01*
X129537537Y-109276237D01*
X129752889Y-109137318D01*
X129991210Y-109043080D01*
X130170159Y-109010480D01*
X130243334Y-108997148D01*
X130499575Y-109001286D01*
G37*
G36*
X111449575Y-109001286D02*
G01*
X111700086Y-109055333D01*
X111833357Y-109113074D01*
X111935239Y-109157215D01*
X112046688Y-109234314D01*
X112145996Y-109303014D01*
X112145998Y-109303016D01*
X112324262Y-109487130D01*
X112463180Y-109702483D01*
X112557419Y-109940804D01*
X112590019Y-110119753D01*
X112603351Y-110192928D01*
X112599213Y-110449169D01*
X112545166Y-110699680D01*
X112468813Y-110875911D01*
X111595846Y-112447549D01*
X111486579Y-112605497D01*
X111486577Y-112605499D01*
X111302463Y-112783763D01*
X111117953Y-112902785D01*
X111087108Y-112922682D01*
X111064546Y-112931603D01*
X110848789Y-113016920D01*
X110669840Y-113049520D01*
X110596665Y-113062852D01*
X110340425Y-113058714D01*
X110089914Y-113004667D01*
X109956643Y-112946926D01*
X109854761Y-112902785D01*
X109743312Y-112825686D01*
X109644004Y-112756986D01*
X109644002Y-112756984D01*
X109465738Y-112572870D01*
X109326820Y-112357517D01*
X109232581Y-112119196D01*
X109199981Y-111940247D01*
X109186649Y-111867072D01*
X109190787Y-111610832D01*
X109244834Y-111360321D01*
X109321187Y-111184090D01*
X110194154Y-109612451D01*
X110303421Y-109454503D01*
X110303423Y-109454501D01*
X110487537Y-109276237D01*
X110702889Y-109137318D01*
X110941210Y-109043080D01*
X111120159Y-109010480D01*
X111193334Y-108997148D01*
X111449575Y-109001286D01*
G37*
G36*
X35249575Y-109001286D02*
G01*
X35500086Y-109055333D01*
X35633357Y-109113074D01*
X35735239Y-109157215D01*
X35846688Y-109234314D01*
X35945996Y-109303014D01*
X35945998Y-109303016D01*
X36124262Y-109487130D01*
X36263180Y-109702483D01*
X36357419Y-109940804D01*
X36390019Y-110119753D01*
X36403351Y-110192928D01*
X36399213Y-110449169D01*
X36345166Y-110699680D01*
X36268813Y-110875911D01*
X35395846Y-112447549D01*
X35286579Y-112605497D01*
X35286577Y-112605499D01*
X35102463Y-112783763D01*
X34917953Y-112902785D01*
X34887108Y-112922682D01*
X34864546Y-112931603D01*
X34648789Y-113016920D01*
X34469840Y-113049520D01*
X34396665Y-113062852D01*
X34140425Y-113058714D01*
X33889914Y-113004667D01*
X33756643Y-112946926D01*
X33654761Y-112902785D01*
X33543312Y-112825686D01*
X33444004Y-112756986D01*
X33444002Y-112756984D01*
X33265738Y-112572870D01*
X33126820Y-112357517D01*
X33032581Y-112119196D01*
X32999981Y-111940247D01*
X32986649Y-111867072D01*
X32990787Y-111610832D01*
X33044834Y-111360321D01*
X33121187Y-111184090D01*
X33994154Y-109612451D01*
X34103421Y-109454503D01*
X34103423Y-109454501D01*
X34287537Y-109276237D01*
X34502889Y-109137318D01*
X34741210Y-109043080D01*
X34920159Y-109010480D01*
X34993334Y-108997148D01*
X35249575Y-109001286D01*
G37*
G36*
X92399575Y-109001286D02*
G01*
X92650086Y-109055333D01*
X92783357Y-109113074D01*
X92885239Y-109157215D01*
X92996688Y-109234314D01*
X93095996Y-109303014D01*
X93095998Y-109303016D01*
X93274262Y-109487130D01*
X93413180Y-109702483D01*
X93507419Y-109940804D01*
X93540019Y-110119753D01*
X93553351Y-110192928D01*
X93549213Y-110449169D01*
X93495166Y-110699680D01*
X93418813Y-110875911D01*
X92545846Y-112447549D01*
X92436579Y-112605497D01*
X92436577Y-112605499D01*
X92252463Y-112783763D01*
X92067953Y-112902785D01*
X92037108Y-112922682D01*
X92014546Y-112931603D01*
X91798789Y-113016920D01*
X91619840Y-113049520D01*
X91546665Y-113062852D01*
X91290425Y-113058714D01*
X91039914Y-113004667D01*
X90906643Y-112946926D01*
X90804761Y-112902785D01*
X90693312Y-112825686D01*
X90594004Y-112756986D01*
X90594002Y-112756984D01*
X90415738Y-112572870D01*
X90276820Y-112357517D01*
X90182581Y-112119196D01*
X90149981Y-111940247D01*
X90136649Y-111867072D01*
X90140787Y-111610832D01*
X90194834Y-111360321D01*
X90271187Y-111184090D01*
X91144154Y-109612451D01*
X91253421Y-109454503D01*
X91253423Y-109454501D01*
X91437537Y-109276237D01*
X91652889Y-109137318D01*
X91891210Y-109043080D01*
X92070159Y-109010480D01*
X92143334Y-108997148D01*
X92399575Y-109001286D01*
G37*
G36*
X73349575Y-109001286D02*
G01*
X73600086Y-109055333D01*
X73733357Y-109113074D01*
X73835239Y-109157215D01*
X73946688Y-109234314D01*
X74045996Y-109303014D01*
X74045998Y-109303016D01*
X74224262Y-109487130D01*
X74363180Y-109702483D01*
X74457419Y-109940804D01*
X74490019Y-110119753D01*
X74503351Y-110192928D01*
X74499213Y-110449169D01*
X74445166Y-110699680D01*
X74368813Y-110875911D01*
X73495846Y-112447549D01*
X73386579Y-112605497D01*
X73386577Y-112605499D01*
X73202463Y-112783763D01*
X73017953Y-112902785D01*
X72987108Y-112922682D01*
X72964546Y-112931603D01*
X72748789Y-113016920D01*
X72569840Y-113049520D01*
X72496665Y-113062852D01*
X72240425Y-113058714D01*
X71989914Y-113004667D01*
X71856643Y-112946926D01*
X71754761Y-112902785D01*
X71643312Y-112825686D01*
X71544004Y-112756986D01*
X71544002Y-112756984D01*
X71365738Y-112572870D01*
X71226820Y-112357517D01*
X71132581Y-112119196D01*
X71099981Y-111940247D01*
X71086649Y-111867072D01*
X71090787Y-111610832D01*
X71144834Y-111360321D01*
X71221187Y-111184090D01*
X72094154Y-109612451D01*
X72203421Y-109454503D01*
X72203423Y-109454501D01*
X72387537Y-109276237D01*
X72602889Y-109137318D01*
X72841210Y-109043080D01*
X73020159Y-109010480D01*
X73093334Y-108997148D01*
X73349575Y-109001286D01*
G37*
G36*
X54299575Y-109001286D02*
G01*
X54550086Y-109055333D01*
X54683357Y-109113074D01*
X54785239Y-109157215D01*
X54896688Y-109234314D01*
X54995996Y-109303014D01*
X54995998Y-109303016D01*
X55174262Y-109487130D01*
X55313180Y-109702483D01*
X55407419Y-109940804D01*
X55440019Y-110119753D01*
X55453351Y-110192928D01*
X55449213Y-110449169D01*
X55395166Y-110699680D01*
X55318813Y-110875911D01*
X54445846Y-112447549D01*
X54336579Y-112605497D01*
X54336577Y-112605499D01*
X54152463Y-112783763D01*
X53967953Y-112902785D01*
X53937108Y-112922682D01*
X53914546Y-112931603D01*
X53698789Y-113016920D01*
X53519840Y-113049520D01*
X53446665Y-113062852D01*
X53190425Y-113058714D01*
X52939914Y-113004667D01*
X52806643Y-112946926D01*
X52704761Y-112902785D01*
X52593312Y-112825686D01*
X52494004Y-112756986D01*
X52494002Y-112756984D01*
X52315738Y-112572870D01*
X52176820Y-112357517D01*
X52082581Y-112119196D01*
X52049981Y-111940247D01*
X52036649Y-111867072D01*
X52040787Y-111610832D01*
X52094834Y-111360321D01*
X52171187Y-111184090D01*
X53044154Y-109612451D01*
X53153421Y-109454503D01*
X53153423Y-109454501D01*
X53337537Y-109276237D01*
X53552889Y-109137318D01*
X53791210Y-109043080D01*
X53970159Y-109010480D01*
X54043334Y-108997148D01*
X54299575Y-109001286D01*
G37*
G36*
X60031379Y-107958813D02*
G01*
X60270991Y-108049713D01*
X60488265Y-108185613D01*
X60674852Y-108361288D01*
X60786209Y-108517550D01*
X60823580Y-108569990D01*
X60928735Y-108803697D01*
X60928736Y-108803701D01*
X60986276Y-109053428D01*
X60992058Y-109245394D01*
X60977802Y-109454501D01*
X60943916Y-109951571D01*
X60912135Y-110140983D01*
X60821235Y-110380595D01*
X60777817Y-110450010D01*
X60685335Y-110597869D01*
X60509660Y-110784456D01*
X60353398Y-110895813D01*
X60300958Y-110933184D01*
X60067251Y-111038339D01*
X60067247Y-111038340D01*
X59817521Y-111095880D01*
X59561366Y-111103594D01*
X59561362Y-111103594D01*
X59308621Y-111061187D01*
X59069009Y-110970287D01*
X58851735Y-110834387D01*
X58798703Y-110784456D01*
X58665148Y-110658712D01*
X58553791Y-110502450D01*
X58516420Y-110450010D01*
X58411265Y-110216303D01*
X58353724Y-109966571D01*
X58352948Y-109940804D01*
X58347942Y-109774608D01*
X58396084Y-109068428D01*
X58408044Y-108997148D01*
X58427865Y-108879017D01*
X58518765Y-108639405D01*
X58654665Y-108422131D01*
X58711950Y-108361288D01*
X58830340Y-108235544D01*
X58986602Y-108124187D01*
X59039042Y-108086816D01*
X59272749Y-107981661D01*
X59272753Y-107981660D01*
X59522479Y-107924120D01*
X59778634Y-107916406D01*
X59778638Y-107916406D01*
X60031379Y-107958813D01*
G37*
G36*
X117181379Y-107958813D02*
G01*
X117420991Y-108049713D01*
X117638265Y-108185613D01*
X117824852Y-108361288D01*
X117936209Y-108517550D01*
X117973580Y-108569990D01*
X118078735Y-108803697D01*
X118078736Y-108803701D01*
X118136276Y-109053428D01*
X118142058Y-109245394D01*
X118127802Y-109454501D01*
X118093916Y-109951571D01*
X118062135Y-110140983D01*
X117971235Y-110380595D01*
X117927817Y-110450010D01*
X117835335Y-110597869D01*
X117659660Y-110784456D01*
X117503398Y-110895813D01*
X117450958Y-110933184D01*
X117217251Y-111038339D01*
X117217247Y-111038340D01*
X116967521Y-111095880D01*
X116711366Y-111103594D01*
X116711362Y-111103594D01*
X116458621Y-111061187D01*
X116219009Y-110970287D01*
X116001735Y-110834387D01*
X115948703Y-110784456D01*
X115815148Y-110658712D01*
X115703791Y-110502450D01*
X115666420Y-110450010D01*
X115561265Y-110216303D01*
X115503724Y-109966571D01*
X115502948Y-109940804D01*
X115497942Y-109774608D01*
X115546084Y-109068428D01*
X115558044Y-108997148D01*
X115577865Y-108879017D01*
X115668765Y-108639405D01*
X115804665Y-108422131D01*
X115861950Y-108361288D01*
X115980340Y-108235544D01*
X116136602Y-108124187D01*
X116189042Y-108086816D01*
X116422749Y-107981661D01*
X116422753Y-107981660D01*
X116672479Y-107924120D01*
X116928634Y-107916406D01*
X116928638Y-107916406D01*
X117181379Y-107958813D01*
G37*
G36*
X136231379Y-107958813D02*
G01*
X136470991Y-108049713D01*
X136688265Y-108185613D01*
X136874852Y-108361288D01*
X136986209Y-108517550D01*
X137023580Y-108569990D01*
X137128735Y-108803697D01*
X137128736Y-108803701D01*
X137186276Y-109053428D01*
X137192058Y-109245394D01*
X137177802Y-109454501D01*
X137143916Y-109951571D01*
X137112135Y-110140983D01*
X137021235Y-110380595D01*
X136977817Y-110450010D01*
X136885335Y-110597869D01*
X136709660Y-110784456D01*
X136553398Y-110895813D01*
X136500958Y-110933184D01*
X136267251Y-111038339D01*
X136267247Y-111038340D01*
X136017521Y-111095880D01*
X135761366Y-111103594D01*
X135761362Y-111103594D01*
X135508621Y-111061187D01*
X135269009Y-110970287D01*
X135051735Y-110834387D01*
X134998703Y-110784456D01*
X134865148Y-110658712D01*
X134753791Y-110502450D01*
X134716420Y-110450010D01*
X134611265Y-110216303D01*
X134553724Y-109966571D01*
X134552948Y-109940804D01*
X134547942Y-109774608D01*
X134596084Y-109068428D01*
X134608044Y-108997148D01*
X134627865Y-108879017D01*
X134718765Y-108639405D01*
X134854665Y-108422131D01*
X134911950Y-108361288D01*
X135030340Y-108235544D01*
X135186602Y-108124187D01*
X135239042Y-108086816D01*
X135472749Y-107981661D01*
X135472753Y-107981660D01*
X135722479Y-107924120D01*
X135978634Y-107916406D01*
X135978638Y-107916406D01*
X136231379Y-107958813D01*
G37*
G36*
X79081379Y-107958813D02*
G01*
X79320991Y-108049713D01*
X79538265Y-108185613D01*
X79724852Y-108361288D01*
X79836209Y-108517550D01*
X79873580Y-108569990D01*
X79978735Y-108803697D01*
X79978736Y-108803701D01*
X80036276Y-109053428D01*
X80042058Y-109245394D01*
X80027802Y-109454501D01*
X79993916Y-109951571D01*
X79962135Y-110140983D01*
X79871235Y-110380595D01*
X79827817Y-110450010D01*
X79735335Y-110597869D01*
X79559660Y-110784456D01*
X79403398Y-110895813D01*
X79350958Y-110933184D01*
X79117251Y-111038339D01*
X79117247Y-111038340D01*
X78867521Y-111095880D01*
X78611366Y-111103594D01*
X78611362Y-111103594D01*
X78358621Y-111061187D01*
X78119009Y-110970287D01*
X77901735Y-110834387D01*
X77848703Y-110784456D01*
X77715148Y-110658712D01*
X77603791Y-110502450D01*
X77566420Y-110450010D01*
X77461265Y-110216303D01*
X77403724Y-109966571D01*
X77402948Y-109940804D01*
X77397942Y-109774608D01*
X77446084Y-109068428D01*
X77458044Y-108997148D01*
X77477865Y-108879017D01*
X77568765Y-108639405D01*
X77704665Y-108422131D01*
X77761950Y-108361288D01*
X77880340Y-108235544D01*
X78036602Y-108124187D01*
X78089042Y-108086816D01*
X78322749Y-107981661D01*
X78322753Y-107981660D01*
X78572479Y-107924120D01*
X78828634Y-107916406D01*
X78828638Y-107916406D01*
X79081379Y-107958813D01*
G37*
G36*
X40981379Y-107958813D02*
G01*
X41220991Y-108049713D01*
X41438265Y-108185613D01*
X41624852Y-108361288D01*
X41736209Y-108517550D01*
X41773580Y-108569990D01*
X41878735Y-108803697D01*
X41878736Y-108803701D01*
X41936276Y-109053428D01*
X41942058Y-109245394D01*
X41927802Y-109454501D01*
X41893916Y-109951571D01*
X41862135Y-110140983D01*
X41771235Y-110380595D01*
X41727817Y-110450010D01*
X41635335Y-110597869D01*
X41459660Y-110784456D01*
X41303398Y-110895813D01*
X41250958Y-110933184D01*
X41017251Y-111038339D01*
X41017247Y-111038340D01*
X40767521Y-111095880D01*
X40511366Y-111103594D01*
X40511362Y-111103594D01*
X40258621Y-111061187D01*
X40019009Y-110970287D01*
X39801735Y-110834387D01*
X39748703Y-110784456D01*
X39615148Y-110658712D01*
X39503791Y-110502450D01*
X39466420Y-110450010D01*
X39361265Y-110216303D01*
X39303724Y-109966571D01*
X39302948Y-109940804D01*
X39297942Y-109774608D01*
X39346084Y-109068428D01*
X39358044Y-108997148D01*
X39377865Y-108879017D01*
X39468765Y-108639405D01*
X39604665Y-108422131D01*
X39661950Y-108361288D01*
X39780340Y-108235544D01*
X39936602Y-108124187D01*
X39989042Y-108086816D01*
X40222749Y-107981661D01*
X40222753Y-107981660D01*
X40472479Y-107924120D01*
X40728634Y-107916406D01*
X40728638Y-107916406D01*
X40981379Y-107958813D01*
G37*
G36*
X98131379Y-107958813D02*
G01*
X98370991Y-108049713D01*
X98588265Y-108185613D01*
X98774852Y-108361288D01*
X98886209Y-108517550D01*
X98923580Y-108569990D01*
X99028735Y-108803697D01*
X99028736Y-108803701D01*
X99086276Y-109053428D01*
X99092058Y-109245394D01*
X99077802Y-109454501D01*
X99043916Y-109951571D01*
X99012135Y-110140983D01*
X98921235Y-110380595D01*
X98877817Y-110450010D01*
X98785335Y-110597869D01*
X98609660Y-110784456D01*
X98453398Y-110895813D01*
X98400958Y-110933184D01*
X98167251Y-111038339D01*
X98167247Y-111038340D01*
X97917521Y-111095880D01*
X97661366Y-111103594D01*
X97661362Y-111103594D01*
X97408621Y-111061187D01*
X97169009Y-110970287D01*
X96951735Y-110834387D01*
X96898703Y-110784456D01*
X96765148Y-110658712D01*
X96653791Y-110502450D01*
X96616420Y-110450010D01*
X96511265Y-110216303D01*
X96453724Y-109966571D01*
X96452948Y-109940804D01*
X96447942Y-109774608D01*
X96496084Y-109068428D01*
X96508044Y-108997148D01*
X96527865Y-108879017D01*
X96618765Y-108639405D01*
X96754665Y-108422131D01*
X96811950Y-108361288D01*
X96930340Y-108235544D01*
X97086602Y-108124187D01*
X97139042Y-108086816D01*
X97372749Y-107981661D01*
X97372753Y-107981660D01*
X97622479Y-107924120D01*
X97878634Y-107916406D01*
X97878638Y-107916406D01*
X98131379Y-107958813D01*
G37*
G36*
X35451000Y-104351000D02*
G01*
X33749000Y-104351000D01*
X33749000Y-102649000D01*
X35451000Y-102649000D01*
X35451000Y-104351000D01*
G37*
G36*
X42648228Y-102681703D02*
G01*
X42803100Y-102745853D01*
X42942481Y-102838985D01*
X43061015Y-102957519D01*
X43154147Y-103096900D01*
X43218297Y-103251772D01*
X43251000Y-103416184D01*
X43251000Y-103583816D01*
X43218297Y-103748228D01*
X43154147Y-103903100D01*
X43061015Y-104042481D01*
X42942481Y-104161015D01*
X42803100Y-104254147D01*
X42648228Y-104318297D01*
X42483816Y-104351000D01*
X42316184Y-104351000D01*
X42151772Y-104318297D01*
X41996900Y-104254147D01*
X41857519Y-104161015D01*
X41738985Y-104042481D01*
X41645853Y-103903100D01*
X41581703Y-103748228D01*
X41549000Y-103583816D01*
X41549000Y-103416184D01*
X41581703Y-103251772D01*
X41645853Y-103096900D01*
X41738985Y-102957519D01*
X41857519Y-102838985D01*
X41996900Y-102745853D01*
X42151772Y-102681703D01*
X42316184Y-102649000D01*
X42483816Y-102649000D01*
X42648228Y-102681703D01*
G37*
G36*
X73526000Y-104351000D02*
G01*
X71824000Y-104351000D01*
X71824000Y-102649000D01*
X73526000Y-102649000D01*
X73526000Y-104351000D01*
G37*
G36*
X137648228Y-102681703D02*
G01*
X137803100Y-102745853D01*
X137942481Y-102838985D01*
X138061015Y-102957519D01*
X138154147Y-103096900D01*
X138218297Y-103251772D01*
X138251000Y-103416184D01*
X138251000Y-103583816D01*
X138218297Y-103748228D01*
X138154147Y-103903100D01*
X138061015Y-104042481D01*
X137942481Y-104161015D01*
X137803100Y-104254147D01*
X137648228Y-104318297D01*
X137483816Y-104351000D01*
X137316184Y-104351000D01*
X137151772Y-104318297D01*
X136996900Y-104254147D01*
X136857519Y-104161015D01*
X136738985Y-104042481D01*
X136645853Y-103903100D01*
X136581703Y-103748228D01*
X136549000Y-103583816D01*
X136549000Y-103416184D01*
X136581703Y-103251772D01*
X136645853Y-103096900D01*
X136738985Y-102957519D01*
X136857519Y-102838985D01*
X136996900Y-102745853D01*
X137151772Y-102681703D01*
X137316184Y-102649000D01*
X137483816Y-102649000D01*
X137648228Y-102681703D01*
G37*
G36*
X130451000Y-104351000D02*
G01*
X128749000Y-104351000D01*
X128749000Y-102649000D01*
X130451000Y-102649000D01*
X130451000Y-104351000D01*
G37*
G36*
X80723228Y-102681703D02*
G01*
X80878100Y-102745853D01*
X81017481Y-102838985D01*
X81136015Y-102957519D01*
X81229147Y-103096900D01*
X81293297Y-103251772D01*
X81326000Y-103416184D01*
X81326000Y-103583816D01*
X81293297Y-103748228D01*
X81229147Y-103903100D01*
X81136015Y-104042481D01*
X81017481Y-104161015D01*
X80878100Y-104254147D01*
X80723228Y-104318297D01*
X80558816Y-104351000D01*
X80391184Y-104351000D01*
X80226772Y-104318297D01*
X80071900Y-104254147D01*
X79932519Y-104161015D01*
X79813985Y-104042481D01*
X79720853Y-103903100D01*
X79656703Y-103748228D01*
X79624000Y-103583816D01*
X79624000Y-103416184D01*
X79656703Y-103251772D01*
X79720853Y-103096900D01*
X79813985Y-102957519D01*
X79932519Y-102838985D01*
X80071900Y-102745853D01*
X80226772Y-102681703D01*
X80391184Y-102649000D01*
X80558816Y-102649000D01*
X80723228Y-102681703D01*
G37*
G36*
X118648228Y-102681703D02*
G01*
X118803100Y-102745853D01*
X118942481Y-102838985D01*
X119061015Y-102957519D01*
X119154147Y-103096900D01*
X119218297Y-103251772D01*
X119251000Y-103416184D01*
X119251000Y-103583816D01*
X119218297Y-103748228D01*
X119154147Y-103903100D01*
X119061015Y-104042481D01*
X118942481Y-104161015D01*
X118803100Y-104254147D01*
X118648228Y-104318297D01*
X118483816Y-104351000D01*
X118316184Y-104351000D01*
X118151772Y-104318297D01*
X117996900Y-104254147D01*
X117857519Y-104161015D01*
X117738985Y-104042481D01*
X117645853Y-103903100D01*
X117581703Y-103748228D01*
X117549000Y-103583816D01*
X117549000Y-103416184D01*
X117581703Y-103251772D01*
X117645853Y-103096900D01*
X117738985Y-102957519D01*
X117857519Y-102838985D01*
X117996900Y-102745853D01*
X118151772Y-102681703D01*
X118316184Y-102649000D01*
X118483816Y-102649000D01*
X118648228Y-102681703D01*
G37*
G36*
X111451000Y-104351000D02*
G01*
X109749000Y-104351000D01*
X109749000Y-102649000D01*
X111451000Y-102649000D01*
X111451000Y-104351000D01*
G37*
G36*
X54526000Y-104351000D02*
G01*
X52824000Y-104351000D01*
X52824000Y-102649000D01*
X54526000Y-102649000D01*
X54526000Y-104351000D01*
G37*
G36*
X61723228Y-102681703D02*
G01*
X61878100Y-102745853D01*
X62017481Y-102838985D01*
X62136015Y-102957519D01*
X62229147Y-103096900D01*
X62293297Y-103251772D01*
X62326000Y-103416184D01*
X62326000Y-103583816D01*
X62293297Y-103748228D01*
X62229147Y-103903100D01*
X62136015Y-104042481D01*
X62017481Y-104161015D01*
X61878100Y-104254147D01*
X61723228Y-104318297D01*
X61558816Y-104351000D01*
X61391184Y-104351000D01*
X61226772Y-104318297D01*
X61071900Y-104254147D01*
X60932519Y-104161015D01*
X60813985Y-104042481D01*
X60720853Y-103903100D01*
X60656703Y-103748228D01*
X60624000Y-103583816D01*
X60624000Y-103416184D01*
X60656703Y-103251772D01*
X60720853Y-103096900D01*
X60813985Y-102957519D01*
X60932519Y-102838985D01*
X61071900Y-102745853D01*
X61226772Y-102681703D01*
X61391184Y-102649000D01*
X61558816Y-102649000D01*
X61723228Y-102681703D01*
G37*
G36*
X99648228Y-102681703D02*
G01*
X99803100Y-102745853D01*
X99942481Y-102838985D01*
X100061015Y-102957519D01*
X100154147Y-103096900D01*
X100218297Y-103251772D01*
X100251000Y-103416184D01*
X100251000Y-103583816D01*
X100218297Y-103748228D01*
X100154147Y-103903100D01*
X100061015Y-104042481D01*
X99942481Y-104161015D01*
X99803100Y-104254147D01*
X99648228Y-104318297D01*
X99483816Y-104351000D01*
X99316184Y-104351000D01*
X99151772Y-104318297D01*
X98996900Y-104254147D01*
X98857519Y-104161015D01*
X98738985Y-104042481D01*
X98645853Y-103903100D01*
X98581703Y-103748228D01*
X98549000Y-103583816D01*
X98549000Y-103416184D01*
X98581703Y-103251772D01*
X98645853Y-103096900D01*
X98738985Y-102957519D01*
X98857519Y-102838985D01*
X98996900Y-102745853D01*
X99151772Y-102681703D01*
X99316184Y-102649000D01*
X99483816Y-102649000D01*
X99648228Y-102681703D01*
G37*
G36*
X92451000Y-104351000D02*
G01*
X90749000Y-104351000D01*
X90749000Y-102649000D01*
X92451000Y-102649000D01*
X92451000Y-104351000D01*
G37*
G36*
X92399575Y-89951286D02*
G01*
X92650086Y-90005333D01*
X92783357Y-90063074D01*
X92885239Y-90107215D01*
X92996688Y-90184314D01*
X93095996Y-90253014D01*
X93095998Y-90253016D01*
X93274262Y-90437130D01*
X93413180Y-90652483D01*
X93507419Y-90890804D01*
X93540019Y-91069753D01*
X93553351Y-91142928D01*
X93549213Y-91399169D01*
X93495166Y-91649680D01*
X93418813Y-91825911D01*
X92545846Y-93397549D01*
X92436579Y-93555497D01*
X92436577Y-93555499D01*
X92252463Y-93733763D01*
X92067953Y-93852785D01*
X92037108Y-93872682D01*
X92014546Y-93881603D01*
X91798789Y-93966920D01*
X91619840Y-93999520D01*
X91546665Y-94012852D01*
X91290425Y-94008714D01*
X91039914Y-93954667D01*
X90906643Y-93896926D01*
X90804761Y-93852785D01*
X90693312Y-93775686D01*
X90594004Y-93706986D01*
X90594002Y-93706984D01*
X90415738Y-93522870D01*
X90276820Y-93307517D01*
X90182581Y-93069196D01*
X90149981Y-92890247D01*
X90136649Y-92817072D01*
X90140787Y-92560832D01*
X90194834Y-92310321D01*
X90271187Y-92134090D01*
X91144154Y-90562451D01*
X91253421Y-90404503D01*
X91253423Y-90404501D01*
X91437537Y-90226237D01*
X91652889Y-90087318D01*
X91891210Y-89993080D01*
X92070159Y-89960480D01*
X92143334Y-89947148D01*
X92399575Y-89951286D01*
G37*
G36*
X54299575Y-89951286D02*
G01*
X54550086Y-90005333D01*
X54683357Y-90063074D01*
X54785239Y-90107215D01*
X54896688Y-90184314D01*
X54995996Y-90253014D01*
X54995998Y-90253016D01*
X55174262Y-90437130D01*
X55313180Y-90652483D01*
X55407419Y-90890804D01*
X55440019Y-91069753D01*
X55453351Y-91142928D01*
X55449213Y-91399169D01*
X55395166Y-91649680D01*
X55318813Y-91825911D01*
X54445846Y-93397549D01*
X54336579Y-93555497D01*
X54336577Y-93555499D01*
X54152463Y-93733763D01*
X53967953Y-93852785D01*
X53937108Y-93872682D01*
X53914546Y-93881603D01*
X53698789Y-93966920D01*
X53519840Y-93999520D01*
X53446665Y-94012852D01*
X53190425Y-94008714D01*
X52939914Y-93954667D01*
X52806643Y-93896926D01*
X52704761Y-93852785D01*
X52593312Y-93775686D01*
X52494004Y-93706986D01*
X52494002Y-93706984D01*
X52315738Y-93522870D01*
X52176820Y-93307517D01*
X52082581Y-93069196D01*
X52049981Y-92890247D01*
X52036649Y-92817072D01*
X52040787Y-92560832D01*
X52094834Y-92310321D01*
X52171187Y-92134090D01*
X53044154Y-90562451D01*
X53153421Y-90404503D01*
X53153423Y-90404501D01*
X53337537Y-90226237D01*
X53552889Y-90087318D01*
X53791210Y-89993080D01*
X53970159Y-89960480D01*
X54043334Y-89947148D01*
X54299575Y-89951286D01*
G37*
G36*
X73349575Y-89951286D02*
G01*
X73600086Y-90005333D01*
X73733357Y-90063074D01*
X73835239Y-90107215D01*
X73946688Y-90184314D01*
X74045996Y-90253014D01*
X74045998Y-90253016D01*
X74224262Y-90437130D01*
X74363180Y-90652483D01*
X74457419Y-90890804D01*
X74490019Y-91069753D01*
X74503351Y-91142928D01*
X74499213Y-91399169D01*
X74445166Y-91649680D01*
X74368813Y-91825911D01*
X73495846Y-93397549D01*
X73386579Y-93555497D01*
X73386577Y-93555499D01*
X73202463Y-93733763D01*
X73017953Y-93852785D01*
X72987108Y-93872682D01*
X72964546Y-93881603D01*
X72748789Y-93966920D01*
X72569840Y-93999520D01*
X72496665Y-94012852D01*
X72240425Y-94008714D01*
X71989914Y-93954667D01*
X71856643Y-93896926D01*
X71754761Y-93852785D01*
X71643312Y-93775686D01*
X71544004Y-93706986D01*
X71544002Y-93706984D01*
X71365738Y-93522870D01*
X71226820Y-93307517D01*
X71132581Y-93069196D01*
X71099981Y-92890247D01*
X71086649Y-92817072D01*
X71090787Y-92560832D01*
X71144834Y-92310321D01*
X71221187Y-92134090D01*
X72094154Y-90562451D01*
X72203421Y-90404503D01*
X72203423Y-90404501D01*
X72387537Y-90226237D01*
X72602889Y-90087318D01*
X72841210Y-89993080D01*
X73020159Y-89960480D01*
X73093334Y-89947148D01*
X73349575Y-89951286D01*
G37*
G36*
X35249575Y-89951286D02*
G01*
X35500086Y-90005333D01*
X35633357Y-90063074D01*
X35735239Y-90107215D01*
X35846688Y-90184314D01*
X35945996Y-90253014D01*
X35945998Y-90253016D01*
X36124262Y-90437130D01*
X36263180Y-90652483D01*
X36357419Y-90890804D01*
X36390019Y-91069753D01*
X36403351Y-91142928D01*
X36399213Y-91399169D01*
X36345166Y-91649680D01*
X36268813Y-91825911D01*
X35395846Y-93397549D01*
X35286579Y-93555497D01*
X35286577Y-93555499D01*
X35102463Y-93733763D01*
X34917953Y-93852785D01*
X34887108Y-93872682D01*
X34864546Y-93881603D01*
X34648789Y-93966920D01*
X34469840Y-93999520D01*
X34396665Y-94012852D01*
X34140425Y-94008714D01*
X33889914Y-93954667D01*
X33756643Y-93896926D01*
X33654761Y-93852785D01*
X33543312Y-93775686D01*
X33444004Y-93706986D01*
X33444002Y-93706984D01*
X33265738Y-93522870D01*
X33126820Y-93307517D01*
X33032581Y-93069196D01*
X32999981Y-92890247D01*
X32986649Y-92817072D01*
X32990787Y-92560832D01*
X33044834Y-92310321D01*
X33121187Y-92134090D01*
X33994154Y-90562451D01*
X34103421Y-90404503D01*
X34103423Y-90404501D01*
X34287537Y-90226237D01*
X34502889Y-90087318D01*
X34741210Y-89993080D01*
X34920159Y-89960480D01*
X34993334Y-89947148D01*
X35249575Y-89951286D01*
G37*
G36*
X130499575Y-89951286D02*
G01*
X130750086Y-90005333D01*
X130883357Y-90063074D01*
X130985239Y-90107215D01*
X131096688Y-90184314D01*
X131195996Y-90253014D01*
X131195998Y-90253016D01*
X131374262Y-90437130D01*
X131513180Y-90652483D01*
X131607419Y-90890804D01*
X131640019Y-91069753D01*
X131653351Y-91142928D01*
X131649213Y-91399169D01*
X131595166Y-91649680D01*
X131518813Y-91825911D01*
X130645846Y-93397549D01*
X130536579Y-93555497D01*
X130536577Y-93555499D01*
X130352463Y-93733763D01*
X130167953Y-93852785D01*
X130137108Y-93872682D01*
X130114546Y-93881603D01*
X129898789Y-93966920D01*
X129719840Y-93999520D01*
X129646665Y-94012852D01*
X129390425Y-94008714D01*
X129139914Y-93954667D01*
X129006643Y-93896926D01*
X128904761Y-93852785D01*
X128793312Y-93775686D01*
X128694004Y-93706986D01*
X128694002Y-93706984D01*
X128515738Y-93522870D01*
X128376820Y-93307517D01*
X128282581Y-93069196D01*
X128249981Y-92890247D01*
X128236649Y-92817072D01*
X128240787Y-92560832D01*
X128294834Y-92310321D01*
X128371187Y-92134090D01*
X129244154Y-90562451D01*
X129353421Y-90404503D01*
X129353423Y-90404501D01*
X129537537Y-90226237D01*
X129752889Y-90087318D01*
X129991210Y-89993080D01*
X130170159Y-89960480D01*
X130243334Y-89947148D01*
X130499575Y-89951286D01*
G37*
G36*
X111449575Y-89951286D02*
G01*
X111700086Y-90005333D01*
X111833357Y-90063074D01*
X111935239Y-90107215D01*
X112046688Y-90184314D01*
X112145996Y-90253014D01*
X112145998Y-90253016D01*
X112324262Y-90437130D01*
X112463180Y-90652483D01*
X112557419Y-90890804D01*
X112590019Y-91069753D01*
X112603351Y-91142928D01*
X112599213Y-91399169D01*
X112545166Y-91649680D01*
X112468813Y-91825911D01*
X111595846Y-93397549D01*
X111486579Y-93555497D01*
X111486577Y-93555499D01*
X111302463Y-93733763D01*
X111117953Y-93852785D01*
X111087108Y-93872682D01*
X111064546Y-93881603D01*
X110848789Y-93966920D01*
X110669840Y-93999520D01*
X110596665Y-94012852D01*
X110340425Y-94008714D01*
X110089914Y-93954667D01*
X109956643Y-93896926D01*
X109854761Y-93852785D01*
X109743312Y-93775686D01*
X109644004Y-93706986D01*
X109644002Y-93706984D01*
X109465738Y-93522870D01*
X109326820Y-93307517D01*
X109232581Y-93069196D01*
X109199981Y-92890247D01*
X109186649Y-92817072D01*
X109190787Y-92560832D01*
X109244834Y-92310321D01*
X109321187Y-92134090D01*
X110194154Y-90562451D01*
X110303421Y-90404503D01*
X110303423Y-90404501D01*
X110487537Y-90226237D01*
X110702889Y-90087318D01*
X110941210Y-89993080D01*
X111120159Y-89960480D01*
X111193334Y-89947148D01*
X111449575Y-89951286D01*
G37*
G36*
X98131379Y-88908813D02*
G01*
X98370991Y-88999713D01*
X98588265Y-89135613D01*
X98774852Y-89311288D01*
X98886209Y-89467550D01*
X98923580Y-89519990D01*
X99028735Y-89753697D01*
X99028736Y-89753701D01*
X99086276Y-90003428D01*
X99092058Y-90195394D01*
X99077802Y-90404501D01*
X99043916Y-90901571D01*
X99012135Y-91090983D01*
X98921235Y-91330595D01*
X98877817Y-91400010D01*
X98785335Y-91547869D01*
X98609660Y-91734456D01*
X98453398Y-91845813D01*
X98400958Y-91883184D01*
X98167251Y-91988339D01*
X98167247Y-91988340D01*
X97917521Y-92045880D01*
X97661366Y-92053594D01*
X97661362Y-92053594D01*
X97408621Y-92011187D01*
X97169009Y-91920287D01*
X96951735Y-91784387D01*
X96898703Y-91734456D01*
X96765148Y-91608712D01*
X96653791Y-91452450D01*
X96616420Y-91400010D01*
X96511265Y-91166303D01*
X96453724Y-90916571D01*
X96452948Y-90890804D01*
X96447942Y-90724608D01*
X96496084Y-90018428D01*
X96508044Y-89947148D01*
X96527865Y-89829017D01*
X96618765Y-89589405D01*
X96754665Y-89372131D01*
X96811950Y-89311288D01*
X96930340Y-89185544D01*
X97086602Y-89074187D01*
X97139042Y-89036816D01*
X97372749Y-88931661D01*
X97372753Y-88931660D01*
X97622479Y-88874120D01*
X97878634Y-88866406D01*
X97878638Y-88866406D01*
X98131379Y-88908813D01*
G37*
G36*
X60031379Y-88908813D02*
G01*
X60270991Y-88999713D01*
X60488265Y-89135613D01*
X60674852Y-89311288D01*
X60786209Y-89467550D01*
X60823580Y-89519990D01*
X60928735Y-89753697D01*
X60928736Y-89753701D01*
X60986276Y-90003428D01*
X60992058Y-90195394D01*
X60977802Y-90404501D01*
X60943916Y-90901571D01*
X60912135Y-91090983D01*
X60821235Y-91330595D01*
X60777817Y-91400010D01*
X60685335Y-91547869D01*
X60509660Y-91734456D01*
X60353398Y-91845813D01*
X60300958Y-91883184D01*
X60067251Y-91988339D01*
X60067247Y-91988340D01*
X59817521Y-92045880D01*
X59561366Y-92053594D01*
X59561362Y-92053594D01*
X59308621Y-92011187D01*
X59069009Y-91920287D01*
X58851735Y-91784387D01*
X58798703Y-91734456D01*
X58665148Y-91608712D01*
X58553791Y-91452450D01*
X58516420Y-91400010D01*
X58411265Y-91166303D01*
X58353724Y-90916571D01*
X58352948Y-90890804D01*
X58347942Y-90724608D01*
X58396084Y-90018428D01*
X58408044Y-89947148D01*
X58427865Y-89829017D01*
X58518765Y-89589405D01*
X58654665Y-89372131D01*
X58711950Y-89311288D01*
X58830340Y-89185544D01*
X58986602Y-89074187D01*
X59039042Y-89036816D01*
X59272749Y-88931661D01*
X59272753Y-88931660D01*
X59522479Y-88874120D01*
X59778634Y-88866406D01*
X59778638Y-88866406D01*
X60031379Y-88908813D01*
G37*
G36*
X117181379Y-88908813D02*
G01*
X117420991Y-88999713D01*
X117638265Y-89135613D01*
X117824852Y-89311288D01*
X117936209Y-89467550D01*
X117973580Y-89519990D01*
X118078735Y-89753697D01*
X118078736Y-89753701D01*
X118136276Y-90003428D01*
X118142058Y-90195394D01*
X118127802Y-90404501D01*
X118093916Y-90901571D01*
X118062135Y-91090983D01*
X117971235Y-91330595D01*
X117927817Y-91400010D01*
X117835335Y-91547869D01*
X117659660Y-91734456D01*
X117503398Y-91845813D01*
X117450958Y-91883184D01*
X117217251Y-91988339D01*
X117217247Y-91988340D01*
X116967521Y-92045880D01*
X116711366Y-92053594D01*
X116711362Y-92053594D01*
X116458621Y-92011187D01*
X116219009Y-91920287D01*
X116001735Y-91784387D01*
X115948703Y-91734456D01*
X115815148Y-91608712D01*
X115703791Y-91452450D01*
X115666420Y-91400010D01*
X115561265Y-91166303D01*
X115503724Y-90916571D01*
X115502948Y-90890804D01*
X115497942Y-90724608D01*
X115546084Y-90018428D01*
X115558044Y-89947148D01*
X115577865Y-89829017D01*
X115668765Y-89589405D01*
X115804665Y-89372131D01*
X115861950Y-89311288D01*
X115980340Y-89185544D01*
X116136602Y-89074187D01*
X116189042Y-89036816D01*
X116422749Y-88931661D01*
X116422753Y-88931660D01*
X116672479Y-88874120D01*
X116928634Y-88866406D01*
X116928638Y-88866406D01*
X117181379Y-88908813D01*
G37*
G36*
X79081379Y-88908813D02*
G01*
X79320991Y-88999713D01*
X79538265Y-89135613D01*
X79724852Y-89311288D01*
X79836209Y-89467550D01*
X79873580Y-89519990D01*
X79978735Y-89753697D01*
X79978736Y-89753701D01*
X80036276Y-90003428D01*
X80042058Y-90195394D01*
X80027802Y-90404501D01*
X79993916Y-90901571D01*
X79962135Y-91090983D01*
X79871235Y-91330595D01*
X79827817Y-91400010D01*
X79735335Y-91547869D01*
X79559660Y-91734456D01*
X79403398Y-91845813D01*
X79350958Y-91883184D01*
X79117251Y-91988339D01*
X79117247Y-91988340D01*
X78867521Y-92045880D01*
X78611366Y-92053594D01*
X78611362Y-92053594D01*
X78358621Y-92011187D01*
X78119009Y-91920287D01*
X77901735Y-91784387D01*
X77848703Y-91734456D01*
X77715148Y-91608712D01*
X77603791Y-91452450D01*
X77566420Y-91400010D01*
X77461265Y-91166303D01*
X77403724Y-90916571D01*
X77402948Y-90890804D01*
X77397942Y-90724608D01*
X77446084Y-90018428D01*
X77458044Y-89947148D01*
X77477865Y-89829017D01*
X77568765Y-89589405D01*
X77704665Y-89372131D01*
X77761950Y-89311288D01*
X77880340Y-89185544D01*
X78036602Y-89074187D01*
X78089042Y-89036816D01*
X78322749Y-88931661D01*
X78322753Y-88931660D01*
X78572479Y-88874120D01*
X78828634Y-88866406D01*
X78828638Y-88866406D01*
X79081379Y-88908813D01*
G37*
G36*
X40981379Y-88908813D02*
G01*
X41220991Y-88999713D01*
X41438265Y-89135613D01*
X41624852Y-89311288D01*
X41736209Y-89467550D01*
X41773580Y-89519990D01*
X41878735Y-89753697D01*
X41878736Y-89753701D01*
X41936276Y-90003428D01*
X41942058Y-90195394D01*
X41927802Y-90404501D01*
X41893916Y-90901571D01*
X41862135Y-91090983D01*
X41771235Y-91330595D01*
X41727817Y-91400010D01*
X41635335Y-91547869D01*
X41459660Y-91734456D01*
X41303398Y-91845813D01*
X41250958Y-91883184D01*
X41017251Y-91988339D01*
X41017247Y-91988340D01*
X40767521Y-92045880D01*
X40511366Y-92053594D01*
X40511362Y-92053594D01*
X40258621Y-92011187D01*
X40019009Y-91920287D01*
X39801735Y-91784387D01*
X39748703Y-91734456D01*
X39615148Y-91608712D01*
X39503791Y-91452450D01*
X39466420Y-91400010D01*
X39361265Y-91166303D01*
X39303724Y-90916571D01*
X39302948Y-90890804D01*
X39297942Y-90724608D01*
X39346084Y-90018428D01*
X39358044Y-89947148D01*
X39377865Y-89829017D01*
X39468765Y-89589405D01*
X39604665Y-89372131D01*
X39661950Y-89311288D01*
X39780340Y-89185544D01*
X39936602Y-89074187D01*
X39989042Y-89036816D01*
X40222749Y-88931661D01*
X40222753Y-88931660D01*
X40472479Y-88874120D01*
X40728634Y-88866406D01*
X40728638Y-88866406D01*
X40981379Y-88908813D01*
G37*
G36*
X136231379Y-88908813D02*
G01*
X136470991Y-88999713D01*
X136688265Y-89135613D01*
X136874852Y-89311288D01*
X136986209Y-89467550D01*
X137023580Y-89519990D01*
X137128735Y-89753697D01*
X137128736Y-89753701D01*
X137186276Y-90003428D01*
X137192058Y-90195394D01*
X137177802Y-90404501D01*
X137143916Y-90901571D01*
X137112135Y-91090983D01*
X137021235Y-91330595D01*
X136977817Y-91400010D01*
X136885335Y-91547869D01*
X136709660Y-91734456D01*
X136553398Y-91845813D01*
X136500958Y-91883184D01*
X136267251Y-91988339D01*
X136267247Y-91988340D01*
X136017521Y-92045880D01*
X135761366Y-92053594D01*
X135761362Y-92053594D01*
X135508621Y-92011187D01*
X135269009Y-91920287D01*
X135051735Y-91784387D01*
X134998703Y-91734456D01*
X134865148Y-91608712D01*
X134753791Y-91452450D01*
X134716420Y-91400010D01*
X134611265Y-91166303D01*
X134553724Y-90916571D01*
X134552948Y-90890804D01*
X134547942Y-90724608D01*
X134596084Y-90018428D01*
X134608044Y-89947148D01*
X134627865Y-89829017D01*
X134718765Y-89589405D01*
X134854665Y-89372131D01*
X134911950Y-89311288D01*
X135030340Y-89185544D01*
X135186602Y-89074187D01*
X135239042Y-89036816D01*
X135472749Y-88931661D01*
X135472753Y-88931660D01*
X135722479Y-88874120D01*
X135978634Y-88866406D01*
X135978638Y-88866406D01*
X136231379Y-88908813D01*
G37*
G36*
X35451000Y-85351000D02*
G01*
X33749000Y-85351000D01*
X33749000Y-83649000D01*
X35451000Y-83649000D01*
X35451000Y-85351000D01*
G37*
G36*
X54451000Y-85351000D02*
G01*
X52749000Y-85351000D01*
X52749000Y-83649000D01*
X54451000Y-83649000D01*
X54451000Y-85351000D01*
G37*
G36*
X42648228Y-83681703D02*
G01*
X42803100Y-83745853D01*
X42942481Y-83838985D01*
X43061015Y-83957519D01*
X43154147Y-84096900D01*
X43218297Y-84251772D01*
X43251000Y-84416184D01*
X43251000Y-84583816D01*
X43218297Y-84748228D01*
X43154147Y-84903100D01*
X43061015Y-85042481D01*
X42942481Y-85161015D01*
X42803100Y-85254147D01*
X42648228Y-85318297D01*
X42483816Y-85351000D01*
X42316184Y-85351000D01*
X42151772Y-85318297D01*
X41996900Y-85254147D01*
X41857519Y-85161015D01*
X41738985Y-85042481D01*
X41645853Y-84903100D01*
X41581703Y-84748228D01*
X41549000Y-84583816D01*
X41549000Y-84416184D01*
X41581703Y-84251772D01*
X41645853Y-84096900D01*
X41738985Y-83957519D01*
X41857519Y-83838985D01*
X41996900Y-83745853D01*
X42151772Y-83681703D01*
X42316184Y-83649000D01*
X42483816Y-83649000D01*
X42648228Y-83681703D01*
G37*
G36*
X73451000Y-85351000D02*
G01*
X71749000Y-85351000D01*
X71749000Y-83649000D01*
X73451000Y-83649000D01*
X73451000Y-85351000D01*
G37*
G36*
X137648228Y-83681703D02*
G01*
X137803100Y-83745853D01*
X137942481Y-83838985D01*
X138061015Y-83957519D01*
X138154147Y-84096900D01*
X138218297Y-84251772D01*
X138251000Y-84416184D01*
X138251000Y-84583816D01*
X138218297Y-84748228D01*
X138154147Y-84903100D01*
X138061015Y-85042481D01*
X137942481Y-85161015D01*
X137803100Y-85254147D01*
X137648228Y-85318297D01*
X137483816Y-85351000D01*
X137316184Y-85351000D01*
X137151772Y-85318297D01*
X136996900Y-85254147D01*
X136857519Y-85161015D01*
X136738985Y-85042481D01*
X136645853Y-84903100D01*
X136581703Y-84748228D01*
X136549000Y-84583816D01*
X136549000Y-84416184D01*
X136581703Y-84251772D01*
X136645853Y-84096900D01*
X136738985Y-83957519D01*
X136857519Y-83838985D01*
X136996900Y-83745853D01*
X137151772Y-83681703D01*
X137316184Y-83649000D01*
X137483816Y-83649000D01*
X137648228Y-83681703D01*
G37*
G36*
X80648228Y-83681703D02*
G01*
X80803100Y-83745853D01*
X80942481Y-83838985D01*
X81061015Y-83957519D01*
X81154147Y-84096900D01*
X81218297Y-84251772D01*
X81251000Y-84416184D01*
X81251000Y-84583816D01*
X81218297Y-84748228D01*
X81154147Y-84903100D01*
X81061015Y-85042481D01*
X80942481Y-85161015D01*
X80803100Y-85254147D01*
X80648228Y-85318297D01*
X80483816Y-85351000D01*
X80316184Y-85351000D01*
X80151772Y-85318297D01*
X79996900Y-85254147D01*
X79857519Y-85161015D01*
X79738985Y-85042481D01*
X79645853Y-84903100D01*
X79581703Y-84748228D01*
X79549000Y-84583816D01*
X79549000Y-84416184D01*
X79581703Y-84251772D01*
X79645853Y-84096900D01*
X79738985Y-83957519D01*
X79857519Y-83838985D01*
X79996900Y-83745853D01*
X80151772Y-83681703D01*
X80316184Y-83649000D01*
X80483816Y-83649000D01*
X80648228Y-83681703D01*
G37*
G36*
X92451000Y-85351000D02*
G01*
X90749000Y-85351000D01*
X90749000Y-83649000D01*
X92451000Y-83649000D01*
X92451000Y-85351000D01*
G37*
G36*
X130451000Y-85351000D02*
G01*
X128749000Y-85351000D01*
X128749000Y-83649000D01*
X130451000Y-83649000D01*
X130451000Y-85351000D01*
G37*
G36*
X111451000Y-85351000D02*
G01*
X109749000Y-85351000D01*
X109749000Y-83649000D01*
X111451000Y-83649000D01*
X111451000Y-85351000D01*
G37*
G36*
X118648228Y-83681703D02*
G01*
X118803100Y-83745853D01*
X118942481Y-83838985D01*
X119061015Y-83957519D01*
X119154147Y-84096900D01*
X119218297Y-84251772D01*
X119251000Y-84416184D01*
X119251000Y-84583816D01*
X119218297Y-84748228D01*
X119154147Y-84903100D01*
X119061015Y-85042481D01*
X118942481Y-85161015D01*
X118803100Y-85254147D01*
X118648228Y-85318297D01*
X118483816Y-85351000D01*
X118316184Y-85351000D01*
X118151772Y-85318297D01*
X117996900Y-85254147D01*
X117857519Y-85161015D01*
X117738985Y-85042481D01*
X117645853Y-84903100D01*
X117581703Y-84748228D01*
X117549000Y-84583816D01*
X117549000Y-84416184D01*
X117581703Y-84251772D01*
X117645853Y-84096900D01*
X117738985Y-83957519D01*
X117857519Y-83838985D01*
X117996900Y-83745853D01*
X118151772Y-83681703D01*
X118316184Y-83649000D01*
X118483816Y-83649000D01*
X118648228Y-83681703D01*
G37*
G36*
X99648228Y-83681703D02*
G01*
X99803100Y-83745853D01*
X99942481Y-83838985D01*
X100061015Y-83957519D01*
X100154147Y-84096900D01*
X100218297Y-84251772D01*
X100251000Y-84416184D01*
X100251000Y-84583816D01*
X100218297Y-84748228D01*
X100154147Y-84903100D01*
X100061015Y-85042481D01*
X99942481Y-85161015D01*
X99803100Y-85254147D01*
X99648228Y-85318297D01*
X99483816Y-85351000D01*
X99316184Y-85351000D01*
X99151772Y-85318297D01*
X98996900Y-85254147D01*
X98857519Y-85161015D01*
X98738985Y-85042481D01*
X98645853Y-84903100D01*
X98581703Y-84748228D01*
X98549000Y-84583816D01*
X98549000Y-84416184D01*
X98581703Y-84251772D01*
X98645853Y-84096900D01*
X98738985Y-83957519D01*
X98857519Y-83838985D01*
X98996900Y-83745853D01*
X99151772Y-83681703D01*
X99316184Y-83649000D01*
X99483816Y-83649000D01*
X99648228Y-83681703D01*
G37*
G36*
X61648228Y-83681703D02*
G01*
X61803100Y-83745853D01*
X61942481Y-83838985D01*
X62061015Y-83957519D01*
X62154147Y-84096900D01*
X62218297Y-84251772D01*
X62251000Y-84416184D01*
X62251000Y-84583816D01*
X62218297Y-84748228D01*
X62154147Y-84903100D01*
X62061015Y-85042481D01*
X61942481Y-85161015D01*
X61803100Y-85254147D01*
X61648228Y-85318297D01*
X61483816Y-85351000D01*
X61316184Y-85351000D01*
X61151772Y-85318297D01*
X60996900Y-85254147D01*
X60857519Y-85161015D01*
X60738985Y-85042481D01*
X60645853Y-84903100D01*
X60581703Y-84748228D01*
X60549000Y-84583816D01*
X60549000Y-84416184D01*
X60581703Y-84251772D01*
X60645853Y-84096900D01*
X60738985Y-83957519D01*
X60857519Y-83838985D01*
X60996900Y-83745853D01*
X61151772Y-83681703D01*
X61316184Y-83649000D01*
X61483816Y-83649000D01*
X61648228Y-83681703D01*
G37*
G36*
X111449575Y-70901286D02*
G01*
X111700086Y-70955333D01*
X111833357Y-71013074D01*
X111935239Y-71057215D01*
X112046688Y-71134314D01*
X112145996Y-71203014D01*
X112145998Y-71203016D01*
X112324262Y-71387130D01*
X112463180Y-71602483D01*
X112557419Y-71840804D01*
X112590019Y-72019753D01*
X112603351Y-72092928D01*
X112599213Y-72349169D01*
X112545166Y-72599680D01*
X112468813Y-72775911D01*
X111595846Y-74347549D01*
X111486579Y-74505497D01*
X111486577Y-74505499D01*
X111302463Y-74683763D01*
X111117953Y-74802785D01*
X111087108Y-74822682D01*
X111064546Y-74831603D01*
X110848789Y-74916920D01*
X110669840Y-74949520D01*
X110596665Y-74962852D01*
X110340425Y-74958714D01*
X110089914Y-74904667D01*
X109956643Y-74846926D01*
X109854761Y-74802785D01*
X109743312Y-74725686D01*
X109644004Y-74656986D01*
X109644002Y-74656984D01*
X109465738Y-74472870D01*
X109326820Y-74257517D01*
X109232581Y-74019196D01*
X109199981Y-73840247D01*
X109186649Y-73767072D01*
X109190787Y-73510832D01*
X109244834Y-73260321D01*
X109321187Y-73084090D01*
X110194154Y-71512451D01*
X110303421Y-71354503D01*
X110303423Y-71354501D01*
X110487537Y-71176237D01*
X110702889Y-71037318D01*
X110941210Y-70943080D01*
X111120159Y-70910480D01*
X111193334Y-70897148D01*
X111449575Y-70901286D01*
G37*
G36*
X130499575Y-70901286D02*
G01*
X130750086Y-70955333D01*
X130883357Y-71013074D01*
X130985239Y-71057215D01*
X131096688Y-71134314D01*
X131195996Y-71203014D01*
X131195998Y-71203016D01*
X131374262Y-71387130D01*
X131513180Y-71602483D01*
X131607419Y-71840804D01*
X131640019Y-72019753D01*
X131653351Y-72092928D01*
X131649213Y-72349169D01*
X131595166Y-72599680D01*
X131518813Y-72775911D01*
X130645846Y-74347549D01*
X130536579Y-74505497D01*
X130536577Y-74505499D01*
X130352463Y-74683763D01*
X130167953Y-74802785D01*
X130137108Y-74822682D01*
X130114546Y-74831603D01*
X129898789Y-74916920D01*
X129719840Y-74949520D01*
X129646665Y-74962852D01*
X129390425Y-74958714D01*
X129139914Y-74904667D01*
X129006643Y-74846926D01*
X128904761Y-74802785D01*
X128793312Y-74725686D01*
X128694004Y-74656986D01*
X128694002Y-74656984D01*
X128515738Y-74472870D01*
X128376820Y-74257517D01*
X128282581Y-74019196D01*
X128249981Y-73840247D01*
X128236649Y-73767072D01*
X128240787Y-73510832D01*
X128294834Y-73260321D01*
X128371187Y-73084090D01*
X129244154Y-71512451D01*
X129353421Y-71354503D01*
X129353423Y-71354501D01*
X129537537Y-71176237D01*
X129752889Y-71037318D01*
X129991210Y-70943080D01*
X130170159Y-70910480D01*
X130243334Y-70897148D01*
X130499575Y-70901286D01*
G37*
G36*
X92399575Y-70901286D02*
G01*
X92650086Y-70955333D01*
X92783357Y-71013074D01*
X92885239Y-71057215D01*
X92996688Y-71134314D01*
X93095996Y-71203014D01*
X93095998Y-71203016D01*
X93274262Y-71387130D01*
X93413180Y-71602483D01*
X93507419Y-71840804D01*
X93540019Y-72019753D01*
X93553351Y-72092928D01*
X93549213Y-72349169D01*
X93495166Y-72599680D01*
X93418813Y-72775911D01*
X92545846Y-74347549D01*
X92436579Y-74505497D01*
X92436577Y-74505499D01*
X92252463Y-74683763D01*
X92067953Y-74802785D01*
X92037108Y-74822682D01*
X92014546Y-74831603D01*
X91798789Y-74916920D01*
X91619840Y-74949520D01*
X91546665Y-74962852D01*
X91290425Y-74958714D01*
X91039914Y-74904667D01*
X90906643Y-74846926D01*
X90804761Y-74802785D01*
X90693312Y-74725686D01*
X90594004Y-74656986D01*
X90594002Y-74656984D01*
X90415738Y-74472870D01*
X90276820Y-74257517D01*
X90182581Y-74019196D01*
X90149981Y-73840247D01*
X90136649Y-73767072D01*
X90140787Y-73510832D01*
X90194834Y-73260321D01*
X90271187Y-73084090D01*
X91144154Y-71512451D01*
X91253421Y-71354503D01*
X91253423Y-71354501D01*
X91437537Y-71176237D01*
X91652889Y-71037318D01*
X91891210Y-70943080D01*
X92070159Y-70910480D01*
X92143334Y-70897148D01*
X92399575Y-70901286D01*
G37*
G36*
X73349575Y-70901286D02*
G01*
X73600086Y-70955333D01*
X73733357Y-71013074D01*
X73835239Y-71057215D01*
X73946688Y-71134314D01*
X74045996Y-71203014D01*
X74045998Y-71203016D01*
X74224262Y-71387130D01*
X74363180Y-71602483D01*
X74457419Y-71840804D01*
X74490019Y-72019753D01*
X74503351Y-72092928D01*
X74499213Y-72349169D01*
X74445166Y-72599680D01*
X74368813Y-72775911D01*
X73495846Y-74347549D01*
X73386579Y-74505497D01*
X73386577Y-74505499D01*
X73202463Y-74683763D01*
X73017953Y-74802785D01*
X72987108Y-74822682D01*
X72964546Y-74831603D01*
X72748789Y-74916920D01*
X72569840Y-74949520D01*
X72496665Y-74962852D01*
X72240425Y-74958714D01*
X71989914Y-74904667D01*
X71856643Y-74846926D01*
X71754761Y-74802785D01*
X71643312Y-74725686D01*
X71544004Y-74656986D01*
X71544002Y-74656984D01*
X71365738Y-74472870D01*
X71226820Y-74257517D01*
X71132581Y-74019196D01*
X71099981Y-73840247D01*
X71086649Y-73767072D01*
X71090787Y-73510832D01*
X71144834Y-73260321D01*
X71221187Y-73084090D01*
X72094154Y-71512451D01*
X72203421Y-71354503D01*
X72203423Y-71354501D01*
X72387537Y-71176237D01*
X72602889Y-71037318D01*
X72841210Y-70943080D01*
X73020159Y-70910480D01*
X73093334Y-70897148D01*
X73349575Y-70901286D01*
G37*
G36*
X54299575Y-70901286D02*
G01*
X54550086Y-70955333D01*
X54683357Y-71013074D01*
X54785239Y-71057215D01*
X54896688Y-71134314D01*
X54995996Y-71203014D01*
X54995998Y-71203016D01*
X55174262Y-71387130D01*
X55313180Y-71602483D01*
X55407419Y-71840804D01*
X55440019Y-72019753D01*
X55453351Y-72092928D01*
X55449213Y-72349169D01*
X55395166Y-72599680D01*
X55318813Y-72775911D01*
X54445846Y-74347549D01*
X54336579Y-74505497D01*
X54336577Y-74505499D01*
X54152463Y-74683763D01*
X53967953Y-74802785D01*
X53937108Y-74822682D01*
X53914546Y-74831603D01*
X53698789Y-74916920D01*
X53519840Y-74949520D01*
X53446665Y-74962852D01*
X53190425Y-74958714D01*
X52939914Y-74904667D01*
X52806643Y-74846926D01*
X52704761Y-74802785D01*
X52593312Y-74725686D01*
X52494004Y-74656986D01*
X52494002Y-74656984D01*
X52315738Y-74472870D01*
X52176820Y-74257517D01*
X52082581Y-74019196D01*
X52049981Y-73840247D01*
X52036649Y-73767072D01*
X52040787Y-73510832D01*
X52094834Y-73260321D01*
X52171187Y-73084090D01*
X53044154Y-71512451D01*
X53153421Y-71354503D01*
X53153423Y-71354501D01*
X53337537Y-71176237D01*
X53552889Y-71037318D01*
X53791210Y-70943080D01*
X53970159Y-70910480D01*
X54043334Y-70897148D01*
X54299575Y-70901286D01*
G37*
G36*
X35249575Y-70901286D02*
G01*
X35500086Y-70955333D01*
X35633357Y-71013074D01*
X35735239Y-71057215D01*
X35846688Y-71134314D01*
X35945996Y-71203014D01*
X35945998Y-71203016D01*
X36124262Y-71387130D01*
X36263180Y-71602483D01*
X36357419Y-71840804D01*
X36390019Y-72019753D01*
X36403351Y-72092928D01*
X36399213Y-72349169D01*
X36345166Y-72599680D01*
X36268813Y-72775911D01*
X35395846Y-74347549D01*
X35286579Y-74505497D01*
X35286577Y-74505499D01*
X35102463Y-74683763D01*
X34917953Y-74802785D01*
X34887108Y-74822682D01*
X34864546Y-74831603D01*
X34648789Y-74916920D01*
X34469840Y-74949520D01*
X34396665Y-74962852D01*
X34140425Y-74958714D01*
X33889914Y-74904667D01*
X33756643Y-74846926D01*
X33654761Y-74802785D01*
X33543312Y-74725686D01*
X33444004Y-74656986D01*
X33444002Y-74656984D01*
X33265738Y-74472870D01*
X33126820Y-74257517D01*
X33032581Y-74019196D01*
X32999981Y-73840247D01*
X32986649Y-73767072D01*
X32990787Y-73510832D01*
X33044834Y-73260321D01*
X33121187Y-73084090D01*
X33994154Y-71512451D01*
X34103421Y-71354503D01*
X34103423Y-71354501D01*
X34287537Y-71176237D01*
X34502889Y-71037318D01*
X34741210Y-70943080D01*
X34920159Y-70910480D01*
X34993334Y-70897148D01*
X35249575Y-70901286D01*
G37*
G36*
X60031379Y-69858813D02*
G01*
X60270991Y-69949713D01*
X60488265Y-70085613D01*
X60674852Y-70261288D01*
X60786209Y-70417550D01*
X60823580Y-70469990D01*
X60928735Y-70703697D01*
X60928736Y-70703701D01*
X60986276Y-70953428D01*
X60992058Y-71145394D01*
X60977802Y-71354501D01*
X60943916Y-71851571D01*
X60912135Y-72040983D01*
X60821235Y-72280595D01*
X60777817Y-72350010D01*
X60685335Y-72497869D01*
X60509660Y-72684456D01*
X60353398Y-72795813D01*
X60300958Y-72833184D01*
X60067251Y-72938339D01*
X60067247Y-72938340D01*
X59817521Y-72995880D01*
X59561366Y-73003594D01*
X59561362Y-73003594D01*
X59308621Y-72961187D01*
X59069009Y-72870287D01*
X58851735Y-72734387D01*
X58798703Y-72684456D01*
X58665148Y-72558712D01*
X58553791Y-72402450D01*
X58516420Y-72350010D01*
X58411265Y-72116303D01*
X58353724Y-71866571D01*
X58352948Y-71840804D01*
X58347942Y-71674608D01*
X58396084Y-70968428D01*
X58408044Y-70897148D01*
X58427865Y-70779017D01*
X58518765Y-70539405D01*
X58654665Y-70322131D01*
X58711950Y-70261288D01*
X58830340Y-70135544D01*
X58986602Y-70024187D01*
X59039042Y-69986816D01*
X59272749Y-69881661D01*
X59272753Y-69881660D01*
X59522479Y-69824120D01*
X59778634Y-69816406D01*
X59778638Y-69816406D01*
X60031379Y-69858813D01*
G37*
G36*
X117181379Y-69858813D02*
G01*
X117420991Y-69949713D01*
X117638265Y-70085613D01*
X117824852Y-70261288D01*
X117936209Y-70417550D01*
X117973580Y-70469990D01*
X118078735Y-70703697D01*
X118078736Y-70703701D01*
X118136276Y-70953428D01*
X118142058Y-71145394D01*
X118127802Y-71354501D01*
X118093916Y-71851571D01*
X118062135Y-72040983D01*
X117971235Y-72280595D01*
X117927817Y-72350010D01*
X117835335Y-72497869D01*
X117659660Y-72684456D01*
X117503398Y-72795813D01*
X117450958Y-72833184D01*
X117217251Y-72938339D01*
X117217247Y-72938340D01*
X116967521Y-72995880D01*
X116711366Y-73003594D01*
X116711362Y-73003594D01*
X116458621Y-72961187D01*
X116219009Y-72870287D01*
X116001735Y-72734387D01*
X115948703Y-72684456D01*
X115815148Y-72558712D01*
X115703791Y-72402450D01*
X115666420Y-72350010D01*
X115561265Y-72116303D01*
X115503724Y-71866571D01*
X115502948Y-71840804D01*
X115497942Y-71674608D01*
X115546084Y-70968428D01*
X115558044Y-70897148D01*
X115577865Y-70779017D01*
X115668765Y-70539405D01*
X115804665Y-70322131D01*
X115861950Y-70261288D01*
X115980340Y-70135544D01*
X116136602Y-70024187D01*
X116189042Y-69986816D01*
X116422749Y-69881661D01*
X116422753Y-69881660D01*
X116672479Y-69824120D01*
X116928634Y-69816406D01*
X116928638Y-69816406D01*
X117181379Y-69858813D01*
G37*
G36*
X98131379Y-69858813D02*
G01*
X98370991Y-69949713D01*
X98588265Y-70085613D01*
X98774852Y-70261288D01*
X98886209Y-70417550D01*
X98923580Y-70469990D01*
X99028735Y-70703697D01*
X99028736Y-70703701D01*
X99086276Y-70953428D01*
X99092058Y-71145394D01*
X99077802Y-71354501D01*
X99043916Y-71851571D01*
X99012135Y-72040983D01*
X98921235Y-72280595D01*
X98877817Y-72350010D01*
X98785335Y-72497869D01*
X98609660Y-72684456D01*
X98453398Y-72795813D01*
X98400958Y-72833184D01*
X98167251Y-72938339D01*
X98167247Y-72938340D01*
X97917521Y-72995880D01*
X97661366Y-73003594D01*
X97661362Y-73003594D01*
X97408621Y-72961187D01*
X97169009Y-72870287D01*
X96951735Y-72734387D01*
X96898703Y-72684456D01*
X96765148Y-72558712D01*
X96653791Y-72402450D01*
X96616420Y-72350010D01*
X96511265Y-72116303D01*
X96453724Y-71866571D01*
X96452948Y-71840804D01*
X96447942Y-71674608D01*
X96496084Y-70968428D01*
X96508044Y-70897148D01*
X96527865Y-70779017D01*
X96618765Y-70539405D01*
X96754665Y-70322131D01*
X96811950Y-70261288D01*
X96930340Y-70135544D01*
X97086602Y-70024187D01*
X97139042Y-69986816D01*
X97372749Y-69881661D01*
X97372753Y-69881660D01*
X97622479Y-69824120D01*
X97878634Y-69816406D01*
X97878638Y-69816406D01*
X98131379Y-69858813D01*
G37*
G36*
X136231379Y-69858813D02*
G01*
X136470991Y-69949713D01*
X136688265Y-70085613D01*
X136874852Y-70261288D01*
X136986209Y-70417550D01*
X137023580Y-70469990D01*
X137128735Y-70703697D01*
X137128736Y-70703701D01*
X137186276Y-70953428D01*
X137192058Y-71145394D01*
X137177802Y-71354501D01*
X137143916Y-71851571D01*
X137112135Y-72040983D01*
X137021235Y-72280595D01*
X136977817Y-72350010D01*
X136885335Y-72497869D01*
X136709660Y-72684456D01*
X136553398Y-72795813D01*
X136500958Y-72833184D01*
X136267251Y-72938339D01*
X136267247Y-72938340D01*
X136017521Y-72995880D01*
X135761366Y-73003594D01*
X135761362Y-73003594D01*
X135508621Y-72961187D01*
X135269009Y-72870287D01*
X135051735Y-72734387D01*
X134998703Y-72684456D01*
X134865148Y-72558712D01*
X134753791Y-72402450D01*
X134716420Y-72350010D01*
X134611265Y-72116303D01*
X134553724Y-71866571D01*
X134552948Y-71840804D01*
X134547942Y-71674608D01*
X134596084Y-70968428D01*
X134608044Y-70897148D01*
X134627865Y-70779017D01*
X134718765Y-70539405D01*
X134854665Y-70322131D01*
X134911950Y-70261288D01*
X135030340Y-70135544D01*
X135186602Y-70024187D01*
X135239042Y-69986816D01*
X135472749Y-69881661D01*
X135472753Y-69881660D01*
X135722479Y-69824120D01*
X135978634Y-69816406D01*
X135978638Y-69816406D01*
X136231379Y-69858813D01*
G37*
G36*
X79081379Y-69858813D02*
G01*
X79320991Y-69949713D01*
X79538265Y-70085613D01*
X79724852Y-70261288D01*
X79836209Y-70417550D01*
X79873580Y-70469990D01*
X79978735Y-70703697D01*
X79978736Y-70703701D01*
X80036276Y-70953428D01*
X80042058Y-71145394D01*
X80027802Y-71354501D01*
X79993916Y-71851571D01*
X79962135Y-72040983D01*
X79871235Y-72280595D01*
X79827817Y-72350010D01*
X79735335Y-72497869D01*
X79559660Y-72684456D01*
X79403398Y-72795813D01*
X79350958Y-72833184D01*
X79117251Y-72938339D01*
X79117247Y-72938340D01*
X78867521Y-72995880D01*
X78611366Y-73003594D01*
X78611362Y-73003594D01*
X78358621Y-72961187D01*
X78119009Y-72870287D01*
X77901735Y-72734387D01*
X77848703Y-72684456D01*
X77715148Y-72558712D01*
X77603791Y-72402450D01*
X77566420Y-72350010D01*
X77461265Y-72116303D01*
X77403724Y-71866571D01*
X77402948Y-71840804D01*
X77397942Y-71674608D01*
X77446084Y-70968428D01*
X77458044Y-70897148D01*
X77477865Y-70779017D01*
X77568765Y-70539405D01*
X77704665Y-70322131D01*
X77761950Y-70261288D01*
X77880340Y-70135544D01*
X78036602Y-70024187D01*
X78089042Y-69986816D01*
X78322749Y-69881661D01*
X78322753Y-69881660D01*
X78572479Y-69824120D01*
X78828634Y-69816406D01*
X78828638Y-69816406D01*
X79081379Y-69858813D01*
G37*
G36*
X40981379Y-69858813D02*
G01*
X41220991Y-69949713D01*
X41438265Y-70085613D01*
X41624852Y-70261288D01*
X41736209Y-70417550D01*
X41773580Y-70469990D01*
X41878735Y-70703697D01*
X41878736Y-70703701D01*
X41936276Y-70953428D01*
X41942058Y-71145394D01*
X41927802Y-71354501D01*
X41893916Y-71851571D01*
X41862135Y-72040983D01*
X41771235Y-72280595D01*
X41727817Y-72350010D01*
X41635335Y-72497869D01*
X41459660Y-72684456D01*
X41303398Y-72795813D01*
X41250958Y-72833184D01*
X41017251Y-72938339D01*
X41017247Y-72938340D01*
X40767521Y-72995880D01*
X40511366Y-73003594D01*
X40511362Y-73003594D01*
X40258621Y-72961187D01*
X40019009Y-72870287D01*
X39801735Y-72734387D01*
X39748703Y-72684456D01*
X39615148Y-72558712D01*
X39503791Y-72402450D01*
X39466420Y-72350010D01*
X39361265Y-72116303D01*
X39303724Y-71866571D01*
X39302948Y-71840804D01*
X39297942Y-71674608D01*
X39346084Y-70968428D01*
X39358044Y-70897148D01*
X39377865Y-70779017D01*
X39468765Y-70539405D01*
X39604665Y-70322131D01*
X39661950Y-70261288D01*
X39780340Y-70135544D01*
X39936602Y-70024187D01*
X39989042Y-69986816D01*
X40222749Y-69881661D01*
X40222753Y-69881660D01*
X40472479Y-69824120D01*
X40728634Y-69816406D01*
X40728638Y-69816406D01*
X40981379Y-69858813D01*
G37*
G36*
X130451000Y-66351000D02*
G01*
X128749000Y-66351000D01*
X128749000Y-64649000D01*
X130451000Y-64649000D01*
X130451000Y-66351000D01*
G37*
G36*
X42648228Y-64681703D02*
G01*
X42803100Y-64745853D01*
X42942481Y-64838985D01*
X43061015Y-64957519D01*
X43154147Y-65096900D01*
X43218297Y-65251772D01*
X43251000Y-65416184D01*
X43251000Y-65583816D01*
X43218297Y-65748228D01*
X43154147Y-65903100D01*
X43061015Y-66042481D01*
X42942481Y-66161015D01*
X42803100Y-66254147D01*
X42648228Y-66318297D01*
X42483816Y-66351000D01*
X42316184Y-66351000D01*
X42151772Y-66318297D01*
X41996900Y-66254147D01*
X41857519Y-66161015D01*
X41738985Y-66042481D01*
X41645853Y-65903100D01*
X41581703Y-65748228D01*
X41549000Y-65583816D01*
X41549000Y-65416184D01*
X41581703Y-65251772D01*
X41645853Y-65096900D01*
X41738985Y-64957519D01*
X41857519Y-64838985D01*
X41996900Y-64745853D01*
X42151772Y-64681703D01*
X42316184Y-64649000D01*
X42483816Y-64649000D01*
X42648228Y-64681703D01*
G37*
G36*
X35451000Y-66351000D02*
G01*
X33749000Y-66351000D01*
X33749000Y-64649000D01*
X35451000Y-64649000D01*
X35451000Y-66351000D01*
G37*
G36*
X118648228Y-64681703D02*
G01*
X118803100Y-64745853D01*
X118942481Y-64838985D01*
X119061015Y-64957519D01*
X119154147Y-65096900D01*
X119218297Y-65251772D01*
X119251000Y-65416184D01*
X119251000Y-65583816D01*
X119218297Y-65748228D01*
X119154147Y-65903100D01*
X119061015Y-66042481D01*
X118942481Y-66161015D01*
X118803100Y-66254147D01*
X118648228Y-66318297D01*
X118483816Y-66351000D01*
X118316184Y-66351000D01*
X118151772Y-66318297D01*
X117996900Y-66254147D01*
X117857519Y-66161015D01*
X117738985Y-66042481D01*
X117645853Y-65903100D01*
X117581703Y-65748228D01*
X117549000Y-65583816D01*
X117549000Y-65416184D01*
X117581703Y-65251772D01*
X117645853Y-65096900D01*
X117738985Y-64957519D01*
X117857519Y-64838985D01*
X117996900Y-64745853D01*
X118151772Y-64681703D01*
X118316184Y-64649000D01*
X118483816Y-64649000D01*
X118648228Y-64681703D01*
G37*
G36*
X111451000Y-66351000D02*
G01*
X109749000Y-66351000D01*
X109749000Y-64649000D01*
X111451000Y-64649000D01*
X111451000Y-66351000D01*
G37*
G36*
X92451000Y-66351000D02*
G01*
X90749000Y-66351000D01*
X90749000Y-64649000D01*
X92451000Y-64649000D01*
X92451000Y-66351000D01*
G37*
G36*
X61648228Y-64681703D02*
G01*
X61803100Y-64745853D01*
X61942481Y-64838985D01*
X62061015Y-64957519D01*
X62154147Y-65096900D01*
X62218297Y-65251772D01*
X62251000Y-65416184D01*
X62251000Y-65583816D01*
X62218297Y-65748228D01*
X62154147Y-65903100D01*
X62061015Y-66042481D01*
X61942481Y-66161015D01*
X61803100Y-66254147D01*
X61648228Y-66318297D01*
X61483816Y-66351000D01*
X61316184Y-66351000D01*
X61151772Y-66318297D01*
X60996900Y-66254147D01*
X60857519Y-66161015D01*
X60738985Y-66042481D01*
X60645853Y-65903100D01*
X60581703Y-65748228D01*
X60549000Y-65583816D01*
X60549000Y-65416184D01*
X60581703Y-65251772D01*
X60645853Y-65096900D01*
X60738985Y-64957519D01*
X60857519Y-64838985D01*
X60996900Y-64745853D01*
X61151772Y-64681703D01*
X61316184Y-64649000D01*
X61483816Y-64649000D01*
X61648228Y-64681703D01*
G37*
G36*
X73451000Y-66351000D02*
G01*
X71749000Y-66351000D01*
X71749000Y-64649000D01*
X73451000Y-64649000D01*
X73451000Y-66351000D01*
G37*
G36*
X80648228Y-64681703D02*
G01*
X80803100Y-64745853D01*
X80942481Y-64838985D01*
X81061015Y-64957519D01*
X81154147Y-65096900D01*
X81218297Y-65251772D01*
X81251000Y-65416184D01*
X81251000Y-65583816D01*
X81218297Y-65748228D01*
X81154147Y-65903100D01*
X81061015Y-66042481D01*
X80942481Y-66161015D01*
X80803100Y-66254147D01*
X80648228Y-66318297D01*
X80483816Y-66351000D01*
X80316184Y-66351000D01*
X80151772Y-66318297D01*
X79996900Y-66254147D01*
X79857519Y-66161015D01*
X79738985Y-66042481D01*
X79645853Y-65903100D01*
X79581703Y-65748228D01*
X79549000Y-65583816D01*
X79549000Y-65416184D01*
X79581703Y-65251772D01*
X79645853Y-65096900D01*
X79738985Y-64957519D01*
X79857519Y-64838985D01*
X79996900Y-64745853D01*
X80151772Y-64681703D01*
X80316184Y-64649000D01*
X80483816Y-64649000D01*
X80648228Y-64681703D01*
G37*
G36*
X137648228Y-64681703D02*
G01*
X137803100Y-64745853D01*
X137942481Y-64838985D01*
X138061015Y-64957519D01*
X138154147Y-65096900D01*
X138218297Y-65251772D01*
X138251000Y-65416184D01*
X138251000Y-65583816D01*
X138218297Y-65748228D01*
X138154147Y-65903100D01*
X138061015Y-66042481D01*
X137942481Y-66161015D01*
X137803100Y-66254147D01*
X137648228Y-66318297D01*
X137483816Y-66351000D01*
X137316184Y-66351000D01*
X137151772Y-66318297D01*
X136996900Y-66254147D01*
X136857519Y-66161015D01*
X136738985Y-66042481D01*
X136645853Y-65903100D01*
X136581703Y-65748228D01*
X136549000Y-65583816D01*
X136549000Y-65416184D01*
X136581703Y-65251772D01*
X136645853Y-65096900D01*
X136738985Y-64957519D01*
X136857519Y-64838985D01*
X136996900Y-64745853D01*
X137151772Y-64681703D01*
X137316184Y-64649000D01*
X137483816Y-64649000D01*
X137648228Y-64681703D01*
G37*
G36*
X99648228Y-64681703D02*
G01*
X99803100Y-64745853D01*
X99942481Y-64838985D01*
X100061015Y-64957519D01*
X100154147Y-65096900D01*
X100218297Y-65251772D01*
X100251000Y-65416184D01*
X100251000Y-65583816D01*
X100218297Y-65748228D01*
X100154147Y-65903100D01*
X100061015Y-66042481D01*
X99942481Y-66161015D01*
X99803100Y-66254147D01*
X99648228Y-66318297D01*
X99483816Y-66351000D01*
X99316184Y-66351000D01*
X99151772Y-66318297D01*
X98996900Y-66254147D01*
X98857519Y-66161015D01*
X98738985Y-66042481D01*
X98645853Y-65903100D01*
X98581703Y-65748228D01*
X98549000Y-65583816D01*
X98549000Y-65416184D01*
X98581703Y-65251772D01*
X98645853Y-65096900D01*
X98738985Y-64957519D01*
X98857519Y-64838985D01*
X98996900Y-64745853D01*
X99151772Y-64681703D01*
X99316184Y-64649000D01*
X99483816Y-64649000D01*
X99648228Y-64681703D01*
G37*
G36*
X54451000Y-66351000D02*
G01*
X52749000Y-66351000D01*
X52749000Y-64649000D01*
X54451000Y-64649000D01*
X54451000Y-66351000D01*
G37*
G36*
X73349575Y-51851286D02*
G01*
X73600086Y-51905333D01*
X73733357Y-51963074D01*
X73835239Y-52007215D01*
X73946688Y-52084314D01*
X74045996Y-52153014D01*
X74045998Y-52153016D01*
X74224262Y-52337130D01*
X74363180Y-52552483D01*
X74457419Y-52790804D01*
X74490019Y-52969753D01*
X74503351Y-53042928D01*
X74499213Y-53299169D01*
X74445166Y-53549680D01*
X74368813Y-53725911D01*
X73495846Y-55297549D01*
X73386579Y-55455497D01*
X73386577Y-55455499D01*
X73202463Y-55633763D01*
X73017953Y-55752785D01*
X72987108Y-55772682D01*
X72964546Y-55781603D01*
X72748789Y-55866920D01*
X72569840Y-55899520D01*
X72496665Y-55912852D01*
X72240425Y-55908714D01*
X71989914Y-55854667D01*
X71856643Y-55796926D01*
X71754761Y-55752785D01*
X71643312Y-55675686D01*
X71544004Y-55606986D01*
X71544002Y-55606984D01*
X71365738Y-55422870D01*
X71226820Y-55207517D01*
X71132581Y-54969196D01*
X71099981Y-54790247D01*
X71086649Y-54717072D01*
X71090787Y-54460832D01*
X71144834Y-54210321D01*
X71221187Y-54034090D01*
X72094154Y-52462451D01*
X72203421Y-52304503D01*
X72203423Y-52304501D01*
X72387537Y-52126237D01*
X72602889Y-51987318D01*
X72841210Y-51893080D01*
X73020159Y-51860480D01*
X73093334Y-51847148D01*
X73349575Y-51851286D01*
G37*
G36*
X111449575Y-51851286D02*
G01*
X111700086Y-51905333D01*
X111833357Y-51963074D01*
X111935239Y-52007215D01*
X112046688Y-52084314D01*
X112145996Y-52153014D01*
X112145998Y-52153016D01*
X112324262Y-52337130D01*
X112463180Y-52552483D01*
X112557419Y-52790804D01*
X112590019Y-52969753D01*
X112603351Y-53042928D01*
X112599213Y-53299169D01*
X112545166Y-53549680D01*
X112468813Y-53725911D01*
X111595846Y-55297549D01*
X111486579Y-55455497D01*
X111486577Y-55455499D01*
X111302463Y-55633763D01*
X111117953Y-55752785D01*
X111087108Y-55772682D01*
X111064546Y-55781603D01*
X110848789Y-55866920D01*
X110669840Y-55899520D01*
X110596665Y-55912852D01*
X110340425Y-55908714D01*
X110089914Y-55854667D01*
X109956643Y-55796926D01*
X109854761Y-55752785D01*
X109743312Y-55675686D01*
X109644004Y-55606986D01*
X109644002Y-55606984D01*
X109465738Y-55422870D01*
X109326820Y-55207517D01*
X109232581Y-54969196D01*
X109199981Y-54790247D01*
X109186649Y-54717072D01*
X109190787Y-54460832D01*
X109244834Y-54210321D01*
X109321187Y-54034090D01*
X110194154Y-52462451D01*
X110303421Y-52304503D01*
X110303423Y-52304501D01*
X110487537Y-52126237D01*
X110702889Y-51987318D01*
X110941210Y-51893080D01*
X111120159Y-51860480D01*
X111193334Y-51847148D01*
X111449575Y-51851286D01*
G37*
G36*
X92399575Y-51851286D02*
G01*
X92650086Y-51905333D01*
X92783357Y-51963074D01*
X92885239Y-52007215D01*
X92996688Y-52084314D01*
X93095996Y-52153014D01*
X93095998Y-52153016D01*
X93274262Y-52337130D01*
X93413180Y-52552483D01*
X93507419Y-52790804D01*
X93540019Y-52969753D01*
X93553351Y-53042928D01*
X93549213Y-53299169D01*
X93495166Y-53549680D01*
X93418813Y-53725911D01*
X92545846Y-55297549D01*
X92436579Y-55455497D01*
X92436577Y-55455499D01*
X92252463Y-55633763D01*
X92067953Y-55752785D01*
X92037108Y-55772682D01*
X92014546Y-55781603D01*
X91798789Y-55866920D01*
X91619840Y-55899520D01*
X91546665Y-55912852D01*
X91290425Y-55908714D01*
X91039914Y-55854667D01*
X90906643Y-55796926D01*
X90804761Y-55752785D01*
X90693312Y-55675686D01*
X90594004Y-55606986D01*
X90594002Y-55606984D01*
X90415738Y-55422870D01*
X90276820Y-55207517D01*
X90182581Y-54969196D01*
X90149981Y-54790247D01*
X90136649Y-54717072D01*
X90140787Y-54460832D01*
X90194834Y-54210321D01*
X90271187Y-54034090D01*
X91144154Y-52462451D01*
X91253421Y-52304503D01*
X91253423Y-52304501D01*
X91437537Y-52126237D01*
X91652889Y-51987318D01*
X91891210Y-51893080D01*
X92070159Y-51860480D01*
X92143334Y-51847148D01*
X92399575Y-51851286D01*
G37*
G36*
X130499575Y-51851286D02*
G01*
X130750086Y-51905333D01*
X130883357Y-51963074D01*
X130985239Y-52007215D01*
X131096688Y-52084314D01*
X131195996Y-52153014D01*
X131195998Y-52153016D01*
X131374262Y-52337130D01*
X131513180Y-52552483D01*
X131607419Y-52790804D01*
X131640019Y-52969753D01*
X131653351Y-53042928D01*
X131649213Y-53299169D01*
X131595166Y-53549680D01*
X131518813Y-53725911D01*
X130645846Y-55297549D01*
X130536579Y-55455497D01*
X130536577Y-55455499D01*
X130352463Y-55633763D01*
X130167953Y-55752785D01*
X130137108Y-55772682D01*
X130114546Y-55781603D01*
X129898789Y-55866920D01*
X129719840Y-55899520D01*
X129646665Y-55912852D01*
X129390425Y-55908714D01*
X129139914Y-55854667D01*
X129006643Y-55796926D01*
X128904761Y-55752785D01*
X128793312Y-55675686D01*
X128694004Y-55606986D01*
X128694002Y-55606984D01*
X128515738Y-55422870D01*
X128376820Y-55207517D01*
X128282581Y-54969196D01*
X128249981Y-54790247D01*
X128236649Y-54717072D01*
X128240787Y-54460832D01*
X128294834Y-54210321D01*
X128371187Y-54034090D01*
X129244154Y-52462451D01*
X129353421Y-52304503D01*
X129353423Y-52304501D01*
X129537537Y-52126237D01*
X129752889Y-51987318D01*
X129991210Y-51893080D01*
X130170159Y-51860480D01*
X130243334Y-51847148D01*
X130499575Y-51851286D01*
G37*
G36*
X35249575Y-51851286D02*
G01*
X35500086Y-51905333D01*
X35633357Y-51963074D01*
X35735239Y-52007215D01*
X35846688Y-52084314D01*
X35945996Y-52153014D01*
X35945998Y-52153016D01*
X36124262Y-52337130D01*
X36263180Y-52552483D01*
X36357419Y-52790804D01*
X36390019Y-52969753D01*
X36403351Y-53042928D01*
X36399213Y-53299169D01*
X36345166Y-53549680D01*
X36268813Y-53725911D01*
X35395846Y-55297549D01*
X35286579Y-55455497D01*
X35286577Y-55455499D01*
X35102463Y-55633763D01*
X34917953Y-55752785D01*
X34887108Y-55772682D01*
X34864546Y-55781603D01*
X34648789Y-55866920D01*
X34469840Y-55899520D01*
X34396665Y-55912852D01*
X34140425Y-55908714D01*
X33889914Y-55854667D01*
X33756643Y-55796926D01*
X33654761Y-55752785D01*
X33543312Y-55675686D01*
X33444004Y-55606986D01*
X33444002Y-55606984D01*
X33265738Y-55422870D01*
X33126820Y-55207517D01*
X33032581Y-54969196D01*
X32999981Y-54790247D01*
X32986649Y-54717072D01*
X32990787Y-54460832D01*
X33044834Y-54210321D01*
X33121187Y-54034090D01*
X33994154Y-52462451D01*
X34103421Y-52304503D01*
X34103423Y-52304501D01*
X34287537Y-52126237D01*
X34502889Y-51987318D01*
X34741210Y-51893080D01*
X34920159Y-51860480D01*
X34993334Y-51847148D01*
X35249575Y-51851286D01*
G37*
G36*
X54299575Y-51851286D02*
G01*
X54550086Y-51905333D01*
X54683357Y-51963074D01*
X54785239Y-52007215D01*
X54896688Y-52084314D01*
X54995996Y-52153014D01*
X54995998Y-52153016D01*
X55174262Y-52337130D01*
X55313180Y-52552483D01*
X55407419Y-52790804D01*
X55440019Y-52969753D01*
X55453351Y-53042928D01*
X55449213Y-53299169D01*
X55395166Y-53549680D01*
X55318813Y-53725911D01*
X54445846Y-55297549D01*
X54336579Y-55455497D01*
X54336577Y-55455499D01*
X54152463Y-55633763D01*
X53967953Y-55752785D01*
X53937108Y-55772682D01*
X53914546Y-55781603D01*
X53698789Y-55866920D01*
X53519840Y-55899520D01*
X53446665Y-55912852D01*
X53190425Y-55908714D01*
X52939914Y-55854667D01*
X52806643Y-55796926D01*
X52704761Y-55752785D01*
X52593312Y-55675686D01*
X52494004Y-55606986D01*
X52494002Y-55606984D01*
X52315738Y-55422870D01*
X52176820Y-55207517D01*
X52082581Y-54969196D01*
X52049981Y-54790247D01*
X52036649Y-54717072D01*
X52040787Y-54460832D01*
X52094834Y-54210321D01*
X52171187Y-54034090D01*
X53044154Y-52462451D01*
X53153421Y-52304503D01*
X53153423Y-52304501D01*
X53337537Y-52126237D01*
X53552889Y-51987318D01*
X53791210Y-51893080D01*
X53970159Y-51860480D01*
X54043334Y-51847148D01*
X54299575Y-51851286D01*
G37*
G36*
X124224549Y-52871116D02*
G01*
X124335734Y-52893232D01*
X124545203Y-52979997D01*
X124733720Y-53105960D01*
X124894040Y-53266280D01*
X125020003Y-53454797D01*
X125106768Y-53664266D01*
X125151000Y-53886636D01*
X125151000Y-54113364D01*
X125106768Y-54335734D01*
X125020003Y-54545203D01*
X124894040Y-54733720D01*
X124733720Y-54894040D01*
X124545203Y-55020003D01*
X124335734Y-55106768D01*
X124224549Y-55128884D01*
X124113365Y-55151000D01*
X123886635Y-55151000D01*
X123775451Y-55128884D01*
X123664266Y-55106768D01*
X123454797Y-55020003D01*
X123266280Y-54894040D01*
X123105960Y-54733720D01*
X122979997Y-54545203D01*
X122893232Y-54335734D01*
X122849000Y-54113364D01*
X122849000Y-53886636D01*
X122893232Y-53664266D01*
X122979997Y-53454797D01*
X123105960Y-53266280D01*
X123266280Y-53105960D01*
X123454797Y-52979997D01*
X123664266Y-52893232D01*
X123775451Y-52871116D01*
X123886635Y-52849000D01*
X124113365Y-52849000D01*
X124224549Y-52871116D01*
G37*
G36*
X47724857Y-51851286D02*
G01*
X47935734Y-51893232D01*
X48145203Y-51979997D01*
X48333720Y-52105960D01*
X48494040Y-52266280D01*
X48541380Y-52337130D01*
X48620004Y-52454799D01*
X48706768Y-52664267D01*
X48737064Y-52816572D01*
X48751000Y-52886636D01*
X48751000Y-53113364D01*
X48713874Y-53300012D01*
X48706768Y-53335733D01*
X48635119Y-53508711D01*
X48620003Y-53545203D01*
X48494040Y-53733720D01*
X48333720Y-53894040D01*
X48145203Y-54020003D01*
X47935734Y-54106768D01*
X47824549Y-54128884D01*
X47713365Y-54151000D01*
X47486635Y-54151000D01*
X47375451Y-54128884D01*
X47264266Y-54106768D01*
X47054797Y-54020003D01*
X46866280Y-53894040D01*
X46705960Y-53733720D01*
X46579997Y-53545203D01*
X46564882Y-53508711D01*
X46493232Y-53335733D01*
X46486127Y-53300012D01*
X46449000Y-53113364D01*
X46449000Y-52886636D01*
X46462937Y-52816572D01*
X46493232Y-52664267D01*
X46579996Y-52454799D01*
X46658620Y-52337130D01*
X46705960Y-52266280D01*
X46866280Y-52105960D01*
X47054797Y-51979997D01*
X47264266Y-51893232D01*
X47475143Y-51851286D01*
X47486635Y-51849000D01*
X47713365Y-51849000D01*
X47724857Y-51851286D01*
G37*
G36*
X60031379Y-50808813D02*
G01*
X60270991Y-50899713D01*
X60488265Y-51035613D01*
X60674852Y-51211288D01*
X60786209Y-51367550D01*
X60823580Y-51419990D01*
X60928735Y-51653697D01*
X60928736Y-51653701D01*
X60986276Y-51903428D01*
X60992058Y-52095394D01*
X60980408Y-52266280D01*
X60943916Y-52801571D01*
X60912135Y-52990983D01*
X60821235Y-53230595D01*
X60755473Y-53335734D01*
X60685335Y-53447869D01*
X60509660Y-53634456D01*
X60353398Y-53745813D01*
X60300958Y-53783184D01*
X60067251Y-53888339D01*
X60067247Y-53888340D01*
X59817521Y-53945880D01*
X59561366Y-53953594D01*
X59561362Y-53953594D01*
X59308621Y-53911187D01*
X59069009Y-53820287D01*
X58851735Y-53684387D01*
X58798703Y-53634456D01*
X58665148Y-53508712D01*
X58553791Y-53352450D01*
X58516420Y-53300010D01*
X58411265Y-53066303D01*
X58391379Y-52979996D01*
X58353724Y-52816572D01*
X58347942Y-52624608D01*
X58396084Y-51918428D01*
X58407350Y-51851286D01*
X58427865Y-51729017D01*
X58518765Y-51489405D01*
X58654665Y-51272131D01*
X58711950Y-51211288D01*
X58830340Y-51085544D01*
X58986602Y-50974187D01*
X59039042Y-50936816D01*
X59272749Y-50831661D01*
X59272753Y-50831660D01*
X59522479Y-50774120D01*
X59778634Y-50766406D01*
X59778638Y-50766406D01*
X60031379Y-50808813D01*
G37*
G36*
X117181379Y-50808813D02*
G01*
X117420991Y-50899713D01*
X117638265Y-51035613D01*
X117824852Y-51211288D01*
X117936209Y-51367550D01*
X117973580Y-51419990D01*
X118078735Y-51653697D01*
X118078736Y-51653701D01*
X118136276Y-51903428D01*
X118142058Y-52095394D01*
X118130408Y-52266280D01*
X118093916Y-52801571D01*
X118062135Y-52990983D01*
X117971235Y-53230595D01*
X117905473Y-53335734D01*
X117835335Y-53447869D01*
X117659660Y-53634456D01*
X117503398Y-53745813D01*
X117450958Y-53783184D01*
X117217251Y-53888339D01*
X117217247Y-53888340D01*
X116967521Y-53945880D01*
X116711366Y-53953594D01*
X116711362Y-53953594D01*
X116458621Y-53911187D01*
X116219009Y-53820287D01*
X116001735Y-53684387D01*
X115948703Y-53634456D01*
X115815148Y-53508712D01*
X115703791Y-53352450D01*
X115666420Y-53300010D01*
X115561265Y-53066303D01*
X115541379Y-52979996D01*
X115503724Y-52816572D01*
X115497942Y-52624608D01*
X115546084Y-51918428D01*
X115557350Y-51851286D01*
X115577865Y-51729017D01*
X115668765Y-51489405D01*
X115804665Y-51272131D01*
X115861950Y-51211288D01*
X115980340Y-51085544D01*
X116136602Y-50974187D01*
X116189042Y-50936816D01*
X116422749Y-50831661D01*
X116422753Y-50831660D01*
X116672479Y-50774120D01*
X116928634Y-50766406D01*
X116928638Y-50766406D01*
X117181379Y-50808813D01*
G37*
G36*
X40981379Y-50808813D02*
G01*
X41220991Y-50899713D01*
X41438265Y-51035613D01*
X41624852Y-51211288D01*
X41736209Y-51367550D01*
X41773580Y-51419990D01*
X41878735Y-51653697D01*
X41878736Y-51653701D01*
X41936276Y-51903428D01*
X41942058Y-52095394D01*
X41930408Y-52266280D01*
X41893916Y-52801571D01*
X41862135Y-52990983D01*
X41771235Y-53230595D01*
X41705473Y-53335734D01*
X41635335Y-53447869D01*
X41459660Y-53634456D01*
X41303398Y-53745813D01*
X41250958Y-53783184D01*
X41017251Y-53888339D01*
X41017247Y-53888340D01*
X40767521Y-53945880D01*
X40511366Y-53953594D01*
X40511362Y-53953594D01*
X40258621Y-53911187D01*
X40019009Y-53820287D01*
X39801735Y-53684387D01*
X39748703Y-53634456D01*
X39615148Y-53508712D01*
X39503791Y-53352450D01*
X39466420Y-53300010D01*
X39361265Y-53066303D01*
X39341379Y-52979996D01*
X39303724Y-52816572D01*
X39297942Y-52624608D01*
X39346084Y-51918428D01*
X39357350Y-51851286D01*
X39377865Y-51729017D01*
X39468765Y-51489405D01*
X39604665Y-51272131D01*
X39661950Y-51211288D01*
X39780340Y-51085544D01*
X39936602Y-50974187D01*
X39989042Y-50936816D01*
X40222749Y-50831661D01*
X40222753Y-50831660D01*
X40472479Y-50774120D01*
X40728634Y-50766406D01*
X40728638Y-50766406D01*
X40981379Y-50808813D01*
G37*
G36*
X79081379Y-50808813D02*
G01*
X79320991Y-50899713D01*
X79538265Y-51035613D01*
X79724852Y-51211288D01*
X79836209Y-51367550D01*
X79873580Y-51419990D01*
X79978735Y-51653697D01*
X79978736Y-51653701D01*
X80036276Y-51903428D01*
X80042058Y-52095394D01*
X80030408Y-52266280D01*
X79993916Y-52801571D01*
X79962135Y-52990983D01*
X79871235Y-53230595D01*
X79805473Y-53335734D01*
X79735335Y-53447869D01*
X79559660Y-53634456D01*
X79403398Y-53745813D01*
X79350958Y-53783184D01*
X79117251Y-53888339D01*
X79117247Y-53888340D01*
X78867521Y-53945880D01*
X78611366Y-53953594D01*
X78611362Y-53953594D01*
X78358621Y-53911187D01*
X78119009Y-53820287D01*
X77901735Y-53684387D01*
X77848703Y-53634456D01*
X77715148Y-53508712D01*
X77603791Y-53352450D01*
X77566420Y-53300010D01*
X77461265Y-53066303D01*
X77441379Y-52979996D01*
X77403724Y-52816572D01*
X77397942Y-52624608D01*
X77446084Y-51918428D01*
X77457350Y-51851286D01*
X77477865Y-51729017D01*
X77568765Y-51489405D01*
X77704665Y-51272131D01*
X77761950Y-51211288D01*
X77880340Y-51085544D01*
X78036602Y-50974187D01*
X78089042Y-50936816D01*
X78322749Y-50831661D01*
X78322753Y-50831660D01*
X78572479Y-50774120D01*
X78828634Y-50766406D01*
X78828638Y-50766406D01*
X79081379Y-50808813D01*
G37*
G36*
X98131379Y-50808813D02*
G01*
X98370991Y-50899713D01*
X98588265Y-51035613D01*
X98774852Y-51211288D01*
X98886209Y-51367550D01*
X98923580Y-51419990D01*
X99028735Y-51653697D01*
X99028736Y-51653701D01*
X99086276Y-51903428D01*
X99092058Y-52095394D01*
X99080408Y-52266280D01*
X99043916Y-52801571D01*
X99012135Y-52990983D01*
X98921235Y-53230595D01*
X98855473Y-53335734D01*
X98785335Y-53447869D01*
X98609660Y-53634456D01*
X98453398Y-53745813D01*
X98400958Y-53783184D01*
X98167251Y-53888339D01*
X98167247Y-53888340D01*
X97917521Y-53945880D01*
X97661366Y-53953594D01*
X97661362Y-53953594D01*
X97408621Y-53911187D01*
X97169009Y-53820287D01*
X96951735Y-53684387D01*
X96898703Y-53634456D01*
X96765148Y-53508712D01*
X96653791Y-53352450D01*
X96616420Y-53300010D01*
X96511265Y-53066303D01*
X96491379Y-52979996D01*
X96453724Y-52816572D01*
X96447942Y-52624608D01*
X96496084Y-51918428D01*
X96507350Y-51851286D01*
X96527865Y-51729017D01*
X96618765Y-51489405D01*
X96754665Y-51272131D01*
X96811950Y-51211288D01*
X96930340Y-51085544D01*
X97086602Y-50974187D01*
X97139042Y-50936816D01*
X97372749Y-50831661D01*
X97372753Y-50831660D01*
X97622479Y-50774120D01*
X97878634Y-50766406D01*
X97878638Y-50766406D01*
X98131379Y-50808813D01*
G37*
G36*
X136231379Y-50808813D02*
G01*
X136470991Y-50899713D01*
X136688265Y-51035613D01*
X136874852Y-51211288D01*
X136986209Y-51367550D01*
X137023580Y-51419990D01*
X137128735Y-51653697D01*
X137128736Y-51653701D01*
X137186276Y-51903428D01*
X137192058Y-52095394D01*
X137180408Y-52266280D01*
X137143916Y-52801571D01*
X137112135Y-52990983D01*
X137021235Y-53230595D01*
X136955473Y-53335734D01*
X136885335Y-53447869D01*
X136709660Y-53634456D01*
X136553398Y-53745813D01*
X136500958Y-53783184D01*
X136267251Y-53888339D01*
X136267247Y-53888340D01*
X136017521Y-53945880D01*
X135761366Y-53953594D01*
X135761362Y-53953594D01*
X135508621Y-53911187D01*
X135269009Y-53820287D01*
X135051735Y-53684387D01*
X134998703Y-53634456D01*
X134865148Y-53508712D01*
X134753791Y-53352450D01*
X134716420Y-53300010D01*
X134611265Y-53066303D01*
X134591379Y-52979996D01*
X134553724Y-52816572D01*
X134547942Y-52624608D01*
X134596084Y-51918428D01*
X134607350Y-51851286D01*
X134627865Y-51729017D01*
X134718765Y-51489405D01*
X134854665Y-51272131D01*
X134911950Y-51211288D01*
X135030340Y-51085544D01*
X135186602Y-50974187D01*
X135239042Y-50936816D01*
X135472749Y-50831661D01*
X135472753Y-50831660D01*
X135722479Y-50774120D01*
X135978634Y-50766406D01*
X135978638Y-50766406D01*
X136231379Y-50808813D01*
G37*
G36*
X58203765Y-44818620D02*
G01*
X58243320Y-44835004D01*
X58393288Y-44897123D01*
X58563854Y-45011092D01*
X58708908Y-45156146D01*
X58822877Y-45326712D01*
X58901380Y-45516235D01*
X58941400Y-45717431D01*
X58941400Y-45922569D01*
X58901380Y-46123765D01*
X58822877Y-46313288D01*
X58708908Y-46483854D01*
X58563854Y-46628908D01*
X58393288Y-46742877D01*
X58393287Y-46742878D01*
X58393286Y-46742878D01*
X58203765Y-46821380D01*
X58002570Y-46861400D01*
X57797430Y-46861400D01*
X57596235Y-46821380D01*
X57406714Y-46742878D01*
X57406713Y-46742878D01*
X57406712Y-46742877D01*
X57236146Y-46628908D01*
X57091092Y-46483854D01*
X56977123Y-46313288D01*
X56898620Y-46123765D01*
X56858600Y-45922569D01*
X56858600Y-45717431D01*
X56898620Y-45516235D01*
X56977123Y-45326712D01*
X57091092Y-45156146D01*
X57236146Y-45011092D01*
X57406712Y-44897123D01*
X57556681Y-44835004D01*
X57596235Y-44818620D01*
X57797430Y-44778600D01*
X58002570Y-44778600D01*
X58203765Y-44818620D01*
G37*
G36*
X48043765Y-44818620D02*
G01*
X48083320Y-44835004D01*
X48233288Y-44897123D01*
X48403854Y-45011092D01*
X48548908Y-45156146D01*
X48662877Y-45326712D01*
X48741380Y-45516235D01*
X48781400Y-45717431D01*
X48781400Y-45922569D01*
X48741380Y-46123765D01*
X48662877Y-46313288D01*
X48548908Y-46483854D01*
X48403854Y-46628908D01*
X48233288Y-46742877D01*
X48233287Y-46742878D01*
X48233286Y-46742878D01*
X48043765Y-46821380D01*
X47842570Y-46861400D01*
X47637430Y-46861400D01*
X47436235Y-46821380D01*
X47246714Y-46742878D01*
X47246713Y-46742878D01*
X47246712Y-46742877D01*
X47076146Y-46628908D01*
X46931092Y-46483854D01*
X46817123Y-46313288D01*
X46738620Y-46123765D01*
X46698600Y-45922569D01*
X46698600Y-45717431D01*
X46738620Y-45516235D01*
X46817123Y-45326712D01*
X46931092Y-45156146D01*
X47076146Y-45011092D01*
X47246712Y-44897123D01*
X47396681Y-44835004D01*
X47436235Y-44818620D01*
X47637430Y-44778600D01*
X47842570Y-44778600D01*
X48043765Y-44818620D01*
G37*
G36*
X53123765Y-44818620D02*
G01*
X53163320Y-44835004D01*
X53313288Y-44897123D01*
X53483854Y-45011092D01*
X53628908Y-45156146D01*
X53742877Y-45326712D01*
X53821380Y-45516235D01*
X53861400Y-45717431D01*
X53861400Y-45922569D01*
X53821380Y-46123765D01*
X53742877Y-46313288D01*
X53628908Y-46483854D01*
X53483854Y-46628908D01*
X53313288Y-46742877D01*
X53313287Y-46742878D01*
X53313286Y-46742878D01*
X53123765Y-46821380D01*
X52922570Y-46861400D01*
X52717430Y-46861400D01*
X52516235Y-46821380D01*
X52326714Y-46742878D01*
X52326713Y-46742878D01*
X52326712Y-46742877D01*
X52156146Y-46628908D01*
X52011092Y-46483854D01*
X51897123Y-46313288D01*
X51818620Y-46123765D01*
X51778600Y-45922569D01*
X51778600Y-45717431D01*
X51818620Y-45516235D01*
X51897123Y-45326712D01*
X52011092Y-45156146D01*
X52156146Y-45011092D01*
X52326712Y-44897123D01*
X52476681Y-44835004D01*
X52516235Y-44818620D01*
X52717430Y-44778600D01*
X52922570Y-44778600D01*
X53123765Y-44818620D01*
G37*
G36*
X55663765Y-44818620D02*
G01*
X55703320Y-44835004D01*
X55853288Y-44897123D01*
X56023854Y-45011092D01*
X56168908Y-45156146D01*
X56282877Y-45326712D01*
X56361380Y-45516235D01*
X56401400Y-45717431D01*
X56401400Y-45922569D01*
X56361380Y-46123765D01*
X56282877Y-46313288D01*
X56168908Y-46483854D01*
X56023854Y-46628908D01*
X55853288Y-46742877D01*
X55853287Y-46742878D01*
X55853286Y-46742878D01*
X55663765Y-46821380D01*
X55462570Y-46861400D01*
X55257430Y-46861400D01*
X55056235Y-46821380D01*
X54866714Y-46742878D01*
X54866713Y-46742878D01*
X54866712Y-46742877D01*
X54696146Y-46628908D01*
X54551092Y-46483854D01*
X54437123Y-46313288D01*
X54358620Y-46123765D01*
X54318600Y-45922569D01*
X54318600Y-45717431D01*
X54358620Y-45516235D01*
X54437123Y-45326712D01*
X54551092Y-45156146D01*
X54696146Y-45011092D01*
X54866712Y-44897123D01*
X55016681Y-44835004D01*
X55056235Y-44818620D01*
X55257430Y-44778600D01*
X55462570Y-44778600D01*
X55663765Y-44818620D01*
G37*
G36*
X60743765Y-44818620D02*
G01*
X60783320Y-44835004D01*
X60933288Y-44897123D01*
X61103854Y-45011092D01*
X61248908Y-45156146D01*
X61362877Y-45326712D01*
X61441380Y-45516235D01*
X61481400Y-45717431D01*
X61481400Y-45922569D01*
X61441380Y-46123765D01*
X61362877Y-46313288D01*
X61248908Y-46483854D01*
X61103854Y-46628908D01*
X60933288Y-46742877D01*
X60933287Y-46742878D01*
X60933286Y-46742878D01*
X60743765Y-46821380D01*
X60542570Y-46861400D01*
X60337430Y-46861400D01*
X60136235Y-46821380D01*
X59946714Y-46742878D01*
X59946713Y-46742878D01*
X59946712Y-46742877D01*
X59776146Y-46628908D01*
X59631092Y-46483854D01*
X59517123Y-46313288D01*
X59438620Y-46123765D01*
X59398600Y-45922569D01*
X59398600Y-45717431D01*
X59438620Y-45516235D01*
X59517123Y-45326712D01*
X59631092Y-45156146D01*
X59776146Y-45011092D01*
X59946712Y-44897123D01*
X60096681Y-44835004D01*
X60136235Y-44818620D01*
X60337430Y-44778600D01*
X60542570Y-44778600D01*
X60743765Y-44818620D01*
G37*
G36*
X50583765Y-44818620D02*
G01*
X50623320Y-44835004D01*
X50773288Y-44897123D01*
X50943854Y-45011092D01*
X51088908Y-45156146D01*
X51202877Y-45326712D01*
X51281380Y-45516235D01*
X51321400Y-45717431D01*
X51321400Y-45922569D01*
X51281380Y-46123765D01*
X51202877Y-46313288D01*
X51088908Y-46483854D01*
X50943854Y-46628908D01*
X50773288Y-46742877D01*
X50773287Y-46742878D01*
X50773286Y-46742878D01*
X50583765Y-46821380D01*
X50382570Y-46861400D01*
X50177430Y-46861400D01*
X49976235Y-46821380D01*
X49786714Y-46742878D01*
X49786713Y-46742878D01*
X49786712Y-46742877D01*
X49616146Y-46628908D01*
X49471092Y-46483854D01*
X49357123Y-46313288D01*
X49278620Y-46123765D01*
X49238600Y-45922569D01*
X49238600Y-45717431D01*
X49278620Y-45516235D01*
X49357123Y-45326712D01*
X49471092Y-45156146D01*
X49616146Y-45011092D01*
X49786712Y-44897123D01*
X49936681Y-44835004D01*
X49976235Y-44818620D01*
X50177430Y-44778600D01*
X50382570Y-44778600D01*
X50583765Y-44818620D01*
G37*
G36*
X32803765Y-44818620D02*
G01*
X32843320Y-44835004D01*
X32993288Y-44897123D01*
X33163854Y-45011092D01*
X33308908Y-45156146D01*
X33422877Y-45326712D01*
X33501380Y-45516235D01*
X33541400Y-45717431D01*
X33541400Y-45922569D01*
X33501380Y-46123765D01*
X33422877Y-46313288D01*
X33308908Y-46483854D01*
X33163854Y-46628908D01*
X32993288Y-46742877D01*
X32993287Y-46742878D01*
X32993286Y-46742878D01*
X32803765Y-46821380D01*
X32602570Y-46861400D01*
X32397430Y-46861400D01*
X32196235Y-46821380D01*
X32006714Y-46742878D01*
X32006713Y-46742878D01*
X32006712Y-46742877D01*
X31836146Y-46628908D01*
X31691092Y-46483854D01*
X31577123Y-46313288D01*
X31498620Y-46123765D01*
X31458600Y-45922569D01*
X31458600Y-45717431D01*
X31498620Y-45516235D01*
X31577123Y-45326712D01*
X31691092Y-45156146D01*
X31836146Y-45011092D01*
X32006712Y-44897123D01*
X32156681Y-44835004D01*
X32196235Y-44818620D01*
X32397430Y-44778600D01*
X32602570Y-44778600D01*
X32803765Y-44818620D01*
G37*
G36*
X35343765Y-44818620D02*
G01*
X35383320Y-44835004D01*
X35533288Y-44897123D01*
X35703854Y-45011092D01*
X35848908Y-45156146D01*
X35962877Y-45326712D01*
X36041380Y-45516235D01*
X36081400Y-45717431D01*
X36081400Y-45922569D01*
X36041380Y-46123765D01*
X35962877Y-46313288D01*
X35848908Y-46483854D01*
X35703854Y-46628908D01*
X35533288Y-46742877D01*
X35533287Y-46742878D01*
X35533286Y-46742878D01*
X35343765Y-46821380D01*
X35142570Y-46861400D01*
X34937430Y-46861400D01*
X34736235Y-46821380D01*
X34546714Y-46742878D01*
X34546713Y-46742878D01*
X34546712Y-46742877D01*
X34376146Y-46628908D01*
X34231092Y-46483854D01*
X34117123Y-46313288D01*
X34038620Y-46123765D01*
X33998600Y-45922569D01*
X33998600Y-45717431D01*
X34038620Y-45516235D01*
X34117123Y-45326712D01*
X34231092Y-45156146D01*
X34376146Y-45011092D01*
X34546712Y-44897123D01*
X34696681Y-44835004D01*
X34736235Y-44818620D01*
X34937430Y-44778600D01*
X35142570Y-44778600D01*
X35343765Y-44818620D01*
G37*
G36*
X40423765Y-44818620D02*
G01*
X40463320Y-44835004D01*
X40613288Y-44897123D01*
X40783854Y-45011092D01*
X40928908Y-45156146D01*
X41042877Y-45326712D01*
X41121380Y-45516235D01*
X41161400Y-45717431D01*
X41161400Y-45922569D01*
X41121380Y-46123765D01*
X41042877Y-46313288D01*
X40928908Y-46483854D01*
X40783854Y-46628908D01*
X40613288Y-46742877D01*
X40613287Y-46742878D01*
X40613286Y-46742878D01*
X40423765Y-46821380D01*
X40222570Y-46861400D01*
X40017430Y-46861400D01*
X39816235Y-46821380D01*
X39626714Y-46742878D01*
X39626713Y-46742878D01*
X39626712Y-46742877D01*
X39456146Y-46628908D01*
X39311092Y-46483854D01*
X39197123Y-46313288D01*
X39118620Y-46123765D01*
X39078600Y-45922569D01*
X39078600Y-45717431D01*
X39118620Y-45516235D01*
X39197123Y-45326712D01*
X39311092Y-45156146D01*
X39456146Y-45011092D01*
X39626712Y-44897123D01*
X39776681Y-44835004D01*
X39816235Y-44818620D01*
X40017430Y-44778600D01*
X40222570Y-44778600D01*
X40423765Y-44818620D01*
G37*
G36*
X42963765Y-44818620D02*
G01*
X43003320Y-44835004D01*
X43153288Y-44897123D01*
X43323854Y-45011092D01*
X43468908Y-45156146D01*
X43582877Y-45326712D01*
X43661380Y-45516235D01*
X43701400Y-45717431D01*
X43701400Y-45922569D01*
X43661380Y-46123765D01*
X43582877Y-46313288D01*
X43468908Y-46483854D01*
X43323854Y-46628908D01*
X43153288Y-46742877D01*
X43153287Y-46742878D01*
X43153286Y-46742878D01*
X42963765Y-46821380D01*
X42762570Y-46861400D01*
X42557430Y-46861400D01*
X42356235Y-46821380D01*
X42166714Y-46742878D01*
X42166713Y-46742878D01*
X42166712Y-46742877D01*
X41996146Y-46628908D01*
X41851092Y-46483854D01*
X41737123Y-46313288D01*
X41658620Y-46123765D01*
X41618600Y-45922569D01*
X41618600Y-45717431D01*
X41658620Y-45516235D01*
X41737123Y-45326712D01*
X41851092Y-45156146D01*
X41996146Y-45011092D01*
X42166712Y-44897123D01*
X42316681Y-44835004D01*
X42356235Y-44818620D01*
X42557430Y-44778600D01*
X42762570Y-44778600D01*
X42963765Y-44818620D01*
G37*
G36*
X37883765Y-44818620D02*
G01*
X37923320Y-44835004D01*
X38073288Y-44897123D01*
X38243854Y-45011092D01*
X38388908Y-45156146D01*
X38502877Y-45326712D01*
X38581380Y-45516235D01*
X38621400Y-45717431D01*
X38621400Y-45922569D01*
X38581380Y-46123765D01*
X38502877Y-46313288D01*
X38388908Y-46483854D01*
X38243854Y-46628908D01*
X38073288Y-46742877D01*
X38073287Y-46742878D01*
X38073286Y-46742878D01*
X37883765Y-46821380D01*
X37682570Y-46861400D01*
X37477430Y-46861400D01*
X37276235Y-46821380D01*
X37086714Y-46742878D01*
X37086713Y-46742878D01*
X37086712Y-46742877D01*
X36916146Y-46628908D01*
X36771092Y-46483854D01*
X36657123Y-46313288D01*
X36578620Y-46123765D01*
X36538600Y-45922569D01*
X36538600Y-45717431D01*
X36578620Y-45516235D01*
X36657123Y-45326712D01*
X36771092Y-45156146D01*
X36916146Y-45011092D01*
X37086712Y-44897123D01*
X37236681Y-44835004D01*
X37276235Y-44818620D01*
X37477430Y-44778600D01*
X37682570Y-44778600D01*
X37883765Y-44818620D01*
G37*
G36*
X45503765Y-44818620D02*
G01*
X45543320Y-44835004D01*
X45693288Y-44897123D01*
X45863854Y-45011092D01*
X46008908Y-45156146D01*
X46122877Y-45326712D01*
X46201380Y-45516235D01*
X46241400Y-45717431D01*
X46241400Y-45922569D01*
X46201380Y-46123765D01*
X46122877Y-46313288D01*
X46008908Y-46483854D01*
X45863854Y-46628908D01*
X45693288Y-46742877D01*
X45693287Y-46742878D01*
X45693286Y-46742878D01*
X45503765Y-46821380D01*
X45302570Y-46861400D01*
X45097430Y-46861400D01*
X44896235Y-46821380D01*
X44706714Y-46742878D01*
X44706713Y-46742878D01*
X44706712Y-46742877D01*
X44536146Y-46628908D01*
X44391092Y-46483854D01*
X44277123Y-46313288D01*
X44198620Y-46123765D01*
X44158600Y-45922569D01*
X44158600Y-45717431D01*
X44198620Y-45516235D01*
X44277123Y-45326712D01*
X44391092Y-45156146D01*
X44536146Y-45011092D01*
X44706712Y-44897123D01*
X44856681Y-44835004D01*
X44896235Y-44818620D01*
X45097430Y-44778600D01*
X45302570Y-44778600D01*
X45503765Y-44818620D01*
G37*
G36*
X73884549Y-42686116D02*
G01*
X73995734Y-42708232D01*
X74205203Y-42794997D01*
X74393720Y-42920960D01*
X74554040Y-43081280D01*
X74680003Y-43269797D01*
X74766768Y-43479266D01*
X74811000Y-43701636D01*
X74811000Y-43928364D01*
X74766768Y-44150734D01*
X74680003Y-44360203D01*
X74554040Y-44548720D01*
X74393720Y-44709040D01*
X74205203Y-44835003D01*
X73995734Y-44921768D01*
X73884549Y-44943884D01*
X73773365Y-44966000D01*
X73546635Y-44966000D01*
X73435451Y-44943884D01*
X73324266Y-44921768D01*
X73114797Y-44835003D01*
X72926280Y-44709040D01*
X72765960Y-44548720D01*
X72639997Y-44360203D01*
X72553232Y-44150734D01*
X72509000Y-43928364D01*
X72509000Y-43701636D01*
X72553232Y-43479266D01*
X72639997Y-43269797D01*
X72765960Y-43081280D01*
X72926280Y-42920960D01*
X73114797Y-42794997D01*
X73324266Y-42708232D01*
X73435451Y-42686116D01*
X73546635Y-42664000D01*
X73773365Y-42664000D01*
X73884549Y-42686116D01*
G37*
G36*
X98014549Y-42686116D02*
G01*
X98125734Y-42708232D01*
X98335203Y-42794997D01*
X98523720Y-42920960D01*
X98684040Y-43081280D01*
X98810003Y-43269797D01*
X98896768Y-43479266D01*
X98941000Y-43701636D01*
X98941000Y-43928364D01*
X98896768Y-44150734D01*
X98810003Y-44360203D01*
X98684040Y-44548720D01*
X98523720Y-44709040D01*
X98335203Y-44835003D01*
X98125734Y-44921768D01*
X98014549Y-44943884D01*
X97903365Y-44966000D01*
X97676635Y-44966000D01*
X97565451Y-44943884D01*
X97454266Y-44921768D01*
X97244797Y-44835003D01*
X97056280Y-44709040D01*
X96895960Y-44548720D01*
X96769997Y-44360203D01*
X96683232Y-44150734D01*
X96639000Y-43928364D01*
X96639000Y-43701636D01*
X96683232Y-43479266D01*
X96769997Y-43269797D01*
X96895960Y-43081280D01*
X97056280Y-42920960D01*
X97244797Y-42794997D01*
X97454266Y-42708232D01*
X97565451Y-42686116D01*
X97676635Y-42664000D01*
X97903365Y-42664000D01*
X98014549Y-42686116D01*
G37*
G36*
X130263765Y-38768620D02*
G01*
X130453288Y-38847123D01*
X130623854Y-38961092D01*
X130768908Y-39106146D01*
X130882877Y-39276712D01*
X130961380Y-39466235D01*
X131001400Y-39667431D01*
X131001400Y-39872569D01*
X130961380Y-40073765D01*
X130882877Y-40263288D01*
X130768908Y-40433854D01*
X130623854Y-40578908D01*
X130453288Y-40692877D01*
X130453287Y-40692878D01*
X130453286Y-40692878D01*
X130263765Y-40771380D01*
X130062570Y-40811400D01*
X129857430Y-40811400D01*
X129656235Y-40771380D01*
X129466714Y-40692878D01*
X129466713Y-40692878D01*
X129466712Y-40692877D01*
X129296146Y-40578908D01*
X129151092Y-40433854D01*
X129037123Y-40263288D01*
X128958620Y-40073765D01*
X128918600Y-39872569D01*
X128918600Y-39667431D01*
X128958620Y-39466235D01*
X129037123Y-39276712D01*
X129151092Y-39106146D01*
X129296146Y-38961092D01*
X129466712Y-38847123D01*
X129656235Y-38768620D01*
X129857430Y-38728600D01*
X130062570Y-38728600D01*
X130263765Y-38768620D01*
G37*
G36*
X35223765Y-38768620D02*
G01*
X35413288Y-38847123D01*
X35583854Y-38961092D01*
X35728908Y-39106146D01*
X35842877Y-39276712D01*
X35921380Y-39466235D01*
X35961400Y-39667431D01*
X35961400Y-39872569D01*
X35921380Y-40073765D01*
X35842877Y-40263288D01*
X35728908Y-40433854D01*
X35583854Y-40578908D01*
X35413288Y-40692877D01*
X35413287Y-40692878D01*
X35413286Y-40692878D01*
X35223765Y-40771380D01*
X35022570Y-40811400D01*
X34817430Y-40811400D01*
X34616235Y-40771380D01*
X34426714Y-40692878D01*
X34426713Y-40692878D01*
X34426712Y-40692877D01*
X34256146Y-40578908D01*
X34111092Y-40433854D01*
X33997123Y-40263288D01*
X33918620Y-40073765D01*
X33878600Y-39872569D01*
X33878600Y-39667431D01*
X33918620Y-39466235D01*
X33997123Y-39276712D01*
X34111092Y-39106146D01*
X34256146Y-38961092D01*
X34426712Y-38847123D01*
X34616235Y-38768620D01*
X34817430Y-38728600D01*
X35022570Y-38728600D01*
X35223765Y-38768620D01*
G37*
G36*
X132803765Y-38768620D02*
G01*
X132993288Y-38847123D01*
X133163854Y-38961092D01*
X133308908Y-39106146D01*
X133422877Y-39276712D01*
X133501380Y-39466235D01*
X133541400Y-39667431D01*
X133541400Y-39872569D01*
X133501380Y-40073765D01*
X133422877Y-40263288D01*
X133308908Y-40433854D01*
X133163854Y-40578908D01*
X132993288Y-40692877D01*
X132993287Y-40692878D01*
X132993286Y-40692878D01*
X132803765Y-40771380D01*
X132602570Y-40811400D01*
X132397430Y-40811400D01*
X132196235Y-40771380D01*
X132006714Y-40692878D01*
X132006713Y-40692878D01*
X132006712Y-40692877D01*
X131836146Y-40578908D01*
X131691092Y-40433854D01*
X131577123Y-40263288D01*
X131498620Y-40073765D01*
X131458600Y-39872569D01*
X131458600Y-39667431D01*
X131498620Y-39466235D01*
X131577123Y-39276712D01*
X131691092Y-39106146D01*
X131836146Y-38961092D01*
X132006712Y-38847123D01*
X132196235Y-38768620D01*
X132397430Y-38728600D01*
X132602570Y-38728600D01*
X132803765Y-38768620D01*
G37*
G36*
X135343765Y-38768620D02*
G01*
X135533288Y-38847123D01*
X135703854Y-38961092D01*
X135848908Y-39106146D01*
X135962877Y-39276712D01*
X136041380Y-39466235D01*
X136081400Y-39667431D01*
X136081400Y-39872569D01*
X136041380Y-40073765D01*
X135962877Y-40263288D01*
X135848908Y-40433854D01*
X135703854Y-40578908D01*
X135533288Y-40692877D01*
X135533287Y-40692878D01*
X135533286Y-40692878D01*
X135343765Y-40771380D01*
X135142570Y-40811400D01*
X134937430Y-40811400D01*
X134736235Y-40771380D01*
X134546714Y-40692878D01*
X134546713Y-40692878D01*
X134546712Y-40692877D01*
X134376146Y-40578908D01*
X134231092Y-40433854D01*
X134117123Y-40263288D01*
X134038620Y-40073765D01*
X133998600Y-39872569D01*
X133998600Y-39667431D01*
X134038620Y-39466235D01*
X134117123Y-39276712D01*
X134231092Y-39106146D01*
X134376146Y-38961092D01*
X134546712Y-38847123D01*
X134736235Y-38768620D01*
X134937430Y-38728600D01*
X135142570Y-38728600D01*
X135343765Y-38768620D01*
G37*
G36*
X137883765Y-38768620D02*
G01*
X138073288Y-38847123D01*
X138243854Y-38961092D01*
X138388908Y-39106146D01*
X138502877Y-39276712D01*
X138581380Y-39466235D01*
X138621400Y-39667431D01*
X138621400Y-39872569D01*
X138581380Y-40073765D01*
X138502877Y-40263288D01*
X138388908Y-40433854D01*
X138243854Y-40578908D01*
X138073288Y-40692877D01*
X138073287Y-40692878D01*
X138073286Y-40692878D01*
X137883765Y-40771380D01*
X137682570Y-40811400D01*
X137477430Y-40811400D01*
X137276235Y-40771380D01*
X137086714Y-40692878D01*
X137086713Y-40692878D01*
X137086712Y-40692877D01*
X136916146Y-40578908D01*
X136771092Y-40433854D01*
X136657123Y-40263288D01*
X136578620Y-40073765D01*
X136538600Y-39872569D01*
X136538600Y-39667431D01*
X136578620Y-39466235D01*
X136657123Y-39276712D01*
X136771092Y-39106146D01*
X136916146Y-38961092D01*
X137086712Y-38847123D01*
X137276235Y-38768620D01*
X137477430Y-38728600D01*
X137682570Y-38728600D01*
X137883765Y-38768620D01*
G37*
G36*
X42843765Y-38768620D02*
G01*
X43033288Y-38847123D01*
X43203854Y-38961092D01*
X43348908Y-39106146D01*
X43462877Y-39276712D01*
X43541380Y-39466235D01*
X43581400Y-39667431D01*
X43581400Y-39872569D01*
X43541380Y-40073765D01*
X43462877Y-40263288D01*
X43348908Y-40433854D01*
X43203854Y-40578908D01*
X43033288Y-40692877D01*
X43033287Y-40692878D01*
X43033286Y-40692878D01*
X42843765Y-40771380D01*
X42642570Y-40811400D01*
X42437430Y-40811400D01*
X42236235Y-40771380D01*
X42046714Y-40692878D01*
X42046713Y-40692878D01*
X42046712Y-40692877D01*
X41876146Y-40578908D01*
X41731092Y-40433854D01*
X41617123Y-40263288D01*
X41538620Y-40073765D01*
X41498600Y-39872569D01*
X41498600Y-39667431D01*
X41538620Y-39466235D01*
X41617123Y-39276712D01*
X41731092Y-39106146D01*
X41876146Y-38961092D01*
X42046712Y-38847123D01*
X42236235Y-38768620D01*
X42437430Y-38728600D01*
X42642570Y-38728600D01*
X42843765Y-38768620D01*
G37*
G36*
X40303765Y-38768620D02*
G01*
X40493288Y-38847123D01*
X40663854Y-38961092D01*
X40808908Y-39106146D01*
X40922877Y-39276712D01*
X41001380Y-39466235D01*
X41041400Y-39667431D01*
X41041400Y-39872569D01*
X41001380Y-40073765D01*
X40922877Y-40263288D01*
X40808908Y-40433854D01*
X40663854Y-40578908D01*
X40493288Y-40692877D01*
X40493287Y-40692878D01*
X40493286Y-40692878D01*
X40303765Y-40771380D01*
X40102570Y-40811400D01*
X39897430Y-40811400D01*
X39696235Y-40771380D01*
X39506714Y-40692878D01*
X39506713Y-40692878D01*
X39506712Y-40692877D01*
X39336146Y-40578908D01*
X39191092Y-40433854D01*
X39077123Y-40263288D01*
X38998620Y-40073765D01*
X38958600Y-39872569D01*
X38958600Y-39667431D01*
X38998620Y-39466235D01*
X39077123Y-39276712D01*
X39191092Y-39106146D01*
X39336146Y-38961092D01*
X39506712Y-38847123D01*
X39696235Y-38768620D01*
X39897430Y-38728600D01*
X40102570Y-38728600D01*
X40303765Y-38768620D01*
G37*
G36*
X37763765Y-38768620D02*
G01*
X37953288Y-38847123D01*
X38123854Y-38961092D01*
X38268908Y-39106146D01*
X38382877Y-39276712D01*
X38461380Y-39466235D01*
X38501400Y-39667431D01*
X38501400Y-39872569D01*
X38461380Y-40073765D01*
X38382877Y-40263288D01*
X38268908Y-40433854D01*
X38123854Y-40578908D01*
X37953288Y-40692877D01*
X37953287Y-40692878D01*
X37953286Y-40692878D01*
X37763765Y-40771380D01*
X37562570Y-40811400D01*
X37357430Y-40811400D01*
X37156235Y-40771380D01*
X36966714Y-40692878D01*
X36966713Y-40692878D01*
X36966712Y-40692877D01*
X36796146Y-40578908D01*
X36651092Y-40433854D01*
X36537123Y-40263288D01*
X36458620Y-40073765D01*
X36418600Y-39872569D01*
X36418600Y-39667431D01*
X36458620Y-39466235D01*
X36537123Y-39276712D01*
X36651092Y-39106146D01*
X36796146Y-38961092D01*
X36966712Y-38847123D01*
X37156235Y-38768620D01*
X37357430Y-38728600D01*
X37562570Y-38728600D01*
X37763765Y-38768620D01*
G37*
G36*
X127723765Y-38768620D02*
G01*
X127913288Y-38847123D01*
X128083854Y-38961092D01*
X128228908Y-39106146D01*
X128342877Y-39276712D01*
X128421380Y-39466235D01*
X128461400Y-39667431D01*
X128461400Y-39872569D01*
X128421380Y-40073765D01*
X128342877Y-40263288D01*
X128228908Y-40433854D01*
X128083854Y-40578908D01*
X127913288Y-40692877D01*
X127913287Y-40692878D01*
X127913286Y-40692878D01*
X127723765Y-40771380D01*
X127522570Y-40811400D01*
X127317430Y-40811400D01*
X127116235Y-40771380D01*
X126926714Y-40692878D01*
X126926713Y-40692878D01*
X126926712Y-40692877D01*
X126756146Y-40578908D01*
X126611092Y-40433854D01*
X126497123Y-40263288D01*
X126418620Y-40073765D01*
X126378600Y-39872569D01*
X126378600Y-39667431D01*
X126418620Y-39466235D01*
X126497123Y-39276712D01*
X126611092Y-39106146D01*
X126756146Y-38961092D01*
X126926712Y-38847123D01*
X127116235Y-38768620D01*
X127317430Y-38728600D01*
X127522570Y-38728600D01*
X127723765Y-38768620D01*
G37*
G36*
X45383765Y-38768620D02*
G01*
X45573288Y-38847123D01*
X45743854Y-38961092D01*
X45888908Y-39106146D01*
X46002877Y-39276712D01*
X46081380Y-39466235D01*
X46121400Y-39667431D01*
X46121400Y-39872569D01*
X46081380Y-40073765D01*
X46002877Y-40263288D01*
X45888908Y-40433854D01*
X45743854Y-40578908D01*
X45573288Y-40692877D01*
X45573287Y-40692878D01*
X45573286Y-40692878D01*
X45383765Y-40771380D01*
X45182570Y-40811400D01*
X44977430Y-40811400D01*
X44776235Y-40771380D01*
X44586714Y-40692878D01*
X44586713Y-40692878D01*
X44586712Y-40692877D01*
X44416146Y-40578908D01*
X44271092Y-40433854D01*
X44157123Y-40263288D01*
X44078620Y-40073765D01*
X44038600Y-39872569D01*
X44038600Y-39667431D01*
X44078620Y-39466235D01*
X44157123Y-39276712D01*
X44271092Y-39106146D01*
X44416146Y-38961092D01*
X44586712Y-38847123D01*
X44776235Y-38768620D01*
X44977430Y-38728600D01*
X45182570Y-38728600D01*
X45383765Y-38768620D01*
G37*
G36*
X45383765Y-36228620D02*
G01*
X45573288Y-36307123D01*
X45743854Y-36421092D01*
X45888908Y-36566146D01*
X46002877Y-36736712D01*
X46081380Y-36926235D01*
X46121400Y-37127431D01*
X46121400Y-37332569D01*
X46081380Y-37533765D01*
X46002877Y-37723288D01*
X45888908Y-37893854D01*
X45743854Y-38038908D01*
X45573288Y-38152877D01*
X45573287Y-38152878D01*
X45573286Y-38152878D01*
X45383765Y-38231380D01*
X45182570Y-38271400D01*
X44977430Y-38271400D01*
X44776235Y-38231380D01*
X44586714Y-38152878D01*
X44586713Y-38152878D01*
X44586712Y-38152877D01*
X44416146Y-38038908D01*
X44271092Y-37893854D01*
X44157123Y-37723288D01*
X44078620Y-37533765D01*
X44038600Y-37332569D01*
X44038600Y-37127431D01*
X44078620Y-36926235D01*
X44157123Y-36736712D01*
X44271092Y-36566146D01*
X44416146Y-36421092D01*
X44586712Y-36307123D01*
X44776235Y-36228620D01*
X44977430Y-36188600D01*
X45182570Y-36188600D01*
X45383765Y-36228620D01*
G37*
G36*
X42843765Y-36228620D02*
G01*
X43033288Y-36307123D01*
X43203854Y-36421092D01*
X43348908Y-36566146D01*
X43462877Y-36736712D01*
X43541380Y-36926235D01*
X43581400Y-37127431D01*
X43581400Y-37332569D01*
X43541380Y-37533765D01*
X43462877Y-37723288D01*
X43348908Y-37893854D01*
X43203854Y-38038908D01*
X43033288Y-38152877D01*
X43033287Y-38152878D01*
X43033286Y-38152878D01*
X42843765Y-38231380D01*
X42642570Y-38271400D01*
X42437430Y-38271400D01*
X42236235Y-38231380D01*
X42046714Y-38152878D01*
X42046713Y-38152878D01*
X42046712Y-38152877D01*
X41876146Y-38038908D01*
X41731092Y-37893854D01*
X41617123Y-37723288D01*
X41538620Y-37533765D01*
X41498600Y-37332569D01*
X41498600Y-37127431D01*
X41538620Y-36926235D01*
X41617123Y-36736712D01*
X41731092Y-36566146D01*
X41876146Y-36421092D01*
X42046712Y-36307123D01*
X42236235Y-36228620D01*
X42437430Y-36188600D01*
X42642570Y-36188600D01*
X42843765Y-36228620D01*
G37*
G36*
X127723765Y-36228620D02*
G01*
X127913288Y-36307123D01*
X128083854Y-36421092D01*
X128228908Y-36566146D01*
X128342877Y-36736712D01*
X128421380Y-36926235D01*
X128461400Y-37127431D01*
X128461400Y-37332569D01*
X128421380Y-37533765D01*
X128342877Y-37723288D01*
X128228908Y-37893854D01*
X128083854Y-38038908D01*
X127913288Y-38152877D01*
X127913287Y-38152878D01*
X127913286Y-38152878D01*
X127723765Y-38231380D01*
X127522570Y-38271400D01*
X127317430Y-38271400D01*
X127116235Y-38231380D01*
X126926714Y-38152878D01*
X126926713Y-38152878D01*
X126926712Y-38152877D01*
X126756146Y-38038908D01*
X126611092Y-37893854D01*
X126497123Y-37723288D01*
X126418620Y-37533765D01*
X126378600Y-37332569D01*
X126378600Y-37127431D01*
X126418620Y-36926235D01*
X126497123Y-36736712D01*
X126611092Y-36566146D01*
X126756146Y-36421092D01*
X126926712Y-36307123D01*
X127116235Y-36228620D01*
X127317430Y-36188600D01*
X127522570Y-36188600D01*
X127723765Y-36228620D01*
G37*
G36*
X130263765Y-36228620D02*
G01*
X130453288Y-36307123D01*
X130623854Y-36421092D01*
X130768908Y-36566146D01*
X130882877Y-36736712D01*
X130961380Y-36926235D01*
X131001400Y-37127431D01*
X131001400Y-37332569D01*
X130961380Y-37533765D01*
X130882877Y-37723288D01*
X130768908Y-37893854D01*
X130623854Y-38038908D01*
X130453288Y-38152877D01*
X130453287Y-38152878D01*
X130453286Y-38152878D01*
X130263765Y-38231380D01*
X130062570Y-38271400D01*
X129857430Y-38271400D01*
X129656235Y-38231380D01*
X129466714Y-38152878D01*
X129466713Y-38152878D01*
X129466712Y-38152877D01*
X129296146Y-38038908D01*
X129151092Y-37893854D01*
X129037123Y-37723288D01*
X128958620Y-37533765D01*
X128918600Y-37332569D01*
X128918600Y-37127431D01*
X128958620Y-36926235D01*
X129037123Y-36736712D01*
X129151092Y-36566146D01*
X129296146Y-36421092D01*
X129466712Y-36307123D01*
X129656235Y-36228620D01*
X129857430Y-36188600D01*
X130062570Y-36188600D01*
X130263765Y-36228620D01*
G37*
G36*
X132803765Y-36228620D02*
G01*
X132993288Y-36307123D01*
X133163854Y-36421092D01*
X133308908Y-36566146D01*
X133422877Y-36736712D01*
X133501380Y-36926235D01*
X133541400Y-37127431D01*
X133541400Y-37332569D01*
X133501380Y-37533765D01*
X133422877Y-37723288D01*
X133308908Y-37893854D01*
X133163854Y-38038908D01*
X132993288Y-38152877D01*
X132993287Y-38152878D01*
X132993286Y-38152878D01*
X132803765Y-38231380D01*
X132602570Y-38271400D01*
X132397430Y-38271400D01*
X132196235Y-38231380D01*
X132006714Y-38152878D01*
X132006713Y-38152878D01*
X132006712Y-38152877D01*
X131836146Y-38038908D01*
X131691092Y-37893854D01*
X131577123Y-37723288D01*
X131498620Y-37533765D01*
X131458600Y-37332569D01*
X131458600Y-37127431D01*
X131498620Y-36926235D01*
X131577123Y-36736712D01*
X131691092Y-36566146D01*
X131836146Y-36421092D01*
X132006712Y-36307123D01*
X132196235Y-36228620D01*
X132397430Y-36188600D01*
X132602570Y-36188600D01*
X132803765Y-36228620D01*
G37*
G36*
X40303765Y-36228620D02*
G01*
X40493288Y-36307123D01*
X40663854Y-36421092D01*
X40808908Y-36566146D01*
X40922877Y-36736712D01*
X41001380Y-36926235D01*
X41041400Y-37127431D01*
X41041400Y-37332569D01*
X41001380Y-37533765D01*
X40922877Y-37723288D01*
X40808908Y-37893854D01*
X40663854Y-38038908D01*
X40493288Y-38152877D01*
X40493287Y-38152878D01*
X40493286Y-38152878D01*
X40303765Y-38231380D01*
X40102570Y-38271400D01*
X39897430Y-38271400D01*
X39696235Y-38231380D01*
X39506714Y-38152878D01*
X39506713Y-38152878D01*
X39506712Y-38152877D01*
X39336146Y-38038908D01*
X39191092Y-37893854D01*
X39077123Y-37723288D01*
X38998620Y-37533765D01*
X38958600Y-37332569D01*
X38958600Y-37127431D01*
X38998620Y-36926235D01*
X39077123Y-36736712D01*
X39191092Y-36566146D01*
X39336146Y-36421092D01*
X39506712Y-36307123D01*
X39696235Y-36228620D01*
X39897430Y-36188600D01*
X40102570Y-36188600D01*
X40303765Y-36228620D01*
G37*
G36*
X135343765Y-36228620D02*
G01*
X135533288Y-36307123D01*
X135703854Y-36421092D01*
X135848908Y-36566146D01*
X135962877Y-36736712D01*
X136041380Y-36926235D01*
X136081400Y-37127431D01*
X136081400Y-37332569D01*
X136041380Y-37533765D01*
X135962877Y-37723288D01*
X135848908Y-37893854D01*
X135703854Y-38038908D01*
X135533288Y-38152877D01*
X135533287Y-38152878D01*
X135533286Y-38152878D01*
X135343765Y-38231380D01*
X135142570Y-38271400D01*
X134937430Y-38271400D01*
X134736235Y-38231380D01*
X134546714Y-38152878D01*
X134546713Y-38152878D01*
X134546712Y-38152877D01*
X134376146Y-38038908D01*
X134231092Y-37893854D01*
X134117123Y-37723288D01*
X134038620Y-37533765D01*
X133998600Y-37332569D01*
X133998600Y-37127431D01*
X134038620Y-36926235D01*
X134117123Y-36736712D01*
X134231092Y-36566146D01*
X134376146Y-36421092D01*
X134546712Y-36307123D01*
X134736235Y-36228620D01*
X134937430Y-36188600D01*
X135142570Y-36188600D01*
X135343765Y-36228620D01*
G37*
G36*
X137883765Y-36228620D02*
G01*
X138073288Y-36307123D01*
X138243854Y-36421092D01*
X138388908Y-36566146D01*
X138502877Y-36736712D01*
X138581380Y-36926235D01*
X138621400Y-37127431D01*
X138621400Y-37332569D01*
X138581380Y-37533765D01*
X138502877Y-37723288D01*
X138388908Y-37893854D01*
X138243854Y-38038908D01*
X138073288Y-38152877D01*
X138073287Y-38152878D01*
X138073286Y-38152878D01*
X137883765Y-38231380D01*
X137682570Y-38271400D01*
X137477430Y-38271400D01*
X137276235Y-38231380D01*
X137086714Y-38152878D01*
X137086713Y-38152878D01*
X137086712Y-38152877D01*
X136916146Y-38038908D01*
X136771092Y-37893854D01*
X136657123Y-37723288D01*
X136578620Y-37533765D01*
X136538600Y-37332569D01*
X136538600Y-37127431D01*
X136578620Y-36926235D01*
X136657123Y-36736712D01*
X136771092Y-36566146D01*
X136916146Y-36421092D01*
X137086712Y-36307123D01*
X137276235Y-36228620D01*
X137477430Y-36188600D01*
X137682570Y-36188600D01*
X137883765Y-36228620D01*
G37*
G36*
X37763765Y-36228620D02*
G01*
X37953288Y-36307123D01*
X38123854Y-36421092D01*
X38268908Y-36566146D01*
X38382877Y-36736712D01*
X38461380Y-36926235D01*
X38501400Y-37127431D01*
X38501400Y-37332569D01*
X38461380Y-37533765D01*
X38382877Y-37723288D01*
X38268908Y-37893854D01*
X38123854Y-38038908D01*
X37953288Y-38152877D01*
X37953287Y-38152878D01*
X37953286Y-38152878D01*
X37763765Y-38231380D01*
X37562570Y-38271400D01*
X37357430Y-38271400D01*
X37156235Y-38231380D01*
X36966714Y-38152878D01*
X36966713Y-38152878D01*
X36966712Y-38152877D01*
X36796146Y-38038908D01*
X36651092Y-37893854D01*
X36537123Y-37723288D01*
X36458620Y-37533765D01*
X36418600Y-37332569D01*
X36418600Y-37127431D01*
X36458620Y-36926235D01*
X36537123Y-36736712D01*
X36651092Y-36566146D01*
X36796146Y-36421092D01*
X36966712Y-36307123D01*
X37156235Y-36228620D01*
X37357430Y-36188600D01*
X37562570Y-36188600D01*
X37763765Y-36228620D01*
G37*
G36*
X35223765Y-36228620D02*
G01*
X35413288Y-36307123D01*
X35583854Y-36421092D01*
X35728908Y-36566146D01*
X35842877Y-36736712D01*
X35921380Y-36926235D01*
X35961400Y-37127431D01*
X35961400Y-37332569D01*
X35921380Y-37533765D01*
X35842877Y-37723288D01*
X35728908Y-37893854D01*
X35583854Y-38038908D01*
X35413288Y-38152877D01*
X35413287Y-38152878D01*
X35413286Y-38152878D01*
X35223765Y-38231380D01*
X35022570Y-38271400D01*
X34817430Y-38271400D01*
X34616235Y-38231380D01*
X34426714Y-38152878D01*
X34426713Y-38152878D01*
X34426712Y-38152877D01*
X34256146Y-38038908D01*
X34111092Y-37893854D01*
X33997123Y-37723288D01*
X33918620Y-37533765D01*
X33878600Y-37332569D01*
X33878600Y-37127431D01*
X33918620Y-36926235D01*
X33997123Y-36736712D01*
X34111092Y-36566146D01*
X34256146Y-36421092D01*
X34426712Y-36307123D01*
X34616235Y-36228620D01*
X34817430Y-36188600D01*
X35022570Y-36188600D01*
X35223765Y-36228620D01*
G37*
G36*
X97994686Y-29982165D02*
G01*
X98125734Y-30008232D01*
X98273850Y-30069584D01*
X98315202Y-30086712D01*
X98335203Y-30094997D01*
X98523720Y-30220960D01*
X98684040Y-30381280D01*
X98810003Y-30569797D01*
X98896768Y-30779266D01*
X98941000Y-31001636D01*
X98941000Y-31228364D01*
X98896768Y-31450734D01*
X98810003Y-31660203D01*
X98684040Y-31848720D01*
X98523720Y-32009040D01*
X98335203Y-32135003D01*
X98125734Y-32221768D01*
X98014549Y-32243884D01*
X97903365Y-32266000D01*
X97676635Y-32266000D01*
X97565451Y-32243884D01*
X97454266Y-32221768D01*
X97244797Y-32135003D01*
X97056280Y-32009040D01*
X96895960Y-31848720D01*
X96769997Y-31660203D01*
X96683232Y-31450734D01*
X96639000Y-31228364D01*
X96639000Y-31001636D01*
X96683232Y-30779266D01*
X96769997Y-30569797D01*
X96895960Y-30381280D01*
X97056280Y-30220960D01*
X97244797Y-30094997D01*
X97264799Y-30086712D01*
X97306150Y-30069584D01*
X97454266Y-30008232D01*
X97585314Y-29982165D01*
X97676635Y-29964000D01*
X97903365Y-29964000D01*
X97994686Y-29982165D01*
G37*
G36*
X73864686Y-29982165D02*
G01*
X73995734Y-30008232D01*
X74143850Y-30069584D01*
X74185202Y-30086712D01*
X74205203Y-30094997D01*
X74393720Y-30220960D01*
X74554040Y-30381280D01*
X74680003Y-30569797D01*
X74766768Y-30779266D01*
X74811000Y-31001636D01*
X74811000Y-31228364D01*
X74766768Y-31450734D01*
X74680003Y-31660203D01*
X74554040Y-31848720D01*
X74393720Y-32009040D01*
X74205203Y-32135003D01*
X73995734Y-32221768D01*
X73884549Y-32243884D01*
X73773365Y-32266000D01*
X73546635Y-32266000D01*
X73435451Y-32243884D01*
X73324266Y-32221768D01*
X73114797Y-32135003D01*
X72926280Y-32009040D01*
X72765960Y-31848720D01*
X72639997Y-31660203D01*
X72553232Y-31450734D01*
X72509000Y-31228364D01*
X72509000Y-31001636D01*
X72553232Y-30779266D01*
X72639997Y-30569797D01*
X72765960Y-30381280D01*
X72926280Y-30220960D01*
X73114797Y-30094997D01*
X73134799Y-30086712D01*
X73176150Y-30069584D01*
X73324266Y-30008232D01*
X73455314Y-29982165D01*
X73546635Y-29964000D01*
X73773365Y-29964000D01*
X73864686Y-29982165D01*
G37*
G36*
X35343765Y-29578620D02*
G01*
X35533288Y-29657123D01*
X35703854Y-29771092D01*
X35848908Y-29916146D01*
X35893022Y-29982167D01*
X35962878Y-30086714D01*
X35966309Y-30094997D01*
X36041380Y-30276235D01*
X36081400Y-30477431D01*
X36081400Y-30682569D01*
X36041380Y-30883765D01*
X35962877Y-31073288D01*
X35848908Y-31243854D01*
X35703854Y-31388908D01*
X35533288Y-31502877D01*
X35533287Y-31502878D01*
X35533286Y-31502878D01*
X35343765Y-31581380D01*
X35142570Y-31621400D01*
X34937430Y-31621400D01*
X34736235Y-31581380D01*
X34546714Y-31502878D01*
X34546713Y-31502878D01*
X34546712Y-31502877D01*
X34376146Y-31388908D01*
X34231092Y-31243854D01*
X34117123Y-31073288D01*
X34038620Y-30883765D01*
X33998600Y-30682569D01*
X33998600Y-30477431D01*
X34038620Y-30276235D01*
X34113691Y-30094997D01*
X34117122Y-30086714D01*
X34186978Y-29982167D01*
X34231092Y-29916146D01*
X34376146Y-29771092D01*
X34546712Y-29657123D01*
X34736235Y-29578620D01*
X34937430Y-29538600D01*
X35142570Y-29538600D01*
X35343765Y-29578620D01*
G37*
G36*
X32803765Y-29578620D02*
G01*
X32993288Y-29657123D01*
X33163854Y-29771092D01*
X33308908Y-29916146D01*
X33353022Y-29982167D01*
X33422878Y-30086714D01*
X33426309Y-30094997D01*
X33501380Y-30276235D01*
X33541400Y-30477431D01*
X33541400Y-30682569D01*
X33501380Y-30883765D01*
X33422877Y-31073288D01*
X33308908Y-31243854D01*
X33163854Y-31388908D01*
X32993288Y-31502877D01*
X32993287Y-31502878D01*
X32993286Y-31502878D01*
X32803765Y-31581380D01*
X32602570Y-31621400D01*
X32397430Y-31621400D01*
X32196235Y-31581380D01*
X32006714Y-31502878D01*
X32006713Y-31502878D01*
X32006712Y-31502877D01*
X31836146Y-31388908D01*
X31691092Y-31243854D01*
X31577123Y-31073288D01*
X31498620Y-30883765D01*
X31458600Y-30682569D01*
X31458600Y-30477431D01*
X31498620Y-30276235D01*
X31573691Y-30094997D01*
X31577122Y-30086714D01*
X31646978Y-29982167D01*
X31691092Y-29916146D01*
X31836146Y-29771092D01*
X32006712Y-29657123D01*
X32196235Y-29578620D01*
X32397430Y-29538600D01*
X32602570Y-29538600D01*
X32803765Y-29578620D01*
G37*
G36*
X37883765Y-29578620D02*
G01*
X38073288Y-29657123D01*
X38243854Y-29771092D01*
X38388908Y-29916146D01*
X38433022Y-29982167D01*
X38502878Y-30086714D01*
X38506309Y-30094997D01*
X38581380Y-30276235D01*
X38621400Y-30477431D01*
X38621400Y-30682569D01*
X38581380Y-30883765D01*
X38502877Y-31073288D01*
X38388908Y-31243854D01*
X38243854Y-31388908D01*
X38073288Y-31502877D01*
X38073287Y-31502878D01*
X38073286Y-31502878D01*
X37883765Y-31581380D01*
X37682570Y-31621400D01*
X37477430Y-31621400D01*
X37276235Y-31581380D01*
X37086714Y-31502878D01*
X37086713Y-31502878D01*
X37086712Y-31502877D01*
X36916146Y-31388908D01*
X36771092Y-31243854D01*
X36657123Y-31073288D01*
X36578620Y-30883765D01*
X36538600Y-30682569D01*
X36538600Y-30477431D01*
X36578620Y-30276235D01*
X36653691Y-30094997D01*
X36657122Y-30086714D01*
X36726978Y-29982167D01*
X36771092Y-29916146D01*
X36916146Y-29771092D01*
X37086712Y-29657123D01*
X37276235Y-29578620D01*
X37477430Y-29538600D01*
X37682570Y-29538600D01*
X37883765Y-29578620D01*
G37*
G36*
X40423765Y-29578620D02*
G01*
X40613288Y-29657123D01*
X40783854Y-29771092D01*
X40928908Y-29916146D01*
X40973022Y-29982167D01*
X41042878Y-30086714D01*
X41046309Y-30094997D01*
X41121380Y-30276235D01*
X41161400Y-30477431D01*
X41161400Y-30682569D01*
X41121380Y-30883765D01*
X41042877Y-31073288D01*
X40928908Y-31243854D01*
X40783854Y-31388908D01*
X40613288Y-31502877D01*
X40613287Y-31502878D01*
X40613286Y-31502878D01*
X40423765Y-31581380D01*
X40222570Y-31621400D01*
X40017430Y-31621400D01*
X39816235Y-31581380D01*
X39626714Y-31502878D01*
X39626713Y-31502878D01*
X39626712Y-31502877D01*
X39456146Y-31388908D01*
X39311092Y-31243854D01*
X39197123Y-31073288D01*
X39118620Y-30883765D01*
X39078600Y-30682569D01*
X39078600Y-30477431D01*
X39118620Y-30276235D01*
X39193691Y-30094997D01*
X39197122Y-30086714D01*
X39266978Y-29982167D01*
X39311092Y-29916146D01*
X39456146Y-29771092D01*
X39626712Y-29657123D01*
X39816235Y-29578620D01*
X40017430Y-29538600D01*
X40222570Y-29538600D01*
X40423765Y-29578620D01*
G37*
G36*
X42963765Y-29578620D02*
G01*
X43153288Y-29657123D01*
X43323854Y-29771092D01*
X43468908Y-29916146D01*
X43513022Y-29982167D01*
X43582878Y-30086714D01*
X43586309Y-30094997D01*
X43661380Y-30276235D01*
X43701400Y-30477431D01*
X43701400Y-30682569D01*
X43661380Y-30883765D01*
X43582877Y-31073288D01*
X43468908Y-31243854D01*
X43323854Y-31388908D01*
X43153288Y-31502877D01*
X43153287Y-31502878D01*
X43153286Y-31502878D01*
X42963765Y-31581380D01*
X42762570Y-31621400D01*
X42557430Y-31621400D01*
X42356235Y-31581380D01*
X42166714Y-31502878D01*
X42166713Y-31502878D01*
X42166712Y-31502877D01*
X41996146Y-31388908D01*
X41851092Y-31243854D01*
X41737123Y-31073288D01*
X41658620Y-30883765D01*
X41618600Y-30682569D01*
X41618600Y-30477431D01*
X41658620Y-30276235D01*
X41733691Y-30094997D01*
X41737122Y-30086714D01*
X41806978Y-29982167D01*
X41851092Y-29916146D01*
X41996146Y-29771092D01*
X42166712Y-29657123D01*
X42356235Y-29578620D01*
X42557430Y-29538600D01*
X42762570Y-29538600D01*
X42963765Y-29578620D01*
G37*
G36*
X45503765Y-29578620D02*
G01*
X45693288Y-29657123D01*
X45863854Y-29771092D01*
X46008908Y-29916146D01*
X46053022Y-29982167D01*
X46122878Y-30086714D01*
X46126309Y-30094997D01*
X46201380Y-30276235D01*
X46241400Y-30477431D01*
X46241400Y-30682569D01*
X46201380Y-30883765D01*
X46122877Y-31073288D01*
X46008908Y-31243854D01*
X45863854Y-31388908D01*
X45693288Y-31502877D01*
X45693287Y-31502878D01*
X45693286Y-31502878D01*
X45503765Y-31581380D01*
X45302570Y-31621400D01*
X45097430Y-31621400D01*
X44896235Y-31581380D01*
X44706714Y-31502878D01*
X44706713Y-31502878D01*
X44706712Y-31502877D01*
X44536146Y-31388908D01*
X44391092Y-31243854D01*
X44277123Y-31073288D01*
X44198620Y-30883765D01*
X44158600Y-30682569D01*
X44158600Y-30477431D01*
X44198620Y-30276235D01*
X44273691Y-30094997D01*
X44277122Y-30086714D01*
X44346978Y-29982167D01*
X44391092Y-29916146D01*
X44536146Y-29771092D01*
X44706712Y-29657123D01*
X44896235Y-29578620D01*
X45097430Y-29538600D01*
X45302570Y-29538600D01*
X45503765Y-29578620D01*
G37*
G36*
X48043765Y-29578620D02*
G01*
X48233288Y-29657123D01*
X48403854Y-29771092D01*
X48548908Y-29916146D01*
X48593022Y-29982167D01*
X48662878Y-30086714D01*
X48666309Y-30094997D01*
X48741380Y-30276235D01*
X48781400Y-30477431D01*
X48781400Y-30682569D01*
X48741380Y-30883765D01*
X48662877Y-31073288D01*
X48548908Y-31243854D01*
X48403854Y-31388908D01*
X48233288Y-31502877D01*
X48233287Y-31502878D01*
X48233286Y-31502878D01*
X48043765Y-31581380D01*
X47842570Y-31621400D01*
X47637430Y-31621400D01*
X47436235Y-31581380D01*
X47246714Y-31502878D01*
X47246713Y-31502878D01*
X47246712Y-31502877D01*
X47076146Y-31388908D01*
X46931092Y-31243854D01*
X46817123Y-31073288D01*
X46738620Y-30883765D01*
X46698600Y-30682569D01*
X46698600Y-30477431D01*
X46738620Y-30276235D01*
X46813691Y-30094997D01*
X46817122Y-30086714D01*
X46886978Y-29982167D01*
X46931092Y-29916146D01*
X47076146Y-29771092D01*
X47246712Y-29657123D01*
X47436235Y-29578620D01*
X47637430Y-29538600D01*
X47842570Y-29538600D01*
X48043765Y-29578620D01*
G37*
G36*
X50583765Y-29578620D02*
G01*
X50773288Y-29657123D01*
X50943854Y-29771092D01*
X51088908Y-29916146D01*
X51133022Y-29982167D01*
X51202878Y-30086714D01*
X51206309Y-30094997D01*
X51281380Y-30276235D01*
X51321400Y-30477431D01*
X51321400Y-30682569D01*
X51281380Y-30883765D01*
X51202877Y-31073288D01*
X51088908Y-31243854D01*
X50943854Y-31388908D01*
X50773288Y-31502877D01*
X50773287Y-31502878D01*
X50773286Y-31502878D01*
X50583765Y-31581380D01*
X50382570Y-31621400D01*
X50177430Y-31621400D01*
X49976235Y-31581380D01*
X49786714Y-31502878D01*
X49786713Y-31502878D01*
X49786712Y-31502877D01*
X49616146Y-31388908D01*
X49471092Y-31243854D01*
X49357123Y-31073288D01*
X49278620Y-30883765D01*
X49238600Y-30682569D01*
X49238600Y-30477431D01*
X49278620Y-30276235D01*
X49353691Y-30094997D01*
X49357122Y-30086714D01*
X49426978Y-29982167D01*
X49471092Y-29916146D01*
X49616146Y-29771092D01*
X49786712Y-29657123D01*
X49976235Y-29578620D01*
X50177430Y-29538600D01*
X50382570Y-29538600D01*
X50583765Y-29578620D01*
G37*
G36*
X53123765Y-29578620D02*
G01*
X53313288Y-29657123D01*
X53483854Y-29771092D01*
X53628908Y-29916146D01*
X53673022Y-29982167D01*
X53742878Y-30086714D01*
X53746309Y-30094997D01*
X53821380Y-30276235D01*
X53861400Y-30477431D01*
X53861400Y-30682569D01*
X53821380Y-30883765D01*
X53742877Y-31073288D01*
X53628908Y-31243854D01*
X53483854Y-31388908D01*
X53313288Y-31502877D01*
X53313287Y-31502878D01*
X53313286Y-31502878D01*
X53123765Y-31581380D01*
X52922570Y-31621400D01*
X52717430Y-31621400D01*
X52516235Y-31581380D01*
X52326714Y-31502878D01*
X52326713Y-31502878D01*
X52326712Y-31502877D01*
X52156146Y-31388908D01*
X52011092Y-31243854D01*
X51897123Y-31073288D01*
X51818620Y-30883765D01*
X51778600Y-30682569D01*
X51778600Y-30477431D01*
X51818620Y-30276235D01*
X51893691Y-30094997D01*
X51897122Y-30086714D01*
X51966978Y-29982167D01*
X52011092Y-29916146D01*
X52156146Y-29771092D01*
X52326712Y-29657123D01*
X52516235Y-29578620D01*
X52717430Y-29538600D01*
X52922570Y-29538600D01*
X53123765Y-29578620D01*
G37*
G36*
X55663765Y-29578620D02*
G01*
X55853288Y-29657123D01*
X56023854Y-29771092D01*
X56168908Y-29916146D01*
X56213022Y-29982167D01*
X56282878Y-30086714D01*
X56286309Y-30094997D01*
X56361380Y-30276235D01*
X56401400Y-30477431D01*
X56401400Y-30682569D01*
X56361380Y-30883765D01*
X56282877Y-31073288D01*
X56168908Y-31243854D01*
X56023854Y-31388908D01*
X55853288Y-31502877D01*
X55853287Y-31502878D01*
X55853286Y-31502878D01*
X55663765Y-31581380D01*
X55462570Y-31621400D01*
X55257430Y-31621400D01*
X55056235Y-31581380D01*
X54866714Y-31502878D01*
X54866713Y-31502878D01*
X54866712Y-31502877D01*
X54696146Y-31388908D01*
X54551092Y-31243854D01*
X54437123Y-31073288D01*
X54358620Y-30883765D01*
X54318600Y-30682569D01*
X54318600Y-30477431D01*
X54358620Y-30276235D01*
X54433691Y-30094997D01*
X54437122Y-30086714D01*
X54506978Y-29982167D01*
X54551092Y-29916146D01*
X54696146Y-29771092D01*
X54866712Y-29657123D01*
X55056235Y-29578620D01*
X55257430Y-29538600D01*
X55462570Y-29538600D01*
X55663765Y-29578620D01*
G37*
G36*
X58203765Y-29578620D02*
G01*
X58393288Y-29657123D01*
X58563854Y-29771092D01*
X58708908Y-29916146D01*
X58753022Y-29982167D01*
X58822878Y-30086714D01*
X58826309Y-30094997D01*
X58901380Y-30276235D01*
X58941400Y-30477431D01*
X58941400Y-30682569D01*
X58901380Y-30883765D01*
X58822877Y-31073288D01*
X58708908Y-31243854D01*
X58563854Y-31388908D01*
X58393288Y-31502877D01*
X58393287Y-31502878D01*
X58393286Y-31502878D01*
X58203765Y-31581380D01*
X58002570Y-31621400D01*
X57797430Y-31621400D01*
X57596235Y-31581380D01*
X57406714Y-31502878D01*
X57406713Y-31502878D01*
X57406712Y-31502877D01*
X57236146Y-31388908D01*
X57091092Y-31243854D01*
X56977123Y-31073288D01*
X56898620Y-30883765D01*
X56858600Y-30682569D01*
X56858600Y-30477431D01*
X56898620Y-30276235D01*
X56973691Y-30094997D01*
X56977122Y-30086714D01*
X57046978Y-29982167D01*
X57091092Y-29916146D01*
X57236146Y-29771092D01*
X57406712Y-29657123D01*
X57596235Y-29578620D01*
X57797430Y-29538600D01*
X58002570Y-29538600D01*
X58203765Y-29578620D01*
G37*
G36*
X60743765Y-29578620D02*
G01*
X60933288Y-29657123D01*
X61103854Y-29771092D01*
X61248908Y-29916146D01*
X61293022Y-29982167D01*
X61362878Y-30086714D01*
X61366309Y-30094997D01*
X61441380Y-30276235D01*
X61481400Y-30477431D01*
X61481400Y-30682569D01*
X61441380Y-30883765D01*
X61362877Y-31073288D01*
X61248908Y-31243854D01*
X61103854Y-31388908D01*
X60933288Y-31502877D01*
X60933287Y-31502878D01*
X60933286Y-31502878D01*
X60743765Y-31581380D01*
X60542570Y-31621400D01*
X60337430Y-31621400D01*
X60136235Y-31581380D01*
X59946714Y-31502878D01*
X59946713Y-31502878D01*
X59946712Y-31502877D01*
X59776146Y-31388908D01*
X59631092Y-31243854D01*
X59517123Y-31073288D01*
X59438620Y-30883765D01*
X59398600Y-30682569D01*
X59398600Y-30477431D01*
X59438620Y-30276235D01*
X59513691Y-30094997D01*
X59517122Y-30086714D01*
X59586978Y-29982167D01*
X59631092Y-29916146D01*
X59776146Y-29771092D01*
X59946712Y-29657123D01*
X60136235Y-29578620D01*
X60337430Y-29538600D01*
X60542570Y-29538600D01*
X60743765Y-29578620D01*
G37*
G36*
X63731564Y-29469389D02*
G01*
X63922833Y-29548615D01*
X63922835Y-29548616D01*
X64094973Y-29663635D01*
X64241365Y-29810027D01*
X64344247Y-29964000D01*
X64356385Y-29982167D01*
X64435611Y-30173436D01*
X64476000Y-30376484D01*
X64476000Y-30583516D01*
X64435611Y-30786564D01*
X64395349Y-30883765D01*
X64356384Y-30977835D01*
X64241365Y-31149973D01*
X64094973Y-31296365D01*
X63922835Y-31411384D01*
X63922834Y-31411385D01*
X63922833Y-31411385D01*
X63731564Y-31490611D01*
X63528516Y-31531000D01*
X63321484Y-31531000D01*
X63118436Y-31490611D01*
X62927167Y-31411385D01*
X62927166Y-31411385D01*
X62927165Y-31411384D01*
X62755027Y-31296365D01*
X62608635Y-31149973D01*
X62493616Y-30977835D01*
X62454651Y-30883765D01*
X62414389Y-30786564D01*
X62374000Y-30583516D01*
X62374000Y-30376484D01*
X62414389Y-30173436D01*
X62493615Y-29982167D01*
X62505754Y-29964000D01*
X62608635Y-29810027D01*
X62755027Y-29663635D01*
X62927165Y-29548616D01*
X62927167Y-29548615D01*
X63118436Y-29469389D01*
X63321484Y-29429000D01*
X63528516Y-29429000D01*
X63731564Y-29469389D01*
G37*
G36*
X70231564Y-29469389D02*
G01*
X70422833Y-29548615D01*
X70422835Y-29548616D01*
X70594973Y-29663635D01*
X70741365Y-29810027D01*
X70844247Y-29964000D01*
X70856385Y-29982167D01*
X70935611Y-30173436D01*
X70976000Y-30376484D01*
X70976000Y-30583516D01*
X70935611Y-30786564D01*
X70895349Y-30883765D01*
X70856384Y-30977835D01*
X70741365Y-31149973D01*
X70594973Y-31296365D01*
X70422835Y-31411384D01*
X70422834Y-31411385D01*
X70422833Y-31411385D01*
X70231564Y-31490611D01*
X70028516Y-31531000D01*
X69821484Y-31531000D01*
X69618436Y-31490611D01*
X69427167Y-31411385D01*
X69427166Y-31411385D01*
X69427165Y-31411384D01*
X69255027Y-31296365D01*
X69108635Y-31149973D01*
X68993616Y-30977835D01*
X68954651Y-30883765D01*
X68914389Y-30786564D01*
X68874000Y-30583516D01*
X68874000Y-30376484D01*
X68914389Y-30173436D01*
X68993615Y-29982167D01*
X69005754Y-29964000D01*
X69108635Y-29810027D01*
X69255027Y-29663635D01*
X69427165Y-29548616D01*
X69427167Y-29548615D01*
X69618436Y-29469389D01*
X69821484Y-29429000D01*
X70028516Y-29429000D01*
X70231564Y-29469389D01*
G37*
M02*
