M48
; DRILL file {KiCad (5.1.5)-3} date 2020/07/04 19:25:04
; FORMAT={-:-/ absolute / metric / decimal}
; #@! TF.CreationDate,2020-07-04T19:25:04+09:00
; #@! TF.GenerationSoftware,Kicad,Pcbnew,(5.1.5)-3
; #@! TF.FileFunction,Plated,1,2,PTH
FMAT,2
METRIC
T1C0.400
T2C0.700
T3C1.016
T4C1.300
T5C1.500
%
G90
G05
T1
X41.91Y-41.656
X46.609Y-35.687
X53.848Y-39.751
X55.104Y-41.035
X56.134Y-41.82
X57.5Y-65.5
X58.039Y-42.545
T2
X129.6Y-84.5
X137.4Y-84.5
X91.6Y-103.5
X99.4Y-103.5
X110.6Y-122.5
X118.4Y-122.5
X53.6Y-84.5
X61.4Y-84.5
X91.6Y-122.5
X99.4Y-122.5
X129.6Y-103.5
X137.4Y-103.5
X53.6Y-122.5
X61.4Y-122.5
X53.675Y-103.5
X61.475Y-103.5
X110.6Y-84.5
X118.4Y-84.5
X129.6Y-65.5
X137.4Y-65.5
X91.6Y-65.5
X99.4Y-65.5
X34.6Y-65.5
X42.4Y-65.5
X110.6Y-65.5
X118.4Y-65.5
X91.6Y-84.5
X99.4Y-84.5
X110.6Y-103.5
X118.4Y-103.5
X72.6Y-65.5
X80.4Y-65.5
X72.6Y-84.5
X80.4Y-84.5
X72.675Y-103.5
X80.475Y-103.5
X129.6Y-122.5
X137.4Y-122.5
X34.6Y-103.5
X42.4Y-103.5
X72.6Y-122.5
X80.4Y-122.5
X34.6Y-122.5
X42.4Y-122.5
X53.6Y-65.5
X61.4Y-65.5
X34.6Y-84.5
X42.4Y-84.5
T3
X32.5Y-30.58
X32.5Y-45.82
X35.04Y-30.58
X35.04Y-45.82
X37.58Y-30.58
X37.58Y-45.82
X40.12Y-30.58
X40.12Y-45.82
X42.66Y-30.58
X42.66Y-45.82
X45.2Y-30.58
X45.2Y-45.82
X47.74Y-30.58
X47.74Y-45.82
X50.28Y-30.58
X50.28Y-45.82
X52.82Y-30.58
X52.82Y-45.82
X55.36Y-30.58
X55.36Y-45.82
X57.9Y-30.58
X57.9Y-45.82
X60.44Y-30.58
X60.44Y-45.82
X127.42Y-37.23
X127.42Y-39.77
X129.96Y-37.23
X129.96Y-39.77
X132.5Y-37.23
X132.5Y-39.77
X135.04Y-37.23
X135.04Y-39.77
X137.58Y-37.23
X137.58Y-39.77
X34.92Y-37.23
X34.92Y-39.77
X37.46Y-37.23
X37.46Y-39.77
X40.0Y-37.23
X40.0Y-39.77
X42.54Y-37.23
X42.54Y-39.77
X45.08Y-37.23
X45.08Y-39.77
T4
X63.425Y-30.48
X69.925Y-30.48
T5
G00X130.35Y-91.25
M15
G01X129.54Y-92.71
M16
G05
G00X135.89Y-90.171
M15
G01X135.85Y-90.749
M16
G05
G00X54.15Y-53.15
M15
G01X53.34Y-54.61
M16
G05
G00X59.69Y-52.071
M15
G01X59.65Y-52.649
M16
G05
G00X92.25Y-110.3
M15
G01X91.44Y-111.76
M16
G05
G00X97.79Y-109.221
M15
G01X97.75Y-109.799
M16
G05
G00X35.1Y-91.25
M15
G01X34.29Y-92.71
M16
G05
G00X40.64Y-90.171
M15
G01X40.6Y-90.749
M16
G05
G00X111.3Y-110.3
M15
G01X110.49Y-111.76
M16
G05
G00X116.84Y-109.221
M15
G01X116.8Y-109.799
M16
G05
G00X92.25Y-91.25
M15
G01X91.44Y-92.71
M16
G05
G00X97.79Y-90.171
M15
G01X97.75Y-90.749
M16
G05
G00X130.35Y-53.15
M15
G01X129.54Y-54.61
M16
G05
G00X135.89Y-52.071
M15
G01X135.85Y-52.649
M16
G05
G00X92.25Y-72.2
M15
G01X91.44Y-73.66
M16
G05
G00X97.79Y-71.121
M15
G01X97.75Y-71.699
M16
G05
G00X73.2Y-53.15
M15
G01X72.39Y-54.61
M16
G05
G00X78.74Y-52.071
M15
G01X78.7Y-52.649
M16
G05
G00X111.3Y-91.25
M15
G01X110.49Y-92.71
M16
G05
G00X116.84Y-90.171
M15
G01X116.8Y-90.749
M16
G05
G00X54.15Y-91.25
M15
G01X53.34Y-92.71
M16
G05
G00X59.69Y-90.171
M15
G01X59.65Y-90.749
M16
G05
G00X35.1Y-72.2
M15
G01X34.29Y-73.66
M16
G05
G00X40.64Y-71.121
M15
G01X40.6Y-71.699
M16
G05
G00X73.2Y-110.3
M15
G01X72.39Y-111.76
M16
G05
G00X78.74Y-109.221
M15
G01X78.7Y-109.799
M16
G05
G00X111.3Y-53.15
M15
G01X110.49Y-54.61
M16
G05
G00X116.84Y-52.071
M15
G01X116.8Y-52.649
M16
G05
G00X54.15Y-72.2
M15
G01X53.34Y-73.66
M16
G05
G00X59.69Y-71.121
M15
G01X59.65Y-71.699
M16
G05
G00X92.25Y-53.15
M15
G01X91.44Y-54.61
M16
G05
G00X97.79Y-52.071
M15
G01X97.75Y-52.649
M16
G05
G00X73.2Y-91.25
M15
G01X72.39Y-92.71
M16
G05
G00X78.74Y-90.171
M15
G01X78.7Y-90.749
M16
G05
G00X111.3Y-72.2
M15
G01X110.49Y-73.66
M16
G05
G00X116.84Y-71.121
M15
G01X116.8Y-71.699
M16
G05
G00X35.1Y-53.15
M15
G01X34.29Y-54.61
M16
G05
G00X40.64Y-52.071
M15
G01X40.6Y-52.649
M16
G05
G00X73.2Y-72.2
M15
G01X72.39Y-73.66
M16
G05
G00X78.74Y-71.121
M15
G01X78.7Y-71.699
M16
G05
G00X35.1Y-110.3
M15
G01X34.29Y-111.76
M16
G05
G00X40.64Y-109.221
M15
G01X40.6Y-109.799
M16
G05
G00X130.35Y-110.3
M15
G01X129.54Y-111.76
M16
G05
G00X135.89Y-109.221
M15
G01X135.85Y-109.799
M16
G05
G00X54.15Y-110.3
M15
G01X53.34Y-111.76
M16
G05
G00X59.69Y-109.221
M15
G01X59.65Y-109.799
M16
G05
G00X130.35Y-72.2
M15
G01X129.54Y-73.66
M16
G05
G00X135.89Y-71.121
M15
G01X135.85Y-71.699
M16
G05
T0
M30
